<?xml version="1.0" encoding="UTF-8" standalone="no"?>
<!-- Created with Inkscape (http://www.inkscape.org/) -->

<svg
   xmlns:dc="http://purl.org/dc/elements/1.1/"
   xmlns:cc="http://creativecommons.org/ns#"
   xmlns:rdf="http://www.w3.org/1999/02/22-rdf-syntax-ns#"
   xmlns:svg="http://www.w3.org/2000/svg"
   xmlns="http://www.w3.org/2000/svg"
   xmlns:sodipodi="http://sodipodi.sourceforge.net/DTD/sodipodi-0.dtd"
   xmlns:inkscape="http://www.inkscape.org/namespaces/inkscape"
   id="svg3004"
   version="1.1"
   inkscape:version="0.91 r13725"
   width="744.095"
   height="1052.3625"
   xml:space="preserve"
   sodipodi:docname="Communications_Simgrid_interprocess_v1.svg"
   inkscape:export-filename="/home/algorille/Bureau/SIMGRID/doc/Pictures/Communications_Simgrid_interprocess.png"
   inkscape:export-xdpi="90"
   inkscape:export-ydpi="90"><metadata
     id="metadata3010"><rdf:RDF><cc:Work
         rdf:about=""><dc:format>image/svg+xml</dc:format><dc:type
           rdf:resource="http://purl.org/dc/dcmitype/StillImage" /><dc:title></dc:title></cc:Work></rdf:RDF></metadata><defs
     id="defs3008" /><sodipodi:namedview
     pagecolor="#ffffff"
     bordercolor="#666666"
     borderopacity="1"
     objecttolerance="10"
     gridtolerance="10"
     guidetolerance="10"
     inkscape:pageopacity="0"
     inkscape:pageshadow="2"
     inkscape:window-width="875"
     inkscape:window-height="842"
     id="namedview3006"
     showgrid="false"
     inkscape:zoom="1.7218401"
     inkscape:cx="353.47776"
     inkscape:cy="897.87665"
     inkscape:window-x="581"
     inkscape:window-y="106"
     inkscape:window-maximized="0"
     inkscape:current-layer="g3012" /><g
     id="g3012"
     inkscape:groupmode="layer"
     inkscape:label="2014-master-simterpose-rapport"
     transform="matrix(1.25,0,0,-1.25,0,1052.3625)"><path
       inkscape:connector-curvature="0"
       id="path3032"
       style="fill:none;stroke:#000000;stroke-width:0.54515171;stroke-linecap:butt;stroke-linejoin:miter;stroke-miterlimit:10;stroke-dasharray:none;stroke-opacity:1"
       d="m 151.24606,665.56649 0,23.7471 22.79744,0 0,-23.7471 -22.79744,0 z" /><g
       id="g3034"
       transform="matrix(1.3403766,0,0,1.3962118,162.64478,677.44004)"><g
         transform="translate(-6.908,-4.085)"
         id="g3036"><g
           id="g3038"><g
             transform="translate(-203.739,-646.412)"
             id="g3040"><text
               id="text3042"
               transform="matrix(1,0,0,-1,203.739,646.413)"><tspan
                 id="tspan3044"
                 sodipodi:role="line"
                 y="0"
                 x="0 7.9645543"
                 style="font-variant:normal;font-weight:normal;font-size:11.9552002px;font-family:CMR12;-inkscape-font-specification:CMR12;writing-mode:lr-tb;fill:#000000;fill-opacity:1;fill-rule:nonzero;stroke:none">P1</tspan></text>
<g
               transform="translate(203.739,646.413)"
               id="g3046" /></g></g><g
           transform="translate(6.908,4.084)"
           id="g3048" /></g></g><path
       inkscape:connector-curvature="0"
       id="path3050"
       style="fill:none;stroke:#000000;stroke-width:0.54515171;stroke-linecap:butt;stroke-linejoin:miter;stroke-miterlimit:10;stroke-dasharray:none;stroke-opacity:1"
       d="m 379.21841,665.56649 0,23.7471 22.7975,0 0,-23.7471 -22.7975,0 z" /><g
       id="g3052"
       transform="matrix(1.3403766,0,0,1.3962118,162.64478,677.44004)"><g
         transform="translate(163.17,-4.084)"
         id="g3054"><g
           id="g3056"><g
             transform="translate(-373.817,-646.413)"
             id="g3058"><text
               id="text3060"
               transform="matrix(1,0,0,-1,373.817,646.413)"><tspan
                 id="tspan3062"
                 sodipodi:role="line"
                 y="0"
                 x="0 7.9645543"
                 style="font-variant:normal;font-weight:normal;font-size:11.9552002px;font-family:CMR12;-inkscape-font-specification:CMR12;writing-mode:lr-tb;fill:#000000;fill-opacity:1;fill-rule:nonzero;stroke:none">P3</tspan></text>
<g
               transform="translate(373.817,646.413)"
               id="g3064" /></g></g><g
           transform="translate(-163.17,4.084)"
           id="g3066" /></g></g><path
       inkscape:connector-curvature="0"
       id="path3068"
       style="fill:none;stroke:#000000;stroke-width:0.54515171;stroke-linecap:butt;stroke-linejoin:miter;stroke-miterlimit:10;stroke-dasharray:none;stroke-opacity:1"
       d="m 265.23223,736.80724 0,23.74714 22.79746,0 0,-23.74714 -22.79746,0 z" /><g
       id="g3070"
       transform="matrix(1.3403766,0,0,1.3962118,162.64478,677.44004)"><g
         transform="translate(78.131,46.939)"
         id="g3072"><g
           id="g3074"><g
             transform="translate(-288.778,-697.436)"
             id="g3076"><text
               id="text3078"
               transform="matrix(1,0,0,-1,288.778,697.436)"><tspan
                 id="tspan3080"
                 sodipodi:role="line"
                 y="0"
                 x="0 7.9645543"
                 style="font-variant:normal;font-weight:normal;font-size:11.9552002px;font-family:CMR12;-inkscape-font-specification:CMR12;writing-mode:lr-tb;fill:#000000;fill-opacity:1;fill-rule:nonzero;stroke:none">P2</tspan></text>
<g
               transform="translate(288.778,697.436)"
               id="g3082" /></g></g><g
           transform="translate(-78.131,-46.939)"
           id="g3084" /></g></g><g
       id="g3086"
       transform="matrix(1.3403766,0,0,1.3962118,162.64478,677.44004)"><path
         inkscape:connector-curvature="0"
         id="path3088"
         style="fill:#ff8000;fill-opacity:1;fill-rule:nonzero;stroke:#000000;stroke-width:0.3985;stroke-linecap:butt;stroke-linejoin:miter;stroke-miterlimit:10;stroke-dasharray:none;stroke-opacity:1"
         d="m 8.50412,-8.50412 0,17.00824 8.50412,0 0,-17.00824 -8.50412,0 z" /></g><g
       id="g3090"
       transform="matrix(1.3403766,0,0,1.3962118,162.64478,677.44004)"><path
         inkscape:connector-curvature="0"
         id="path3092"
         style="fill:#ff8000;fill-opacity:1;fill-rule:nonzero;stroke:#000000;stroke-width:0.3985;stroke-linecap:butt;stroke-linejoin:miter;stroke-miterlimit:10;stroke-dasharray:none;stroke-opacity:1"
         d="m 161.5767,-8.50412 0,17.00824 -8.50411,0 0,-17.00824 8.50411,0 z" /></g><g
       id="g3094"
       transform="matrix(1.3403766,0,0,1.3962118,162.64478,677.44004)"><path
         inkscape:connector-curvature="0"
         id="path3096"
         style="fill:#ff8000;fill-opacity:1;fill-rule:nonzero;stroke:#000000;stroke-width:0.3985;stroke-linecap:butt;stroke-linejoin:miter;stroke-miterlimit:10;stroke-dasharray:none;stroke-opacity:1"
         d="m 76.53629,42.5202 0,-8.50412 17.00825,0 0,8.50412 -17.00825,0 z" /></g><g
       id="g3098"
       transform="matrix(1.3403766,0,0,1.3962118,162.64478,677.44004)"><path
         inkscape:connector-curvature="0"
         id="path3100"
         style="fill:none;stroke:#000000;stroke-width:0.3985;stroke-linecap:butt;stroke-linejoin:miter;stroke-miterlimit:10;stroke-dasharray:none;stroke-opacity:1"
         d="m 118.17418,0 c 0,6.28967 -14.83426,11.38832 -33.13376,11.38832 -18.2995,0 -33.13376,-5.09865 -33.13376,-11.38832 0,-6.28967 14.83426,-11.38832 33.13376,-11.38832 18.2995,0 33.13376,5.09865 33.13376,11.38832 z" /><g
         transform="translate(65.513,-4.151)"
         id="g3102"><g
           id="g3104"><g
             transform="translate(-276.16,-646.346)"
             id="g3106"><text
               id="text3108"
               transform="matrix(1,0,0,-1,276.16,646.346)"><tspan
                 id="tspan3110"
                 sodipodi:role="line"
                 y="0"
                 x="0 6.5036287 9.2569113 18.513823 26.318178 30.296867 33.050152"
                 style="font-variant:normal;font-weight:normal;font-size:11.9552002px;font-family:CMSS12;-inkscape-font-specification:CMSS12;writing-mode:lr-tb;fill:#000000;fill-opacity:1;fill-rule:nonzero;stroke:none">SimGrid</tspan></text>
<g
               transform="translate(276.16,646.346)"
               id="g3112" /></g></g><g
           transform="translate(-65.513,4.151)"
           id="g3114" /></g></g><path
       d="m 163.85849,665.124 c 74.77709,-27.2621 150.76789,-27.2621 225.54496,0"
       style="fill:none;stroke:#0000ff;stroke-width:1.63549626;stroke-linecap:butt;stroke-linejoin:miter;stroke-miterlimit:10;stroke-dasharray:4.08874743, 4.08874743;stroke-dashoffset:0;stroke-opacity:1"
       id="path3118"
       inkscape:connector-curvature="0" /><g
       id="g3120"
       transform="matrix(-1.2690418,0.46267667,-0.444174,-1.3219054,163.85849,665.124)"><g
         id="g3122"><path
           d="M -1.91284,2.55046 C -1.75343,1.59402 0,0.15938 0.4782,0 0,-0.15938 -1.75343,-1.59402 -1.91284,-2.55046"
           style="fill:none;stroke:#0000ff;stroke-width:0.95639998;stroke-linecap:round;stroke-linejoin:round;stroke-miterlimit:10;stroke-dasharray:none;stroke-opacity:1"
           id="path3124"
           inkscape:connector-curvature="0" /></g></g><g
       id="g3126"
       transform="matrix(1.2690418,0.46267667,-0.444174,1.3219054,389.40345,665.124)"><g
         id="g3128"><path
           d="M -1.91284,2.55046 C -1.75343,1.59402 0,0.15938 0.4782,0 0,-0.15938 -1.75343,-1.59402 -1.91284,-2.55046"
           style="fill:none;stroke:#0000ff;stroke-width:0.95639998;stroke-linecap:round;stroke-linejoin:round;stroke-miterlimit:10;stroke-dasharray:none;stroke-opacity:1"
           id="path3130"
           inkscape:connector-curvature="0" /></g></g><g
       id="g3132"
       transform="matrix(1.3403766,0,0,1.3962118,162.64478,677.44004)"><g
         id="g3134"
         transform="translate(21.26,-34.693)"><g
           id="g3136"
           transform="translate(18.63,0)"><g
             id="g3138"
             transform="translate(-250.537,-615.804)"><text
               transform="matrix(1,0,0,-1,250.537,615.804)"
               id="text3140"><tspan
                 style="font-variant:normal;font-weight:normal;font-size:9.96259975px;font-family:CMR10;-inkscape-font-specification:CMR10;writing-mode:lr-tb;fill:#0000ff;fill-opacity:1;fill-rule:nonzero;stroke:none"
                 x="0 7.1949897 12.17629 20.478125 28.501005 34.036228 39.571445 42.339058 46.766438 51.747738 55.622192 58.389801 63.371101 68.906326 76.740913 81.999168 87.534393"
                 y="0"
                 sodipodi:role="line"
                 id="tspan3142">Communicationsqui</tspan><tspan
                 style="font-variant:normal;font-weight:normal;font-size:9.96259975px;font-family:CMR10;-inkscape-font-specification:CMR10;writing-mode:lr-tb;fill:#0000ff;fill-opacity:1;fill-rule:nonzero;stroke:none"
                 x="-0.097000003 3.8322494 12.164968 16.094217 20.521597 24.423948 29.405247 32.172859 36.600239 41.856506 49.636299 55.17152 59.073872 64.324158 69.859383 75.3946 78.162209 82.036667 86.464043"
                 y="14.446"
                 sodipodi:role="line"
                 id="tspan3144">seseraientproduites</tspan><tspan
                 style="font-variant:normal;font-weight:normal;font-size:9.96259975px;font-family:CMR10;-inkscape-font-specification:CMR10;writing-mode:lr-tb;fill:#0000ff;fill-opacity:1;fill-rule:nonzero;stroke:none"
                 x="8.1219997 12.05125 17.032549 22.56777 30.402359 33.169968 38.426235 42.300694 46.728073 50.630421 55.0578 59.48518 65.020401 68.894859 71.662468 76.643768"
                 y="28.891001"
                 sodipodi:role="line"
                 id="tspan3146">sansinterception</tspan></text>
<g
               id="g3148"
               transform="translate(231.907,615.804)" /></g></g><g
           id="g3150"
           transform="translate(-21.26,34.693)" /></g></g><g
       id="g3152"
       transform="matrix(1.3403766,0,0,1.3962118,162.64478,677.44004)"><g
         id="g3154"><path
           inkscape:connector-curvature="0"
           id="path3156"
           style="fill:none;stroke:#0000ff;stroke-width:1.19553006;stroke-linecap:butt;stroke-linejoin:miter;stroke-miterlimit:10;stroke-dasharray:2.98883, 2.98883;stroke-dashoffset:0;stroke-opacity:1"
           d="M 0.49385,9.32784 C 17.57193,37.81259 42.36844,51.58777 75.57991,51.04005" /><g
           transform="matrix(-0.51636,-0.86127,0.86127,-0.51636,0.49385,9.32784)"
           id="g3158"><g
             id="g3160"><path
               inkscape:connector-curvature="0"
               id="path3162"
               style="fill:none;stroke:#0000ff;stroke-width:0.95639998;stroke-linecap:round;stroke-linejoin:round;stroke-miterlimit:10;stroke-dasharray:none;stroke-opacity:1"
               d="M -1.91284,2.55046 C -1.75343,1.59402 0,0.15938 0.4782,0 0,-0.15938 -1.75343,-1.59402 -1.91284,-2.55046" /></g></g><g
           transform="matrix(0.99995,-0.01646,0.01646,0.99995,75.57991,51.04005)"
           id="g3164"><g
             id="g3166"><path
               inkscape:connector-curvature="0"
               id="path3168"
               style="fill:none;stroke:#0000ff;stroke-width:0.95639998;stroke-linecap:round;stroke-linejoin:round;stroke-miterlimit:10;stroke-dasharray:none;stroke-opacity:1"
               d="M -1.91284,2.55046 C -1.75343,1.59402 0,0.15938 0.4782,0 0,-0.15938 -1.75343,-1.59402 -1.91284,-2.55046" /></g></g></g></g><g
       id="g3170"
       transform="matrix(1.3403766,0,0,1.3962118,162.64478,677.44004)"><g
         id="g3172"><path
           inkscape:connector-curvature="0"
           id="path3174"
           style="fill:none;stroke:#0000ff;stroke-width:1.19553006;stroke-linecap:butt;stroke-linejoin:miter;stroke-miterlimit:10;stroke-dasharray:2.98883, 2.98883;stroke-dashoffset:0;stroke-opacity:1"
           d="M 94.50092,51.04005 C 127.71239,51.58777 152.50891,37.81259 169.587,9.32784" /><g
           transform="matrix(-0.99995,-0.01646,0.01646,-0.99995,94.50092,51.04005)"
           id="g3176"><g
             id="g3178"><path
               inkscape:connector-curvature="0"
               id="path3180"
               style="fill:none;stroke:#0000ff;stroke-width:0.95639998;stroke-linecap:round;stroke-linejoin:round;stroke-miterlimit:10;stroke-dasharray:none;stroke-opacity:1"
               d="M -1.91284,2.55046 C -1.75343,1.59402 0,0.15938 0.4782,0 0,-0.15938 -1.75343,-1.59402 -1.91284,-2.55046" /></g></g><g
           transform="matrix(0.51636,-0.86127,0.86127,0.51636,169.587,9.32784)"
           id="g3182"><g
             id="g3184"><path
               inkscape:connector-curvature="0"
               id="path3186"
               style="fill:none;stroke:#0000ff;stroke-width:0.95639998;stroke-linecap:round;stroke-linejoin:round;stroke-miterlimit:10;stroke-dasharray:none;stroke-opacity:1"
               d="M -1.91284,2.55046 C -1.75343,1.59402 0,0.15938 0.4782,0 0,-0.15938 -1.75343,-1.59402 -1.91284,-2.55046" /></g></g></g></g><g
       id="g3188"
       transform="matrix(1.3403766,0,0,1.3962118,162.64478,677.44004)"><g
         id="g3190"><path
           inkscape:connector-curvature="0"
           id="path3192"
           style="fill:none;stroke:#ff0000;stroke-width:1.19553006;stroke-linecap:butt;stroke-linejoin:miter;stroke-miterlimit:10;stroke-dasharray:none;stroke-opacity:1"
           d="m 85.04042,33.05966 0,-20.51567" /><g
           transform="matrix(0,1,-1,0,85.04042,33.05966)"
           id="g3194"><g
             id="g3196"><path
               inkscape:connector-curvature="0"
               id="path3198"
               style="fill:none;stroke:#ff0000;stroke-width:0.95639998;stroke-linecap:round;stroke-linejoin:round;stroke-miterlimit:10;stroke-dasharray:none;stroke-opacity:1"
               d="M -1.91284,2.55046 C -1.75343,1.59402 0,0.15938 0.4782,0 0,-0.15938 -1.75343,-1.59402 -1.91284,-2.55046" /></g></g><g
           transform="matrix(0,-1,1,0,85.04042,12.54399)"
           id="g3200"><g
             id="g3202"><path
               inkscape:connector-curvature="0"
               id="path3204"
               style="fill:none;stroke:#ff0000;stroke-width:0.95639998;stroke-linecap:round;stroke-linejoin:round;stroke-miterlimit:10;stroke-dasharray:none;stroke-opacity:1"
               d="M -1.91284,2.55046 C -1.75343,1.59402 0,0.15938 0.4782,0 0,-0.15938 -1.75343,-1.59402 -1.91284,-2.55046" /></g></g></g></g><g
       id="g3206"
       transform="matrix(1.3403766,0,0,1.3962118,162.64478,677.44004)"><g
         id="g3208"><path
           inkscape:connector-curvature="0"
           id="path3210"
           style="fill:none;stroke:#ff0000;stroke-width:1.19553006;stroke-linecap:butt;stroke-linejoin:miter;stroke-miterlimit:10;stroke-dasharray:none;stroke-opacity:1"
           d="M 152.11617,0 119.32985,0" /><g
           transform="translate(152.11617,0)"
           id="g3212"><g
             id="g3214"><path
               inkscape:connector-curvature="0"
               id="path3216"
               style="fill:none;stroke:#ff0000;stroke-width:0.95639998;stroke-linecap:round;stroke-linejoin:round;stroke-miterlimit:10;stroke-dasharray:none;stroke-opacity:1"
               d="M -1.91284,2.55046 C -1.75343,1.59402 0,0.15938 0.4782,0 0,-0.15938 -1.75343,-1.59402 -1.91284,-2.55046" /></g></g><g
           transform="matrix(-1,0,0,-1,119.32985,0)"
           id="g3218"><g
             id="g3220"><path
               inkscape:connector-curvature="0"
               id="path3222"
               style="fill:none;stroke:#ff0000;stroke-width:0.95639998;stroke-linecap:round;stroke-linejoin:round;stroke-miterlimit:10;stroke-dasharray:none;stroke-opacity:1"
               d="M -1.91284,2.55046 C -1.75343,1.59402 0,0.15938 0.4782,0 0,-0.15938 -1.75343,-1.59402 -1.91284,-2.55046" /></g></g></g></g><g
       id="g3224"
       transform="matrix(1.3403766,0,0,1.3962118,162.64478,677.44004)"><g
         id="g3226"><path
           inkscape:connector-curvature="0"
           id="path3228"
           style="fill:none;stroke:#ff0000;stroke-width:1.19553006;stroke-linecap:butt;stroke-linejoin:miter;stroke-miterlimit:10;stroke-dasharray:none;stroke-opacity:1"
           d="M 17.96466,0 50.75099,0" /><g
           transform="matrix(-1,0,0,-1,17.96466,0)"
           id="g3230"><g
             id="g3232"><path
               inkscape:connector-curvature="0"
               id="path3234"
               style="fill:none;stroke:#ff0000;stroke-width:0.95639998;stroke-linecap:round;stroke-linejoin:round;stroke-miterlimit:10;stroke-dasharray:none;stroke-opacity:1"
               d="M -1.91284,2.55046 C -1.75343,1.59402 0,0.15938 0.4782,0 0,-0.15938 -1.75343,-1.59402 -1.91284,-2.55046" /></g></g><g
           transform="translate(50.75099,0)"
           id="g3236"><g
             id="g3238"><path
               inkscape:connector-curvature="0"
               id="path3240"
               style="fill:none;stroke:#ff0000;stroke-width:0.95639998;stroke-linecap:round;stroke-linejoin:round;stroke-miterlimit:10;stroke-dasharray:none;stroke-opacity:1"
               d="M -1.91284,2.55046 C -1.75343,1.59402 0,0.15938 0.4782,0 0,-0.15938 -1.75343,-1.59402 -1.91284,-2.55046" /></g></g></g></g><g
       id="g3242"
       transform="matrix(1.3403766,0,0,1.3962118,162.64478,677.44004)"><g
         id="g3244" /><g
         transform="translate(-40.133,54.258)"
         id="g3246"><g
           id="g3248"><g
             transform="translate(-170.514,-704.755)"
             id="g3250"><text
               id="text3252"
               transform="matrix(1,0,0,-1,170.514,704.755)"><tspan
                 id="tspan3254"
                 sodipodi:role="line"
                 y="0"
                 x="0 3.5974948 8.8537626 12.728218 17.155598 21.057947 25.485327 29.912706 35.447926 39.322384 43.749763 49.284981"
                 style="font-variant:normal;font-weight:normal;font-size:9.96259975px;font-family:CMR10;-inkscape-font-specification:CMR10;writing-mode:lr-tb;fill:#ff8000;fill-opacity:1;fill-rule:nonzero;stroke:none">Intercepteur</tspan></text>
<text
               id="text3256"
               transform="matrix(1,0,0,-1,227.025,704.755)"><tspan
                 id="tspan3258"
                 sodipodi:role="line"
                 y="0"
                 x="0 5.0918851 8.4014606 12.094597 17.186481 21.261185"
                 style="font-variant:normal;font-weight:normal;font-size:9.96259975px;font-family:CMTI10;-inkscape-font-specification:CMTI10;writing-mode:lr-tb;fill:#ff8000;fill-opacity:1;fill-rule:nonzero;stroke:none">ptrace</tspan></text>
<g
               transform="translate(170.514,704.755)"
               id="g3260" /></g></g><g
           transform="translate(40.133,-54.258)"
           id="g3262" /></g></g><g
       id="g3264"
       transform="matrix(1.3403766,0,0,1.3962118,162.64478,677.44004)"><path
         inkscape:connector-curvature="0"
         id="path3266"
         style="fill:none;stroke:#ff8000;stroke-width:0.3985;stroke-linecap:butt;stroke-linejoin:miter;stroke-miterlimit:10;stroke-dasharray:none;stroke-opacity:1"
         d="M 12.75595,0 1.4174,48.22021" /></g><g
       id="g3268"
       transform="matrix(1.3403766,0,0,1.3962118,162.64478,677.44004)"><path
         inkscape:connector-curvature="0"
         id="path3270"
         style="fill:none;stroke:#ff8000;stroke-width:0.3985;stroke-linecap:butt;stroke-linejoin:miter;stroke-miterlimit:10;stroke-dasharray:none;stroke-opacity:1"
         d="M 85.04042,36.85092 47.06917,56.69362" /></g><g
       id="g3272"
       transform="matrix(1.3403766,0,0,1.3962118,159.44478,677.44004)"><g
         id="g3274" /><g
         transform="translate(99.213,67.094)"
         id="g3276"><g
           transform="translate(14.928,0)"
           id="g3278"><g
             transform="translate(-324.788,-717.591)"
             id="g3280"><text
               id="text3282"
               transform="matrix(1,0,0,-1,324.788,717.591)"><tspan
                 id="tspan3284"
                 sodipodi:role="line"
                 y="0"
                 x="0 7.1949897 12.17629 20.478125 28.501005 34.036228 39.571445 42.339058 46.766438 51.747738 55.622192 58.389801 63.371101 68.906326 76.740913 79.508522 84.764786 88.639244 93.066628 96.968971 101.39635 105.82373 111.35896 114.95446 115.23341 119.66079 124.08817 131.92276 136.35014"
                 style="font-variant:normal;font-weight:normal;font-size:9.96259975px;font-family:CMR10;-inkscape-font-specification:CMR10;writing-mode:lr-tb;fill:#ff0000;fill-opacity:1;fill-rule:nonzero;stroke:none">Communicationsintercept´eeset</tspan><tspan
                 id="tspan3286"
                 sodipodi:role="line"
                 y="14.445"
                 x="-1.052 1.7156103 6.9718781 10.846334 15.273712 19.176064 23.078413 28.059713 33.041012 38.022312 41.89677 44.664379 49.645679 59.086239 64.62146 72.944214 75.711823 78.479439 83.460739 87.363083 92.344383 96.771767 99.539375"
                 style="font-variant:normal;font-weight:normal;font-size:9.96259975px;font-family:CMR10;-inkscape-font-specification:CMR10;writing-mode:lr-tb;fill:#ff0000;fill-opacity:1;fill-rule:nonzero;stroke:none">interrogationdel’oracle</tspan></text>
<text
               id="text3288"
               transform="matrix(1,0,0,-1,432.66,703.146)"><tspan
                 id="tspan3290"
                 sodipodi:role="line"
                 y="0"
                 x="0 5.5352206 7.9152856 15.829576 22.47164 25.87586 28.255926"
                 style="font-variant:normal;font-weight:normal;font-size:9.96259975px;font-family:CMSS10;-inkscape-font-specification:CMSS10;writing-mode:lr-tb;fill:#ff0000;fill-opacity:1;fill-rule:nonzero;stroke:none">SimGrid</tspan></text>
<g
               transform="translate(309.86,717.591)"
               id="g3292" /></g></g><g
           transform="translate(-99.213,-67.094)"
           id="g3294" /></g></g><g
       id="g3296"
       transform="matrix(1.3403766,0,0,1.3962118,162.64478,677.44004)"><path
         inkscape:connector-curvature="0"
         id="path3298"
         style="fill:none;stroke:#ff0000;stroke-width:0.3985;stroke-linecap:butt;stroke-linejoin:miter;stroke-miterlimit:10;stroke-dasharray:none;stroke-opacity:1"
         d="m 85.04042,21.2601 99.21382,25.35101" /></g><g
       id="g3300"
       transform="matrix(1.3403766,0,0,1.3962118,162.64478,677.44004)"><path
         inkscape:connector-curvature="0"
         id="path3302"
         style="fill:none;stroke:#ff0000;stroke-width:0.3985;stroke-linecap:butt;stroke-linejoin:miter;stroke-miterlimit:10;stroke-dasharray:none;stroke-opacity:1"
         d="m 133.2299,0 51.02434,46.61111" /></g></g></svg>