<?xml version="1.0" encoding="UTF-8" standalone="no"?>
<!-- Created with Inkscape (http://www.inkscape.org/) -->

<svg
   xmlns:dc="http://purl.org/dc/elements/1.1/"
   xmlns:cc="http://creativecommons.org/ns#"
   xmlns:rdf="http://www.w3.org/1999/02/22-rdf-syntax-ns#"
   xmlns:svg="http://www.w3.org/2000/svg"
   xmlns="http://www.w3.org/2000/svg"
   xmlns:sodipodi="http://sodipodi.sourceforge.net/DTD/sodipodi-0.dtd"
   xmlns:inkscape="http://www.inkscape.org/namespaces/inkscape"
   id="svg2"
   version="1.1"
   inkscape:version="0.91 r13725"
   xml:space="preserve"
   width="453.54376"
   height="340.1575"
   viewBox="0 0 453.54376 340.1575"
   sodipodi:docname="Communication_application_noyau_v2.svg"><metadata
     id="metadata8"><rdf:RDF><cc:Work
         rdf:about=""><dc:format>image/svg+xml</dc:format><dc:type
           rdf:resource="http://purl.org/dc/dcmitype/StillImage" /><dc:title></dc:title></cc:Work></rdf:RDF></metadata><defs
     id="defs6" /><sodipodi:namedview
     pagecolor="#ffffff"
     bordercolor="#666666"
     borderopacity="1"
     objecttolerance="10"
     gridtolerance="10"
     guidetolerance="10"
     inkscape:pageopacity="0"
     inkscape:pageshadow="2"
     inkscape:window-width="1600"
     inkscape:window-height="844"
     id="namedview4"
     showgrid="false"
     inkscape:zoom="1.9623521"
     inkscape:cx="216.28088"
     inkscape:cy="181.88087"
     inkscape:window-x="0"
     inkscape:window-y="0"
     inkscape:window-maximized="1"
     inkscape:current-layer="g10" /><g
     id="g10"
     inkscape:groupmode="layer"
     inkscape:label="2011-simterpose-slides"
     transform="matrix(1.25,0,0,-1.25,0,340.1575)"><g
       id="g32"
       transform="matrix(0.7751,0,0,0.7751,63.721269,154.6532)"><g
         id="g34" /><g
         id="g36"><g
           id="g38"><g
             id="g40"
             transform="translate(83.965,2.368)"><g
               id="g42"><g
                 id="g44"
                 transform="translate(-176.331,-102.147)"><text
                   transform="matrix(1,0,0,-1,176.331,102.147)"
                   style="font-variant:normal;font-weight:normal;font-size:11.9552002px;font-family:CMSS12;-inkscape-font-specification:CMSS12;writing-mode:lr-tb;fill:#000000;fill-opacity:1;fill-rule:nonzero;stroke:none"
                   id="text46"><tspan
                     x="0 6.3231053 9.0763874 15.081485 21.086582 30.338711 35.695835 40.898739 44.87743 50.882526 56.08543"
                     y="0"
                     sodipodi:role="line"
                     id="tspan48">Linuxkernel</tspan></text>
<g
                   id="g50"
                   transform="translate(176.331,102.147)" /></g></g><g
               id="g52"
               transform="translate(-83.965,-2.368)" /></g></g><g
           id="g54"><g
             id="g56"
             transform="translate(72.746,18.254)"><g
               id="g58"><g
                 id="g60"
                 transform="translate(-165.112,-118.033)"><text
                   transform="matrix(1,0,0,-1,165.112,118.033)"
                   style="font-variant:normal;font-weight:normal;font-size:9.96259975px;font-family:CMSS10;-inkscape-font-specification:CMSS10;writing-mode:lr-tb;fill:#000000;fill-opacity:1;fill-rule:nonzero;stroke:none"
                   id="text62"><tspan
                     x="0 2.7676103 7.9152856 11.51278 15.94016 19.344381 22.38895 27.176977 31.604357 39.349281 42.946777 51.255585 55.074249 59.668003 63.486668 67.914047 72.702072 75.082138 77.462204"
                     y="0"
                     sodipodi:role="line"
                     id="tspan64">Interfacetosyscalls</tspan></text>
<g
                   id="g66"
                   transform="translate(165.112,118.033)" /></g></g><g
               id="g68"
               transform="translate(-72.746,-18.254)" /></g></g><path
           d="m 14.17339,14.17339 0,14.17341 198.42767,0 0,-14.17341 -198.42767,0 z"
           style="fill:none;stroke:#000000;stroke-width:0.3985;stroke-linecap:butt;stroke-linejoin:miter;stroke-miterlimit:10;stroke-dasharray:none;stroke-opacity:1"
           id="path70"
           inkscape:connector-curvature="0" /><g
           id="g72"><path
             d="m 0,0 0,28.3468 226.77448,0 0,-28.3468 L 0,0 Z"
             style="fill:none;stroke:#000000;stroke-width:0.79701;stroke-linecap:butt;stroke-linejoin:miter;stroke-miterlimit:10;stroke-dasharray:none;stroke-opacity:1"
             id="path74"
             inkscape:connector-curvature="0" /></g><g
           id="g76"><path
             d="m 56.69362,42.5202 0,14.17342 170.08086,0 0,-14.17342 -170.08086,0 z"
             style="fill:none;stroke:#000000;stroke-width:0.79701;stroke-linecap:butt;stroke-linejoin:miter;stroke-miterlimit:10;stroke-dasharray:none;stroke-opacity:1"
             id="path78"
             inkscape:connector-curvature="0" /></g><g
           id="g80"><g
             id="g82"
             transform="translate(111.277,47.115)"><g
               id="g84"><g
                 id="g86"
                 transform="translate(-203.643,-146.894)"><text
                   transform="matrix(1,0,0,-1,203.643,146.894)"
                   style="font-variant:normal;font-weight:normal;font-size:9.96259975px;font-family:CMSS10;-inkscape-font-specification:CMSS10;writing-mode:lr-tb;fill:#000000;fill-opacity:1;fill-rule:nonzero;stroke:none"
                   id="text88"><tspan
                     x="0 9.6826506 12.062716 14.442781 19.311504 22.715725 27.23476 30.638981 38.550282"
                     y="0"
                     sodipodi:role="line"
                     id="tspan90">Clibrary(</tspan></text>
<text
                   transform="matrix(1,0,0,-1,246.067,146.894)"
                   style="font-variant:normal;font-weight:normal;font-size:9.96259975px;font-family:CMSSI10;-inkscape-font-specification:CMSSI10;writing-mode:lr-tb;fill:#000000;fill-opacity:1;fill-rule:nonzero;stroke:none"
                   id="text92"><tspan
                     x="0 2.3800652 4.7601304 10.186758"
                     y="0"
                     sodipodi:role="line"
                     id="tspan94">libc</tspan></text>
<text
                   transform="matrix(1,0,0,-1,260.679,146.894)"
                   style="font-variant:normal;font-weight:normal;font-size:9.96259975px;font-family:CMSS10;-inkscape-font-specification:CMSS10;writing-mode:lr-tb;fill:#000000;fill-opacity:1;fill-rule:nonzero;stroke:none"
                   id="text96"><tspan
                     x="0"
                     y="0"
                     id="tspan98">)</tspan></text>
<g
                   id="g100"
                   transform="translate(203.643,146.894)" /></g></g><g
               id="g102"
               transform="translate(-111.277,-47.115)" /></g></g><g
           id="g104"><path
             d="m 113.38724,70.867 0,14.17342 113.38724,0 0,-14.17342 -113.38724,0 z"
             style="fill:none;stroke:#000000;stroke-width:0.79701;stroke-linecap:butt;stroke-linejoin:miter;stroke-miterlimit:10;stroke-dasharray:none;stroke-opacity:1"
             id="path106"
             inkscape:connector-curvature="0" /></g><g
           id="g108"><g
             id="g110"
             transform="translate(137.036,74.493)"><g
               id="g112"><g
                 id="g114"
                 transform="translate(-229.402,-174.272)"><text
                   transform="matrix(1,0,0,-1,229.402,174.272)"
                   style="font-variant:normal;font-weight:normal;font-size:9.96259975px;font-family:CMSS10;-inkscape-font-specification:CMSS10;writing-mode:lr-tb;fill:#000000;fill-opacity:1;fill-rule:nonzero;stroke:none"
                   id="text116"><tspan
                     x="0 5.5352206 10.682896 15.191969 18.596189 23.023569 31.488791 36.885529 39.265594 44.144279 47.5485 52.057575 55.461796 57.841858 62.269238"
                     y="0"
                     sodipodi:role="line"
                     id="tspan118">SharedLibraries</tspan></text>
<g
                   id="g120"
                   transform="translate(229.402,174.272)" /></g></g><g
               id="g122"
               transform="translate(-137.036,-74.493)" /></g></g><g
           id="g124"><path
             d="m 0,99.21382 0,25.51196 226.77448,0 0,-25.51196 -226.77448,0 z"
             style="fill:none;stroke:#000000;stroke-width:0.79701;stroke-linecap:butt;stroke-linejoin:miter;stroke-miterlimit:10;stroke-dasharray:none;stroke-opacity:1"
             id="path126"
             inkscape:connector-curvature="0" /></g><g
           id="g128"><g
             id="g130"
             transform="translate(85.937,107.562)"><g
               id="g132"><g
                 id="g134"
                 transform="translate(-178.303,-207.341)"><text
                   transform="matrix(1,0,0,-1,178.303,207.341)"
                   style="font-variant:normal;font-weight:normal;font-size:11.9552002px;font-family:CMSS12;-inkscape-font-specification:CMSS12;writing-mode:lr-tb;fill:#000000;fill-opacity:1;fill-rule:nonzero;stroke:none"
                   id="text136"><tspan
                     x="0 7.7350144 13.740111 19.745209 22.498491 25.251774 30.454676 36.058079 40.285439 43.038719 48.891987"
                     y="0"
                     sodipodi:role="line"
                     id="tspan138">Application</tspan></text>
<g
                   id="g140"
                   transform="translate(178.303,207.341)" /></g></g><g
               id="g142"
               transform="translate(-85.937,-107.562)" /></g></g><g
           id="g144"><path
             d="m 28.3468,98.50645 0,-69.45228"
             style="fill:none;stroke:#000000;stroke-width:0.79701;stroke-linecap:butt;stroke-linejoin:miter;stroke-miterlimit:10;stroke-dasharray:none;stroke-opacity:1"
             id="path146"
             inkscape:connector-curvature="0" /><g
             id="g148"
             transform="matrix(0,1,-1,0,28.3468,98.50645)"><g
               id="g150"><path
                 d="M -1.55415,2.0722 C -1.42464,1.29512 0,0.1295 0.38852,0 0,-0.1295 -1.42464,-1.29512 -1.55415,-2.0722"
                 style="fill:none;stroke:#000000;stroke-width:0.6376;stroke-linecap:round;stroke-linejoin:round;stroke-miterlimit:10;stroke-dasharray:none;stroke-opacity:1"
                 id="path152"
                 inkscape:connector-curvature="0" /></g></g><g
             id="g154"
             transform="matrix(0,-1,1,0,28.3468,29.05417)"><g
               id="g156"><path
                 d="M -1.55415,2.0722 C -1.42464,1.29512 0,0.1295 0.38852,0 0,-0.1295 -1.42464,-1.29512 -1.55415,-2.0722"
                 style="fill:none;stroke:#000000;stroke-width:0.6376;stroke-linecap:round;stroke-linejoin:round;stroke-miterlimit:10;stroke-dasharray:none;stroke-opacity:1"
                 id="path158"
                 inkscape:connector-curvature="0" /></g></g></g><g
           id="g160"><g
             id="g162"
             transform="translate(-11.211,32.319)"><g
               id="g164"><g
                 id="g166"
                 transform="translate(-81.155,-132.098)"><text
                   transform="matrix(1,0,0,-1,81.155,132.098)"
                   style="font-variant:normal;font-weight:normal;font-size:8.96640015px;font-family:CMSS9;-inkscape-font-specification:CMSS9;writing-mode:lr-tb;fill:#000000;fill-opacity:1;fill-rule:nonzero;stroke:none"
                   id="text168"><tspan
                     x="0 2.2003546 6.9606161 13.363523 17.962389 22.570223 26.818502 31.426336"
                     y="0"
                     sodipodi:role="line"
                     id="tspan170">int$0x80</tspan></text>
<g
                   id="g172"
                   transform="translate(81.155,132.098)" /></g></g><g
               id="g174"
               transform="translate(11.211,-32.319)" /></g></g><g
           id="g176"><path
             d="m 85.04042,98.50645 0,-41.10548"
             style="fill:none;stroke:#000000;stroke-width:0.79701;stroke-linecap:butt;stroke-linejoin:miter;stroke-miterlimit:10;stroke-dasharray:none;stroke-opacity:1"
             id="path178"
             inkscape:connector-curvature="0" /><g
             id="g180"
             transform="matrix(0,1,-1,0,85.04042,98.50645)"><g
               id="g182"><path
                 d="M -1.55415,2.0722 C -1.42464,1.29512 0,0.1295 0.38852,0 0,-0.1295 -1.42464,-1.29512 -1.55415,-2.0722"
                 style="fill:none;stroke:#000000;stroke-width:0.6376;stroke-linecap:round;stroke-linejoin:round;stroke-miterlimit:10;stroke-dasharray:none;stroke-opacity:1"
                 id="path184"
                 inkscape:connector-curvature="0" /></g></g><g
             id="g186"
             transform="matrix(0,-1,1,0,85.04042,57.40097)"><g
               id="g188"><path
                 d="M -1.55415,2.0722 C -1.42464,1.29512 0,0.1295 0.38852,0 0,-0.1295 -1.42464,-1.29512 -1.55415,-2.0722"
                 style="fill:none;stroke:#000000;stroke-width:0.6376;stroke-linecap:round;stroke-linejoin:round;stroke-miterlimit:10;stroke-dasharray:none;stroke-opacity:1"
                 id="path190"
                 inkscape:connector-curvature="0" /></g></g></g><g
           id="g192"><g
             id="g194"
             transform="translate(53.597,61.537)"><g
               id="g196"><g
                 id="g198"
                 transform="translate(-145.963,-161.316)"><text
                   transform="matrix(1,0,0,-1,145.963,161.316)"
                   style="font-variant:normal;font-weight:normal;font-size:8.96640015px;font-family:CMSS9;-inkscape-font-specification:CMSS9;writing-mode:lr-tb;fill:#000000;fill-opacity:1;fill-rule:nonzero;stroke:none"
                   id="text200"><tspan
                     x="0 4.500236 7.6483393 9.8486938 14.608955 17.936386 20.751837 24.335707"
                     y="0"
                     sodipodi:role="line"
                     id="tspan202">printf()</tspan></text>
<g
                   id="g204"
                   transform="translate(145.963,161.316)" /></g></g><g
               id="g206"
               transform="translate(-53.597,-61.537)" /></g></g><g
           id="g208"><path
             d="m 85.04042,98.50645 0,-41.10548"
             style="fill:none;stroke:#000000;stroke-width:0.79701;stroke-linecap:butt;stroke-linejoin:miter;stroke-miterlimit:10;stroke-dasharray:none;stroke-opacity:1"
             id="path210"
             inkscape:connector-curvature="0" /><g
             id="g212"
             transform="matrix(0,1,-1,0,85.04042,98.50645)"><g
               id="g214"><path
                 d="M -1.55415,2.0722 C -1.42464,1.29512 0,0.1295 0.38852,0 0,-0.1295 -1.42464,-1.29512 -1.55415,-2.0722"
                 style="fill:none;stroke:#000000;stroke-width:0.6376;stroke-linecap:round;stroke-linejoin:round;stroke-miterlimit:10;stroke-dasharray:none;stroke-opacity:1"
                 id="path216"
                 inkscape:connector-curvature="0" /></g></g><g
             id="g218"
             transform="matrix(0,-1,1,0,85.04042,57.40097)"><g
               id="g220"><path
                 d="M -1.55415,2.0722 C -1.42464,1.29512 0,0.1295 0.38852,0 0,-0.1295 -1.42464,-1.29512 -1.55415,-2.0722"
                 style="fill:none;stroke:#000000;stroke-width:0.6376;stroke-linecap:round;stroke-linejoin:round;stroke-miterlimit:10;stroke-dasharray:none;stroke-opacity:1"
                 id="path222"
                 inkscape:connector-curvature="0" /></g></g></g><g
           id="g224"><path
             d="m 141.73404,41.81284 0,-12.75867"
             style="fill:none;stroke:#000000;stroke-width:0.79701;stroke-linecap:butt;stroke-linejoin:miter;stroke-miterlimit:10;stroke-dasharray:none;stroke-opacity:1"
             id="path226"
             inkscape:connector-curvature="0" /><g
             id="g228"
             transform="matrix(0,1,-1,0,141.73404,41.81284)"><g
               id="g230"><path
                 d="M -1.55415,2.0722 C -1.42464,1.29512 0,0.1295 0.38852,0 0,-0.1295 -1.42464,-1.29512 -1.55415,-2.0722"
                 style="fill:none;stroke:#000000;stroke-width:0.6376;stroke-linecap:round;stroke-linejoin:round;stroke-miterlimit:10;stroke-dasharray:none;stroke-opacity:1"
                 id="path232"
                 inkscape:connector-curvature="0" /></g></g><g
             id="g234"
             transform="matrix(0,-1,1,0,141.73404,29.05417)"><g
               id="g236"><path
                 d="M -1.55415,2.0722 C -1.42464,1.29512 0,0.1295 0.38852,0 0,-0.1295 -1.42464,-1.29512 -1.55415,-2.0722"
                 style="fill:none;stroke:#000000;stroke-width:0.6376;stroke-linecap:round;stroke-linejoin:round;stroke-miterlimit:10;stroke-dasharray:none;stroke-opacity:1"
                 id="path238"
                 inkscape:connector-curvature="0" /></g></g></g><g
           id="g240"><path
             d="m 170.08086,70.15965 0,-12.75868"
             style="fill:none;stroke:#000000;stroke-width:0.79701;stroke-linecap:butt;stroke-linejoin:miter;stroke-miterlimit:10;stroke-dasharray:none;stroke-opacity:1"
             id="path242"
             inkscape:connector-curvature="0" /><g
             id="g244"
             transform="matrix(0,1,-1,0,170.08086,70.15965)"><g
               id="g246"><path
                 d="M -1.55415,2.0722 C -1.42464,1.29512 0,0.1295 0.38852,0 0,-0.1295 -1.42464,-1.29512 -1.55415,-2.0722"
                 style="fill:none;stroke:#000000;stroke-width:0.6376;stroke-linecap:round;stroke-linejoin:round;stroke-miterlimit:10;stroke-dasharray:none;stroke-opacity:1"
                 id="path248"
                 inkscape:connector-curvature="0" /></g></g><g
             id="g250"
             transform="matrix(0,-1,1,0,170.08086,57.40097)"><g
               id="g252"><path
                 d="M -1.55415,2.0722 C -1.42464,1.29512 0,0.1295 0.38852,0 0,-0.1295 -1.42464,-1.29512 -1.55415,-2.0722"
                 style="fill:none;stroke:#000000;stroke-width:0.6376;stroke-linecap:round;stroke-linejoin:round;stroke-miterlimit:10;stroke-dasharray:none;stroke-opacity:1"
                 id="path254"
                 inkscape:connector-curvature="0" /></g></g></g><g
           id="g256"><path
             d="m 170.08086,98.50645 0,-12.75866"
             style="fill:none;stroke:#000000;stroke-width:0.79701;stroke-linecap:butt;stroke-linejoin:miter;stroke-miterlimit:10;stroke-dasharray:none;stroke-opacity:1"
             id="path258"
             inkscape:connector-curvature="0" /><g
             id="g260"
             transform="matrix(0,1,-1,0,170.08086,98.50645)"><g
               id="g262"><path
                 d="M -1.55415,2.0722 C -1.42464,1.29512 0,0.1295 0.38852,0 0,-0.1295 -1.42464,-1.29512 -1.55415,-2.0722"
                 style="fill:none;stroke:#000000;stroke-width:0.6376;stroke-linecap:round;stroke-linejoin:round;stroke-miterlimit:10;stroke-dasharray:none;stroke-opacity:1"
                 id="path264"
                 inkscape:connector-curvature="0" /></g></g><g
             id="g266"
             transform="matrix(0,-1,1,0,170.08086,85.74779)"><g
               id="g268"><path
                 d="M -1.55415,2.0722 C -1.42464,1.29512 0,0.1295 0.38852,0 0,-0.1295 -1.42464,-1.29512 -1.55415,-2.0722"
                 style="fill:none;stroke:#000000;stroke-width:0.6376;stroke-linecap:round;stroke-linejoin:round;stroke-miterlimit:10;stroke-dasharray:none;stroke-opacity:1"
                 id="path270"
                 inkscape:connector-curvature="0" /></g></g></g><g
           id="g272"><g
             id="g274"
             transform="translate(134.028,89.884)"><g
               id="g276"><g
                 id="g278"
                 transform="translate(-226.394,-189.663)"><text
                   transform="matrix(1,0,0,-1,226.394,189.663)"
                   style="font-variant:normal;font-weight:normal;font-size:8.96640015px;font-family:CMSS9;-inkscape-font-specification:CMSS9;writing-mode:lr-tb;fill:#000000;fill-opacity:1;fill-rule:nonzero;stroke:none"
                   id="text280"><tspan
                     x="0 4.6078329 9.1080694 12.256172 14.456527 19.216789 22.54422 25.359669 28.943539"
                     y="0"
                     sodipodi:role="line"
                     id="tspan282">gprintf()</tspan></text>
<g
                   id="g284"
                   transform="translate(226.394,189.663)" /></g></g><g
               id="g286"
               transform="translate(-134.028,-89.884)" /></g></g><g
           id="g288"><path
             d="m 25.51193,35.43349 215.43595,0"
             style="fill:none;stroke:#ff0000;stroke-width:0.3985;stroke-linecap:butt;stroke-linejoin:miter;stroke-miterlimit:10;stroke-dasharray:2.98883, 2.98883;stroke-dashoffset:0;stroke-opacity:1"
             id="path290"
             inkscape:connector-curvature="0" /><g
             id="g292"><g
               id="g294"
               transform="translate(244.465,39.365)"><g
                 id="g296"><g
                   id="g298"
                   transform="translate(-336.831,-139.144)"><text
                     transform="matrix(1,0,0,-1,336.831,133.022)"
                     style="font-variant:normal;font-weight:normal;font-size:8.96640015px;font-family:CMSSBX10;-inkscape-font-specification:CMSSBX10;writing-mode:lr-tb;fill:#ff0000;fill-opacity:1;fill-rule:nonzero;stroke:none"
                     id="text300"><tspan
                       x="0 5.0310469 8.6552658 11.99256 16.699921 21.083593"
                       y="0"
                       sodipodi:role="line"
                       id="tspan302">ptrace</tspan></text>
<text
                     transform="matrix(1,0,0,-1,365.817,133.022)"
                     style="font-variant:normal;font-weight:normal;font-size:8.96640015px;font-family:CMSS9;-inkscape-font-specification:CMSS9;writing-mode:lr-tb;fill:#ff0000;fill-opacity:1;fill-rule:nonzero;stroke:none"
                     id="text304"><tspan
                       x="0 2.2003546 6.9606161 10.288048 14.383899 17.532001 21.627853 25.723705 30.483967 33.811398 36.011753 40.619587"
                       y="0"
                       sodipodi:role="line"
                       id="tspan306">interception</tspan></text>
<g
                     id="g308"
                     transform="translate(336.831,139.144)" /></g></g><g
                 id="g310"
                 transform="translate(-244.465,-39.365)" /></g></g></g><g
           id="g312"><path
             d="m 82.20555,63.7803 144.56893,0"
             style="fill:none;stroke:#ff0000;stroke-width:0.3985;stroke-linecap:butt;stroke-linejoin:miter;stroke-miterlimit:10;stroke-dasharray:2.98883, 2.98883;stroke-dashoffset:0;stroke-opacity:1"
             id="path314"
             inkscape:connector-curvature="0" /></g><g
           id="g316"><path
             d="m 167.24599,92.1271 59.52849,0"
             style="fill:none;stroke:#ff0000;stroke-width:0.3985;stroke-linecap:butt;stroke-linejoin:miter;stroke-miterlimit:10;stroke-dasharray:2.98883, 2.98883;stroke-dashoffset:0;stroke-opacity:1"
             id="path318"
             inkscape:connector-curvature="0" /></g><g
           id="g320"><path
             d="m 227.09851,64.10435 13.84937,13.84937"
             style="fill:none;stroke:#ff0000;stroke-width:0.3985;stroke-linecap:butt;stroke-linejoin:miter;stroke-miterlimit:10;stroke-dasharray:none;stroke-opacity:1"
             id="path322"
             inkscape:connector-curvature="0" /><g
             id="g324"
             transform="matrix(-0.70712,-0.7071,0.7071,-0.70712,227.09851,64.10435)"><g
               id="g326"><path
                 d="M -1.19551,1.59401 C -1.09587,0.99626 0,0.09961 0.29886,0 0,-0.09961 -1.09587,-0.99626 -1.19551,-1.59401"
                 style="fill:none;stroke:#ff0000;stroke-width:0.31878999;stroke-linecap:round;stroke-linejoin:round;stroke-miterlimit:10;stroke-dasharray:none;stroke-opacity:1"
                 id="path328"
                 inkscape:connector-curvature="0" /></g></g></g><g
           id="g330"><path
             d="M 227.09851,91.80307 240.94788,77.95372"
             style="fill:none;stroke:#ff0000;stroke-width:0.3985;stroke-linecap:butt;stroke-linejoin:miter;stroke-miterlimit:10;stroke-dasharray:none;stroke-opacity:1"
             id="path332"
             inkscape:connector-curvature="0" /><g
             id="g334"
             transform="matrix(-0.70712,0.7071,-0.7071,-0.70712,227.09851,91.80307)"><g
               id="g336"><path
                 d="M -1.19551,1.59401 C -1.09587,0.99626 0,0.09961 0.29886,0 0,-0.09961 -1.09587,-0.99626 -1.19551,-1.59401"
                 style="fill:none;stroke:#ff0000;stroke-width:0.31878999;stroke-linecap:round;stroke-linejoin:round;stroke-miterlimit:10;stroke-dasharray:none;stroke-opacity:1"
                 id="path338"
                 inkscape:connector-curvature="0" /></g></g><g
             id="g340"><g
               id="g342"
               transform="translate(244.465,81.937)"><g
                 id="g344"><g
                   id="g346"
                   transform="translate(-336.831,-181.716)"><text
                     transform="matrix(1,0,0,-1,336.831,175.49)"
                     style="font-variant:normal;font-weight:normal;font-size:8.96640015px;font-family:CMSSBX10;-inkscape-font-specification:CMSSBX10;writing-mode:lr-tb;fill:#ff0000;fill-opacity:1;fill-rule:nonzero;stroke:none"
                     id="text348"><tspan
                       x="0 5.2058916"
                       y="0"
                       sodipodi:role="line"
                       id="tspan350">LD</tspan></text>
<g
                     id="g352"
                     transform="translate(349.751,175.689)"><path
                       d="M 0,0 2.959,0"
                       style="fill:none;stroke:#ff0000;stroke-width:0.398;stroke-linecap:butt;stroke-linejoin:miter;stroke-miterlimit:10;stroke-dasharray:none;stroke-opacity:1"
                       id="path354"
                       inkscape:connector-curvature="0" /></g><text
                     transform="matrix(1,0,0,-1,352.71,175.49)"
                     style="font-variant:normal;font-weight:normal;font-size:8.96640015px;font-family:CMSSBX10;-inkscape-font-specification:CMSSBX10;writing-mode:lr-tb;fill:#ff0000;fill-opacity:1;fill-rule:nonzero;stroke:none"
                     id="text356"><tspan
                       x="0 6.3015862 12.603172 18.356911 23.562803 30.407753 36.982815"
                       y="0"
                       sodipodi:role="line"
                       id="tspan358">PRELOAD</tspan></text>
<text
                     transform="matrix(1,0,0,-1,400.14,175.49)"
                     style="font-variant:normal;font-weight:normal;font-size:8.96640015px;font-family:CMSS9;-inkscape-font-specification:CMSS9;writing-mode:lr-tb;fill:#ff0000;fill-opacity:1;fill-rule:nonzero;stroke:none"
                     id="text360"><tspan
                       x="0 2.2003546 6.9606161 10.288048 14.383899 17.532001 21.627853 25.723705 30.483967 33.811398 36.011753 40.619587"
                       y="0"
                       sodipodi:role="line"
                       id="tspan362">interception</tspan></text>
<g
                     id="g364"
                     transform="translate(336.831,181.716)" /></g></g><g
                 id="g366"
                 transform="translate(-244.465,-81.937)" /></g></g></g><g
           id="g368"><path
             d="m -2.83484,42.5202 c -0.74721,0.37358 -1.24534,1.24535 -1.24534,2.4907 l 0,37.53881 c 0,1.24535 -0.49813,2.11711 -1.24535,2.49069 0.74722,0.3736 1.24535,1.24535 1.24535,2.4907 l 0,37.53883 c 0,1.24535 0.49813,2.11711 1.24534,2.49069"
             style="fill:none;stroke:#ff0000;stroke-width:0.3985;stroke-linecap:butt;stroke-linejoin:miter;stroke-miterlimit:10;stroke-dasharray:none;stroke-opacity:1"
             id="path370"
             inkscape:connector-curvature="0" /></g><g
           id="g372"><g
             id="g374"><g
               id="g376"
               transform="translate(-77.221,95.002)"><g
                 id="g378"><g
                   id="g380"
                   transform="translate(-15.145,-194.781)"><text
                     transform="matrix(1,0,0,-1,40.704,188.554)"
                     style="font-variant:normal;font-weight:normal;font-size:8.96640015px;font-family:CMSSBX10;-inkscape-font-specification:CMSSBX10;writing-mode:lr-tb;fill:#ff0000;fill-opacity:1;fill-rule:nonzero;stroke:none"
                     id="text382"><tspan
                       x="0 6.2971029 11.004463 13.296274 18.227795 21.565088 23.856901 28.887947"
                       y="0"
                       sodipodi:role="line"
                       id="tspan384">Valgrind</tspan></text>
<text
                     transform="matrix(1,0,0,-1,34.976,176.599)"
                     style="font-variant:normal;font-weight:normal;font-size:8.96640015px;font-family:CMSS9;-inkscape-font-specification:CMSS9;writing-mode:lr-tb;fill:#ff0000;fill-opacity:1;fill-rule:nonzero;stroke:none"
                     id="text386"><tspan
                       x="0 2.2003546 6.9606161 10.288048 14.383899 17.532001 21.627853 25.723705 30.483967 33.811398 36.011753 40.619587"
                       y="0"
                       sodipodi:role="line"
                       id="tspan388">interception</tspan></text>
<g
                     id="g390"
                     transform="translate(15.145,194.781)" /></g></g><g
                 id="g392"
                 transform="translate(77.221,-95.002)" /></g></g></g></g></g><g
       id="g394"
       transform="matrix(0.7751,0,0,0.7751,-1.2801672,201.86609)" /></g></svg>