<?xml version="1.0" encoding="UTF-8" standalone="no"?>
<svg
   xmlns:dc="http://purl.org/dc/elements/1.1/"
   xmlns:cc="http://creativecommons.org/ns#"
   xmlns:rdf="http://www.w3.org/1999/02/22-rdf-syntax-ns#"
   xmlns:svg="http://www.w3.org/2000/svg"
   xmlns="http://www.w3.org/2000/svg"
   xmlns:sodipodi="http://sodipodi.sourceforge.net/DTD/sodipodi-0.dtd"
   xmlns:inkscape="http://www.inkscape.org/namespaces/inkscape"
   version="1.1"
   viewBox="0.0 0.0 960.0 720.0"
   fill="none"
   stroke="none"
   stroke-linecap="square"
   stroke-miterlimit="10"
   id="svg2"
   inkscape:version="0.91 r13725"
   sodipodi:docname="Emulation_fonctionnement.svg">
  <metadata
     id="metadata133">
    <rdf:RDF>
      <cc:Work
         rdf:about="">
        <dc:format>image/svg+xml</dc:format>
        <dc:type
           rdf:resource="http://purl.org/dc/dcmitype/StillImage" />
      </cc:Work>
    </rdf:RDF>
  </metadata>
  <defs
     id="defs131">
    <marker
       inkscape:isstock="true"
       style="overflow:visible"
       id="marker5397"
       refX="0.0"
       refY="0.0"
       orient="auto"
       inkscape:stockid="Arrow1Lstart">
      <path
         transform="scale(0.8) translate(12.5,0)"
         style="fill-rule:evenodd;stroke:#000000;stroke-width:1pt;stroke-opacity:1;fill:#000000;fill-opacity:1"
         d="M 0.0,0.0 L 5.0,-5.0 L -12.5,0.0 L 5.0,5.0 L 0.0,0.0 z "
         id="path5399" />
    </marker>
    <marker
       inkscape:isstock="true"
       style="overflow:visible"
       id="marker5207"
       refX="0.0"
       refY="0.0"
       orient="auto"
       inkscape:stockid="Arrow1Lstart">
      <path
         transform="scale(0.8) translate(12.5,0)"
         style="fill-rule:evenodd;stroke:#000000;stroke-width:1pt;stroke-opacity:1;fill:#000000;fill-opacity:1"
         d="M 0.0,0.0 L 5.0,-5.0 L -12.5,0.0 L 5.0,5.0 L 0.0,0.0 z "
         id="path5209" />
    </marker>
    <marker
       inkscape:isstock="true"
       style="overflow:visible;"
       id="marker5173"
       refX="0.0"
       refY="0.0"
       orient="auto"
       inkscape:stockid="Arrow1Lend">
      <path
         transform="scale(0.8) rotate(180) translate(12.5,0)"
         style="fill-rule:evenodd;stroke:#000000;stroke-width:1pt;stroke-opacity:1;fill:#000000;fill-opacity:1"
         d="M 0.0,0.0 L 5.0,-5.0 L -12.5,0.0 L 5.0,5.0 L 0.0,0.0 z "
         id="path5175" />
    </marker>
    <marker
       inkscape:stockid="Arrow1Lstart"
       orient="auto"
       refY="0.0"
       refX="0.0"
       id="marker5039"
       style="overflow:visible"
       inkscape:isstock="true"
       inkscape:collect="always">
      <path
         id="path5041"
         d="M 0.0,0.0 L 5.0,-5.0 L -12.5,0.0 L 5.0,5.0 L 0.0,0.0 z "
         style="fill-rule:evenodd;stroke:#000000;stroke-width:1pt;stroke-opacity:1;fill:#000000;fill-opacity:1"
         transform="scale(0.8) translate(12.5,0)" />
    </marker>
    <marker
       inkscape:stockid="Arrow1Lend"
       orient="auto"
       refY="0.0"
       refX="0.0"
       id="Arrow1Lend"
       style="overflow:visible;"
       inkscape:isstock="true"
       inkscape:collect="always">
      <path
         id="path4468"
         d="M 0.0,0.0 L 5.0,-5.0 L -12.5,0.0 L 5.0,5.0 L 0.0,0.0 z "
         style="fill-rule:evenodd;stroke:#000000;stroke-width:1pt;stroke-opacity:1;fill:#000000;fill-opacity:1"
         transform="scale(0.8) rotate(180) translate(12.5,0)" />
    </marker>
    <marker
       inkscape:isstock="true"
       style="overflow:visible"
       id="marker4919"
       refX="0.0"
       refY="0.0"
       orient="auto"
       inkscape:stockid="Arrow1Lstart"
       inkscape:collect="always">
      <path
         transform="scale(0.8) translate(12.5,0)"
         style="fill-rule:evenodd;stroke:#000000;stroke-width:1pt;stroke-opacity:1;fill:#000000;fill-opacity:1"
         d="M 0.0,0.0 L 5.0,-5.0 L -12.5,0.0 L 5.0,5.0 L 0.0,0.0 z "
         id="path4921" />
    </marker>
    <marker
       inkscape:stockid="Arrow1Mend"
       orient="auto"
       refY="0.0"
       refX="0.0"
       id="Arrow1Mend"
       style="overflow:visible;"
       inkscape:isstock="true">
      <path
         id="path4474"
         d="M 0.0,0.0 L 5.0,-5.0 L -12.5,0.0 L 5.0,5.0 L 0.0,0.0 z "
         style="fill-rule:evenodd;stroke:#000000;stroke-width:1pt;stroke-opacity:1;fill:#000000;fill-opacity:1"
         transform="scale(0.4) rotate(180) translate(10,0)" />
    </marker>
    <marker
       inkscape:stockid="Arrow1Lstart"
       orient="auto"
       refY="0.0"
       refX="0.0"
       id="Arrow1Lstart"
       style="overflow:visible"
       inkscape:isstock="true"
       inkscape:collect="always">
      <path
         id="path4465"
         d="M 0.0,0.0 L 5.0,-5.0 L -12.5,0.0 L 5.0,5.0 L 0.0,0.0 z "
         style="fill-rule:evenodd;stroke:#000000;stroke-width:1pt;stroke-opacity:1;fill:#000000;fill-opacity:1"
         transform="scale(0.8) translate(12.5,0)" />
    </marker>
    <marker
       inkscape:isstock="true"
       style="overflow:visible"
       id="marker5173-5"
       refX="0"
       refY="0"
       orient="auto"
       inkscape:stockid="Arrow1Lend">
      <path
         inkscape:connector-curvature="0"
         transform="matrix(-0.8,0,0,-0.8,-10,0)"
         style="fill:#000000;fill-opacity:1;fill-rule:evenodd;stroke:#000000;stroke-width:1pt;stroke-opacity:1"
         d="M 0,0 5,-5 -12.5,0 5,5 0,0 Z"
         id="path5175-7" />
    </marker>
  </defs>
  <sodipodi:namedview
     pagecolor="#ffffff"
     bordercolor="#666666"
     borderopacity="1"
     objecttolerance="10"
     gridtolerance="10"
     guidetolerance="10"
     inkscape:pageopacity="0"
     inkscape:pageshadow="2"
     inkscape:window-width="1600"
     inkscape:window-height="844"
     id="namedview129"
     showgrid="false"
     inkscape:zoom="0.92709556"
     inkscape:cx="140.28066"
     inkscape:cy="373.33413"
     inkscape:window-x="0"
     inkscape:window-y="0"
     inkscape:window-maximized="1"
     inkscape:current-layer="svg2" />
  <clipPath
     id="p.0">
    <path
       d="m0 0l960.0 0l0 720.0l-960.0 0l0 -720.0z"
       clip-rule="nonzero"
       id="path5" />
  </clipPath>
  <path
     style="fill:#000000;fill-opacity:0;fill-rule:nonzero"
     inkscape:connector-curvature="0"
     id="path9"
     d="m 0,0 960,0 0,720 -960,0 z" />
  <g
     id="g6577"
     inkscape:export-filename="/home/cross-l/Informatique/SIMGRID/doc/Pictures/png/Emulation_fonctionnement.png"
     inkscape:export-xdpi="89.800003"
     inkscape:export-ydpi="89.800003">
    <path
       d="m 503.30185,338.6824 184.7244,0 0,75.77954 -184.7244,0 z"
       id="path13"
       inkscape:connector-curvature="0"
       style="fill-rule:nonzero;stroke:#ff0000;stroke-width:2;stroke-linecap:butt;stroke-linejoin:round" />
    <path
       d="m 503.30185,338.6824 184.7244,0 0,75.77954 -184.7244,0 z"
       id="path11"
       inkscape:connector-curvature="0"
       style="fill:#ffaaaa;fill-rule:nonzero;stroke:#ff0000" />
    <path
       d="m 557.71484,382.4322 0,-11.45312 8.48437,0 0,1.9375 -6.17187,0 0,2.53125 5.75,0 0,1.9375 -5.75,0 0,3.10937 6.39062,0 0,1.9375 -8.70312,0 z m 3.29687,-12.3125 1.07813,-2.34375 2.45312,0 -2.14062,2.34375 -1.39063,0 z m 7.1875,4.01563 2.03125,0 0,1.125 q 1.07813,-1.3125 2.57813,-1.3125 0.79687,0 1.375,0.32812 0.59375,0.32813 0.96875,0.98438 0.54687,-0.65625 1.17187,-0.98438 0.64063,-0.32812 1.35938,-0.32812 0.92187,0 1.54687,0.375 0.64063,0.35937 0.95313,1.07812 0.21875,0.53125 0.21875,1.71875 l 0,5.3125 -2.1875,0 0,-4.75 q 0,-1.23437 -0.23438,-1.59375 -0.29687,-0.46875 -0.9375,-0.46875 -0.45312,0 -0.85937,0.28125 -0.40625,0.28125 -0.59375,0.82813 -0.17188,0.54687 -0.17188,1.71875 l 0,3.98437 -2.20312,0 0,-4.54687 q 0,-1.21875 -0.125,-1.5625 -0.10938,-0.35938 -0.35938,-0.53125 -0.23437,-0.17188 -0.65625,-0.17188 -0.51562,0 -0.92187,0.28125 -0.40625,0.26563 -0.57813,0.78125 -0.17187,0.51563 -0.17187,1.71875 l 0,4.03125 -2.20313,0 0,-8.29687 z m 19.85157,8.29687 0,-1.25 q -0.45313,0.67188 -1.1875,1.0625 -0.73438,0.375 -1.5625,0.375 -0.82813,0 -1.5,-0.35937 -0.65625,-0.375 -0.95313,-1.03125 -0.29687,-0.67188 -0.29687,-1.84375 l 0,-5.25 2.1875,0 0,3.8125 q 0,1.75 0.125,2.14062 0.125,0.39063 0.4375,0.625 0.32812,0.23438 0.8125,0.23438 0.5625,0 1,-0.3125 0.45312,-0.3125 0.60937,-0.76563 0.17188,-0.45312 0.17188,-2.23437 l 0,-3.5 2.20312,0 0,8.29687 -2.04687,0 z m 4.32031,0 0,-11.45312 2.1875,0 0,11.45312 -2.1875,0 z m 6.08594,-5.76562 -2,-0.35938 q 0.34375,-1.20312 1.15625,-1.78125 0.82812,-0.57812 2.4375,-0.57812 1.46875,0 2.1875,0.34375 0.71875,0.34375 1.01562,0.89062 0.29688,0.53125 0.29688,1.95313 l -0.0312,2.5625 q 0,1.09375 0.10937,1.625 0.10938,0.51562 0.39063,1.10937 l -2.17188,0 q -0.0781,-0.21875 -0.20312,-0.65625 -0.0625,-0.1875 -0.0781,-0.25 -0.5625,0.54688 -1.20312,0.82813 -0.64063,0.26562 -1.375,0.26562 -1.28125,0 -2.01563,-0.6875 -0.73437,-0.70312 -0.73437,-1.76562 0,-0.70313 0.32812,-1.25 0.34375,-0.5625 0.9375,-0.84375 0.60938,-0.29688 1.75,-0.51563 1.54688,-0.29687 2.14063,-0.54687 l 0,-0.21875 q 0,-0.625 -0.3125,-0.89063 -0.3125,-0.28125 -1.1875,-0.28125 -0.57813,0 -0.90625,0.23438 -0.32813,0.23437 -0.53125,0.8125 z m 2.9375,1.78125 q -0.42188,0.14062 -1.34375,0.34375 -0.90625,0.1875 -1.1875,0.375 -0.4375,0.29687 -0.4375,0.76562 0,0.46875 0.34375,0.8125 0.34375,0.32813 0.875,0.32813 0.59375,0 1.14062,-0.39063 0.39063,-0.29687 0.51563,-0.73437 0.0937,-0.28125 0.0937,-1.0625 l 0,-0.4375 z m 8.11718,-4.3125 0,1.75 -1.5,0 0,3.34375 q 0,1.01562 0.0469,1.1875 0.0469,0.15625 0.1875,0.26562 0.15625,0.10938 0.375,0.10938 0.3125,0 0.89062,-0.20313 l 0.1875,1.70313 q -0.76562,0.32812 -1.73437,0.32812 -0.59375,0 -1.07813,-0.20312 -0.46875,-0.20313 -0.70312,-0.51563 -0.21875,-0.3125 -0.29688,-0.85937 -0.0781,-0.375 -0.0781,-1.54688 l 0,-3.60937 -1,0 0,-1.75 1,0 0,-1.65625 2.20312,-1.28125 0,2.9375 1.5,0 z m 6.32813,5.65625 2.1875,0.35937 q -0.42188,1.20313 -1.32813,1.84375 -0.90625,0.625 -2.28125,0.625 -2.15625,0 -3.20312,-1.42187 -0.8125,-1.125 -0.8125,-2.85938 0,-2.0625 1.07812,-3.21875 1.07813,-1.17187 2.71875,-1.17187 1.85938,0 2.92188,1.21875 1.07812,1.21875 1.03125,3.75 l -5.5,0 q 0.0156,0.96875 0.51562,1.51562 0.51563,0.54688 1.28125,0.54688 0.51563,0 0.85938,-0.28125 0.35937,-0.28125 0.53125,-0.90625 z m 0.125,-2.21875 q -0.0156,-0.95313 -0.48438,-1.45313 -0.46875,-0.5 -1.14062,-0.5 -0.71875,0 -1.1875,0.53125 -0.46875,0.51563 -0.46875,1.42188 l 3.28125,0 z m 9.42969,4.85937 0,-1.25 q -0.45313,0.67188 -1.1875,1.0625 -0.73438,0.375 -1.5625,0.375 -0.82813,0 -1.5,-0.35937 -0.65625,-0.375 -0.95313,-1.03125 -0.29687,-0.67188 -0.29687,-1.84375 l 0,-5.25 2.1875,0 0,3.8125 q 0,1.75 0.125,2.14062 0.125,0.39063 0.4375,0.625 0.32812,0.23438 0.8125,0.23438 0.5625,0 1,-0.3125 0.45312,-0.3125 0.60937,-0.76563 0.17188,-0.45312 0.17188,-2.23437 l 0,-3.5 2.20312,0 0,8.29687 -2.04687,0 z m 6.41406,0 -2.1875,0 0,-8.29687 2.03125,0 0,1.17187 q 0.53125,-0.82812 0.9375,-1.09375 0.42187,-0.26562 0.95312,-0.26562 0.75,0 1.45313,0.40625 l -0.6875,1.92187 q -0.54688,-0.35937 -1.03125,-0.35937 -0.45313,0 -0.78125,0.25 -0.3125,0.25 -0.5,0.92187 -0.1875,0.65625 -0.1875,2.78125 l 0,2.5625 z"
       id="path15"
       inkscape:connector-curvature="0"
       style="fill:#000000;fill-rule:nonzero" />
    <path
       d="m 451.79004,552.8246 0,0 c 0,-12.31866 9.98624,-22.30487 22.3049,-22.30487 l 243.13821,0 c 5.91565,0 11.58899,2.34998 15.77197,6.5329 4.18299,4.18298 6.53296,9.85632 6.53296,15.77197 l 0,89.21698 c 0,12.31867 -9.98626,22.30487 -22.30493,22.30487 l -243.13821,0 c -12.31866,0 -22.3049,-9.9862 -22.3049,-22.30487 z"
       id="path17"
       inkscape:connector-curvature="0"
       style="fill:#f9cb9c;fill-rule:nonzero" />
    <g
       id="g4421">
      <path
         style="fill:#ffb380;fill-rule:nonzero;stroke:#ff6600;stroke-width:2;stroke-linecap:butt;stroke-linejoin:round"
         inkscape:connector-curvature="0"
         id="path19"
         d="m 451.79004,552.8246 0,0 c 0,-12.31866 9.98624,-22.30487 22.3049,-22.30487 l 243.13821,0 c 5.91565,0 11.58899,2.34998 15.77197,6.5329 4.18299,4.18298 6.53296,9.85632 6.53296,15.77197 l 0,89.21698 c 0,12.31867 -9.98626,22.30487 -22.30493,22.30487 l -243.13821,0 c -12.31866,0 -22.3049,-9.9862 -22.3049,-22.30487 z" />
      <path
         style="fill:#000000;fill-rule:nonzero"
         inkscape:connector-curvature="0"
         id="path21"
         d="m 572.40234,603.2931 0,-11.45313 2.25,0 4.6875,7.64063 0,-7.64063 2.15625,0 0,11.45313 -2.32813,0 -4.60937,-7.46875 0,7.46875 -2.15625,0 z m 11.00781,-4.26563 q 0,-1.09375 0.53125,-2.10937 0.54688,-1.03125 1.53125,-1.5625 1,-0.54688 2.21875,-0.54688 1.875,0 3.07813,1.21875 1.20312,1.21875 1.20312,3.09375 0,1.875 -1.21875,3.125 -1.20312,1.23438 -3.04687,1.23438 -1.14063,0 -2.1875,-0.51563 -1.03125,-0.51562 -1.57813,-1.51562 -0.53125,-1 -0.53125,-2.42188 z m 2.25,0.10938 q 0,1.23437 0.57813,1.89062 0.59375,0.65625 1.45312,0.65625 0.85938,0 1.4375,-0.65625 0.59375,-0.65625 0.59375,-1.90625 0,-1.21875 -0.59375,-1.875 -0.57812,-0.65625 -1.4375,-0.65625 -0.85937,0 -1.45312,0.65625 -0.57813,0.65625 -0.57813,1.89063 z m 6.99219,-4.14063 2.34375,0 1.98437,5.89063 1.9375,-5.89063 2.26563,0 -2.92188,7.98438 -0.53125,1.45312 q -0.28125,0.71875 -0.54687,1.09375 -0.26563,0.39063 -0.60938,0.625 -0.32812,0.25 -0.82812,0.375 -0.5,0.14063 -1.125,0.14063 -0.625,0 -1.23438,-0.14063 l -0.20312,-1.71875 q 0.51562,0.10938 0.9375,0.10938 0.76562,0 1.125,-0.45313 0.375,-0.45312 0.5625,-1.14062 l -3.15625,-8.32813 z m 11.58594,2.53125 -2,-0.35937 q 0.34375,-1.20313 1.15625,-1.78125 0.82812,-0.57813 2.4375,-0.57813 1.46875,0 2.1875,0.34375 0.71875,0.34375 1.01562,0.89063 0.29688,0.53125 0.29688,1.95312 l -0.0312,2.5625 q 0,1.09375 0.10937,1.625 0.10938,0.51563 0.39063,1.10938 l -2.17188,0 q -0.0781,-0.21875 -0.20312,-0.65625 -0.0625,-0.1875 -0.0781,-0.25 -0.5625,0.54687 -1.20312,0.82812 -0.64063,0.26563 -1.375,0.26563 -1.28125,0 -2.01563,-0.6875 -0.73437,-0.70313 -0.73437,-1.76563 0,-0.70312 0.32812,-1.25 0.34375,-0.5625 0.9375,-0.84375 0.60938,-0.29687 1.75,-0.51562 1.54688,-0.29688 2.14063,-0.54688 l 0,-0.21875 q 0,-0.625 -0.3125,-0.89062 -0.3125,-0.28125 -1.1875,-0.28125 -0.57813,0 -0.90625,0.23437 -0.32813,0.23438 -0.53125,0.8125 z m 2.9375,1.78125 q -0.42188,0.14063 -1.34375,0.34375 -0.90625,0.1875 -1.1875,0.375 -0.4375,0.29688 -0.4375,0.76563 0,0.46875 0.34375,0.8125 0.34375,0.32812 0.875,0.32812 0.59375,0 1.14062,-0.39062 0.39063,-0.29688 0.51563,-0.73438 0.0937,-0.28125 0.0937,-1.0625 l 0,-0.4375 z m 9.77343,3.98438 0,-1.25 q -0.45312,0.67187 -1.1875,1.0625 -0.73437,0.375 -1.5625,0.375 -0.82812,0 -1.5,-0.35938 -0.65625,-0.375 -0.95312,-1.03125 -0.29688,-0.67187 -0.29688,-1.84375 l 0,-5.25 2.1875,0 0,3.8125 q 0,1.75 0.125,2.14063 0.125,0.39062 0.4375,0.625 0.32813,0.23437 0.8125,0.23437 0.5625,0 1,-0.3125 0.45313,-0.3125 0.60938,-0.76562 0.17187,-0.45313 0.17187,-2.23438 l 0,-3.5 2.20313,0 0,8.29688 -2.04688,0 z" />
    </g>
    <path
       d="m 114.86614,378.95013 0,0 c 0,-32.04993 44.79972,-58.03149 100.063,-58.03149 l 0,0 c 55.26324,0 100.06299,25.98156 100.06299,58.03149 l 0,0 c 0,32.0499 -44.79975,58.03149 -100.06299,58.03149 l 0,0 c -55.26328,0 -100.063,-25.98159 -100.063,-58.03149 z"
       id="path25"
       inkscape:connector-curvature="0"
       style="fill-rule:nonzero;stroke:#0000ff;stroke-width:2;stroke-linecap:butt;stroke-linejoin:round" />
    <g
       id="g6375">
      <path
         style="fill:#aaaaff;fill-rule:nonzero;stroke:#0000d4"
         inkscape:connector-curvature="0"
         id="path23"
         d="m 114.86614,378.95013 0,0 c 0,-32.04993 44.79972,-58.03149 100.063,-58.03149 l 0,0 c 55.26324,0 100.06299,25.98156 100.06299,58.03149 l 0,0 c 0,32.0499 -44.79975,58.03149 -100.06299,58.03149 l 0,0 c -55.26328,0 -100.063,-25.98159 -100.063,-58.03149 z" />
      <path
         style="fill:#000000;fill-rule:nonzero"
         inkscape:connector-curvature="0"
         id="path27"
         d="m 174.16351,381.07574 2.25,-0.21875 q 0.20312,1.14062 0.82812,1.67187 0.625,0.53125 1.67188,0.53125 1.125,0 1.6875,-0.46875 0.5625,-0.48437 0.5625,-1.10937 0,-0.40625 -0.23438,-0.6875 -0.23437,-0.29688 -0.82812,-0.5 -0.40625,-0.14063 -1.85938,-0.5 -1.85937,-0.46875 -2.60937,-1.14063 -1.04688,-0.9375 -1.04688,-2.29687 0,-0.875 0.48438,-1.64063 0.5,-0.76562 1.4375,-1.15625 0.9375,-0.40625 2.25,-0.40625 2.15625,0 3.25,0.95313 1.09375,0.9375 1.14062,2.51562 l -2.3125,0.10938 q -0.14062,-0.89063 -0.64062,-1.26563 -0.48438,-0.39062 -1.45313,-0.39062 -1.01562,0 -1.57812,0.40625 -0.375,0.26562 -0.375,0.71875 0,0.40625 0.34375,0.6875 0.4375,0.375 2.125,0.78125 1.6875,0.39062 2.5,0.8125 0.8125,0.42187 1.26562,1.17187 0.45313,0.73438 0.45313,1.8125 0,0.98438 -0.54688,1.84375 -0.54687,0.85938 -1.54687,1.28125 -1,0.42188 -2.48438,0.42188 -2.17187,0 -3.34375,-1 -1.15625,-1.01563 -1.39062,-2.9375 z m 11.25,-5.6875 0,-2.03125 2.1875,0 0,2.03125 -2.1875,0 z m 0,9.42187 0,-8.29687 2.1875,0 0,8.29687 -2.1875,0 z m 4.27344,-8.29687 2.03125,0 0,1.125 q 1.07812,-1.3125 2.57812,-1.3125 0.79688,0 1.375,0.32812 0.59375,0.32813 0.96875,0.98438 0.54688,-0.65625 1.17188,-0.98438 0.64062,-0.32812 1.35937,-0.32812 0.92188,0 1.54688,0.375 0.64062,0.35937 0.95312,1.07812 0.21875,0.53125 0.21875,1.71875 l 0,5.3125 -2.1875,0 0,-4.75 q 0,-1.23437 -0.23437,-1.59375 -0.29688,-0.46875 -0.9375,-0.46875 -0.45313,0 -0.85938,0.28125 -0.40625,0.28125 -0.59375,0.82813 -0.17187,0.54687 -0.17187,1.71875 l 0,3.98437 -2.20313,0 0,-4.54687 q 0,-1.21875 -0.125,-1.5625 -0.10937,-0.35938 -0.35937,-0.53125 -0.23438,-0.17188 -0.65625,-0.17188 -0.51563,0 -0.92188,0.28125 -0.40625,0.26563 -0.57812,0.78125 -0.17188,0.51563 -0.17188,1.71875 l 0,4.03125 -2.20312,0 0,-8.29687 z m 19.85156,8.29687 0,-1.25 q -0.45313,0.67188 -1.1875,1.0625 -0.73438,0.375 -1.5625,0.375 -0.82813,0 -1.5,-0.35937 -0.65625,-0.375 -0.95313,-1.03125 -0.29687,-0.67188 -0.29687,-1.84375 l 0,-5.25 2.1875,0 0,3.8125 q 0,1.75 0.125,2.14062 0.125,0.39063 0.4375,0.625 0.32812,0.23438 0.8125,0.23438 0.5625,0 1,-0.3125 0.45312,-0.3125 0.60937,-0.76563 0.17188,-0.45312 0.17188,-2.23437 l 0,-3.5 2.20312,0 0,8.29687 -2.04687,0 z m 4.32031,0 0,-11.45312 2.1875,0 0,11.45312 -2.1875,0 z m 6.08594,-5.76562 -2,-0.35938 q 0.34375,-1.20312 1.15625,-1.78125 0.82812,-0.57812 2.4375,-0.57812 1.46875,0 2.1875,0.34375 0.71875,0.34375 1.01562,0.89062 0.29688,0.53125 0.29688,1.95313 l -0.0312,2.5625 q 0,1.09375 0.10937,1.625 0.10938,0.51562 0.39063,1.10937 l -2.17188,0 q -0.0781,-0.21875 -0.20312,-0.65625 -0.0625,-0.1875 -0.0781,-0.25 -0.5625,0.54688 -1.20312,0.82813 -0.64063,0.26562 -1.375,0.26562 -1.28125,0 -2.01563,-0.6875 -0.73437,-0.70312 -0.73437,-1.76562 0,-0.70313 0.32812,-1.25 0.34375,-0.5625 0.9375,-0.84375 0.60938,-0.29688 1.75,-0.51563 1.54688,-0.29687 2.14063,-0.54687 l 0,-0.21875 q 0,-0.625 -0.3125,-0.89063 -0.3125,-0.28125 -1.1875,-0.28125 -0.57813,0 -0.90625,0.23438 -0.32813,0.23437 -0.53125,0.8125 z m 2.9375,1.78125 q -0.42188,0.14062 -1.34375,0.34375 -0.90625,0.1875 -1.1875,0.375 -0.4375,0.29687 -0.4375,0.76562 0,0.46875 0.34375,0.8125 0.34375,0.32813 0.875,0.32813 0.59375,0 1.14062,-0.39063 0.39063,-0.29687 0.51563,-0.73437 0.0937,-0.28125 0.0937,-1.0625 l 0,-0.4375 z m 8.11719,-4.3125 0,1.75 -1.5,0 0,3.34375 q 0,1.01562 0.0469,1.1875 0.0469,0.15625 0.1875,0.26562 0.15625,0.10938 0.375,0.10938 0.3125,0 0.89063,-0.20313 l 0.1875,1.70313 q -0.76563,0.32812 -1.73438,0.32812 -0.59375,0 -1.07812,-0.20312 -0.46875,-0.20313 -0.70313,-0.51563 -0.21875,-0.3125 -0.29687,-0.85937 -0.0781,-0.375 -0.0781,-1.54688 l 0,-3.60937 -1,0 0,-1.75 1,0 0,-1.65625 2.20313,-1.28125 0,2.9375 1.5,0 z m 6.32812,5.65625 2.1875,0.35937 q -0.42187,1.20313 -1.32812,1.84375 -0.90625,0.625 -2.28125,0.625 -2.15625,0 -3.20313,-1.42187 -0.8125,-1.125 -0.8125,-2.85938 0,-2.0625 1.07813,-3.21875 1.07812,-1.17187 2.71875,-1.17187 1.85937,0 2.92187,1.21875 1.07813,1.21875 1.03125,3.75 l -5.5,0 q 0.0156,0.96875 0.51563,1.51562 0.51562,0.54688 1.28125,0.54688 0.51562,0 0.85937,-0.28125 0.35938,-0.28125 0.53125,-0.90625 z m 0.125,-2.21875 q -0.0156,-0.95313 -0.48437,-1.45313 -0.46875,-0.5 -1.14063,-0.5 -0.71875,0 -1.1875,0.53125 -0.46875,0.51563 -0.46875,1.42188 l 3.28125,0 z m 9.42969,4.85937 0,-1.25 q -0.45313,0.67188 -1.1875,1.0625 -0.73438,0.375 -1.5625,0.375 -0.82813,0 -1.5,-0.35937 -0.65625,-0.375 -0.95313,-1.03125 -0.29687,-0.67188 -0.29687,-1.84375 l 0,-5.25 2.1875,0 0,3.8125 q 0,1.75 0.125,2.14062 0.125,0.39063 0.4375,0.625 0.32812,0.23438 0.8125,0.23438 0.5625,0 1,-0.3125 0.45312,-0.3125 0.60937,-0.76563 0.17188,-0.45312 0.17188,-2.23437 l 0,-3.5 2.20312,0 0,8.29687 -2.04687,0 z m 6.41406,0 -2.1875,0 0,-8.29687 2.03125,0 0,1.17187 q 0.53125,-0.82812 0.9375,-1.09375 0.42188,-0.26562 0.95313,-0.26562 0.75,0 1.45312,0.40625 l -0.6875,1.92187 q -0.54687,-0.35937 -1.03125,-0.35937 -0.45312,0 -0.78125,0.25 -0.3125,0.25 -0.5,0.92187 -0.1875,0.65625 -0.1875,2.78125 l 0,2.5625 z" />
    </g>
    <path
       d="m 503.30185,105.86929 33.62888,-12.315491 134.51544,0 0,61.577441 -168.14432,0 z"
       id="path31"
       inkscape:connector-curvature="0"
       style="fill:none;fill-rule:nonzero;stroke:#ffff00;stroke-width:2;stroke-linecap:butt;stroke-linejoin:round" />
    <g
       id="g6363">
      <path
         style="fill:#000000;fill-opacity:0;fill-rule:nonzero"
         inkscape:connector-curvature="0"
         id="path29"
         d="m 503.30185,105.86929 33.62888,-12.315491 134.51544,0 0,61.577441 -168.14432,0 z" />
      <path
         style="fill:#000000;fill-rule:nonzero"
         inkscape:connector-curvature="0"
         id="path33"
         d="m 555.31934,136.36026 -2.51563,0 -1,-2.60938 -4.57812,0 -0.95313,2.60938 -2.45312,0 4.46875,-11.45312 2.4375,0 4.59375,11.45312 z m -4.26563,-4.53125 -1.57812,-4.25 -1.54688,4.25 3.125,0 z m 5.41407,-3.76563 2.04687,0 0,1.21875 q 0.39063,-0.625 1.0625,-1.01562 0.6875,-0.39062 1.51563,-0.39062 1.45312,0 2.45312,1.14062 1.01563,1.125 1.01563,3.14062 0,2.07813 -1.01563,3.23438 -1.01562,1.15625 -2.46875,1.15625 -0.6875,0 -1.25,-0.26563 -0.54687,-0.28125 -1.17187,-0.95312 l 0,4.1875 -2.1875,0 0,-11.45313 z m 2.17187,4 q 0,1.40625 0.54688,2.07813 0.5625,0.65625 1.35937,0.65625 0.76563,0 1.26563,-0.60938 0.51562,-0.60937 0.51562,-2.01562 0,-1.29688 -0.53125,-1.92188 -0.51562,-0.64062 -1.29687,-0.64062 -0.79688,0 -1.32813,0.625 -0.53125,0.60937 -0.53125,1.82812 z m 7.60156,-4 2.04688,0 0,1.21875 q 0.39062,-0.625 1.0625,-1.01562 0.6875,-0.39062 1.51562,-0.39062 1.45313,0 2.45313,1.14062 1.01562,1.125 1.01562,3.14062 0,2.07813 -1.01562,3.23438 -1.01563,1.15625 -2.46875,1.15625 -0.6875,0 -1.25,-0.26563 -0.54688,-0.28125 -1.17188,-0.95312 l 0,4.1875 -2.1875,0 0,-11.45313 z m 2.17188,4 q 0,1.40625 0.54687,2.07813 0.5625,0.65625 1.35938,0.65625 0.76562,0 1.26562,-0.60938 0.51563,-0.60937 0.51563,-2.01562 0,-1.29688 -0.53125,-1.92188 -0.51563,-0.64062 -1.29688,-0.64062 -0.79687,0 -1.32812,0.625 -0.53125,0.60937 -0.53125,1.82812 z m 7.66406,4.29688 0,-11.45312 2.1875,0 0,11.45312 -2.1875,0 z m 4.44531,-9.42187 0,-2.03125 2.1875,0 0,2.03125 -2.1875,0 z m 0,9.42187 0,-8.29688 2.1875,0 0,8.29688 -2.1875,0 z m 11.67969,-5.84375 -2.17187,0.39062 q -0.10938,-0.65625 -0.5,-0.98437 -0.375,-0.32813 -1,-0.32813 -0.8125,0 -1.3125,0.57813 -0.48438,0.5625 -0.48438,1.89062 0,1.46875 0.5,2.07813 0.5,0.60937 1.32813,0.60937 0.625,0 1.01562,-0.34375 0.40625,-0.35937 0.57813,-1.23437 l 2.15625,0.375 q -0.34375,1.48437 -1.29688,2.25 -0.95312,0.75 -2.54687,0.75 -1.82813,0 -2.90625,-1.14063 -1.07813,-1.15625 -1.07813,-3.1875 0,-2.0625 1.07813,-3.20312 1.09375,-1.14062 2.9375,-1.14062 1.51562,0 2.40625,0.65624 0.90625,0.64063 1.29687,1.98438 z m 3.30469,0.0781 -2,-0.35937 q 0.34375,-1.20313 1.15625,-1.78125 0.82812,-0.57812 2.4375,-0.57812 1.46875,0 2.1875,0.34374 0.71875,0.34375 1.01562,0.89063 0.29688,0.53125 0.29688,1.95312 l -0.0312,2.5625 q 0,1.09375 0.10937,1.625 0.10938,0.51563 0.39063,1.10938 l -2.17188,0 q -0.0781,-0.21875 -0.20312,-0.65625 -0.0625,-0.1875 -0.0781,-0.25 -0.5625,0.54687 -1.20312,0.82812 -0.64063,0.26563 -1.375,0.26563 -1.28125,0 -2.01563,-0.6875 -0.73437,-0.70313 -0.73437,-1.76563 0,-0.70312 0.32812,-1.25 0.34375,-0.5625 0.9375,-0.84375 0.60938,-0.29687 1.75,-0.51562 1.54688,-0.29688 2.14063,-0.54688 l 0,-0.21875 q 0,-0.625 -0.3125,-0.89062 -0.3125,-0.28125 -1.1875,-0.28125 -0.57813,0 -0.90625,0.23437 -0.32813,0.23438 -0.53125,0.8125 z m 2.9375,1.78125 q -0.42188,0.14063 -1.34375,0.34375 -0.90625,0.1875 -1.1875,0.375 -0.4375,0.29688 -0.4375,0.76563 0,0.46875 0.34375,0.8125 0.34375,0.32812 0.875,0.32812 0.59375,0 1.14062,-0.39062 0.39063,-0.29688 0.51563,-0.73438 0.0937,-0.28125 0.0937,-1.0625 l 0,-0.4375 z m 8.11719,-4.3125 0,1.75 -1.5,0 0,3.34375 q 0,1.01563 0.0469,1.1875 0.0469,0.15625 0.1875,0.26563 0.15625,0.10937 0.375,0.10937 0.3125,0 0.89063,-0.20312 l 0.1875,1.70312 q -0.76563,0.32813 -1.73438,0.32813 -0.59375,0 -1.07812,-0.20313 -0.46875,-0.20312 -0.70313,-0.51562 -0.21875,-0.3125 -0.29687,-0.85938 -0.0781,-0.375 -0.0781,-1.54687 l 0,-3.60938 -1,0 0,-1.75 1,0 0,-1.65624 2.20313,-1.28125 0,2.93749 1.5,0 z m 1.53125,-1.12499 0,-2.03125 2.1875,0 0,2.03125 -2.1875,0 z m 0,9.42187 0,-8.29688 2.1875,0 0,8.29688 -2.1875,0 z m 3.92968,-4.26563 q 0,-1.09375 0.53125,-2.10937 0.54688,-1.03125 1.53125,-1.5625 1,-0.54687 2.21875,-0.54687 1.875,0 3.07813,1.21874 1.20312,1.21875 1.20312,3.09375 0,1.875 -1.21875,3.125 -1.20312,1.23438 -3.04687,1.23438 -1.14063,0 -2.1875,-0.51563 -1.03125,-0.51562 -1.57813,-1.51562 -0.53125,-1 -0.53125,-2.42188 z m 2.25,0.10938 q 0,1.23437 0.57813,1.89062 0.59375,0.65625 1.45312,0.65625 0.85938,0 1.4375,-0.65625 0.59375,-0.65625 0.59375,-1.90625 0,-1.21875 -0.59375,-1.875 -0.57812,-0.65625 -1.4375,-0.65625 -0.85937,0 -1.45312,0.65625 -0.57813,0.65625 -0.57813,1.89063 z m 15.58594,4.15625 -2.20312,0 0,-4.23438 q 0,-1.34375 -0.14063,-1.73437 -0.14062,-0.40625 -0.45312,-0.625 -0.3125,-0.21875 -0.76563,-0.21875 -0.5625,0 -1.01562,0.3125 -0.45313,0.3125 -0.625,0.82812 -0.17188,0.51563 -0.17188,1.90625 l 0,3.76563 -2.1875,0 0,-8.29688 2.03125,0 0,1.21875 q 1.09375,-1.40624 2.73438,-1.40624 0.73437,0 1.32812,0.26562 0.60938,0.25 0.90625,0.65625 0.3125,0.40625 0.4375,0.92187 0.125,0.51563 0.125,1.48438 l 0,5.15625 z" />
    </g>
    <path
       d="m 548.2887,155.13124 1.19684,182.3622"
       id="path35"
       inkscape:connector-curvature="0"
       style="fill:#000000;fill-opacity:0;fill-rule:nonzero" />
    <path
       d="M 638.2887,341.0525 637.09186,155.13124"
       id="path41"
       inkscape:connector-curvature="0"
       style="fill:#000000;fill-opacity:0;fill-rule:nonzero" />
    <path
       d="m 560.1312,416.84253 1.19684,116.06299"
       id="path47"
       inkscape:connector-curvature="0"
       style="fill:#000000;fill-opacity:0;fill-rule:nonzero" />
    <path
       d="M 637.105,532.895 634.74282,416.83201"
       id="path53"
       inkscape:connector-curvature="0"
       style="fill:#000000;fill-opacity:0;fill-rule:nonzero" />
    <path
       d="m 505.65878,352.89502 -204.88187,1.19684"
       id="path59"
       inkscape:connector-curvature="0"
       style="fill:#000000;fill-opacity:0;fill-rule:nonzero" />
    <path
       d="m 488.84067,361.35431 -176.65925,1.13757"
       id="path61"
       inkscape:connector-curvature="0"
       style="fill-rule:evenodd;stroke:#000000;stroke-width:0.02;stroke-linecap:butt;stroke-linejoin:round;stroke-miterlimit:10;stroke-dasharray:none" />
    <path
       d="m 504.47244,400.26248 -200.12598,0"
       id="path65"
       inkscape:connector-curvature="0"
       style="fill:#000000;fill-opacity:0;fill-rule:nonzero" />
    <path
       d="m 402.42783,336.32022 0,0 c 0,-6.20996 5.03415,-11.24411 11.24408,-11.24411 l 0,0 c 2.98212,0 5.8421,1.18466 7.95077,3.29334 2.10868,2.10867 3.29334,4.96865 3.29334,7.95077 l 0,0 c 0,6.20993 -5.03415,11.24408 -11.24411,11.24408 l 0,0 c -6.20993,0 -11.24408,-5.03415 -11.24408,-11.24408 z"
       id="path79"
       inkscape:connector-curvature="0"
       style="fill:#000000;fill-opacity:0;fill-rule:nonzero" />
    <path
       d="m 402.42783,336.32022 0,0 c 0,-6.20996 5.03415,-11.24411 11.24408,-11.24411 l 0,0 c 2.98212,0 5.8421,1.18466 7.95077,3.29334 2.10868,2.10867 3.29334,4.96865 3.29334,7.95077 l 0,0 c 0,6.20993 -5.03415,11.24408 -11.24411,11.24408 l 0,0 c -6.20993,0 -11.24408,-5.03415 -11.24408,-11.24408 z"
       id="path81"
       inkscape:connector-curvature="0"
       style="fill-rule:nonzero;stroke:#000000;stroke-width:2;stroke-linecap:butt;stroke-linejoin:round" />
    <path
       d="m 392.36484,317.958 42.61417,0 0,36.7244 -42.61417,0 z"
       id="path83"
       inkscape:connector-curvature="0"
       style="fill:#000000;fill-opacity:0;fill-rule:nonzero" />
    <path
       d="m 402.42783,421.32022 0,0 c 0,-6.20996 5.03415,-11.24411 11.24408,-11.24411 l 0,0 c 2.98212,0 5.8421,1.18466 7.95077,3.29334 2.10868,2.10867 3.29334,4.96865 3.29334,7.95077 l 0,0 c 0,6.20993 -5.03415,11.24408 -11.24411,11.24408 l 0,0 c -6.20993,0 -11.24408,-5.03415 -11.24408,-11.24408 z"
       id="path87"
       inkscape:connector-curvature="0"
       style="fill:#000000;fill-opacity:0;fill-rule:nonzero" />
    <path
       d="m 402.42783,421.32022 0,0 c 0,-6.20996 5.03415,-11.24411 11.24408,-11.24411 l 0,0 c 2.98212,0 5.8421,1.18466 7.95077,3.29334 2.10868,2.10867 3.29334,4.96865 3.29334,7.95077 l 0,0 c 0,6.20993 -5.03415,11.24408 -11.24411,11.24408 l 0,0 c -6.20993,0 -11.24408,-5.03415 -11.24408,-11.24408 z"
       id="path89"
       inkscape:connector-curvature="0"
       style="fill-rule:nonzero;stroke:#000000;stroke-width:2;stroke-linecap:butt;stroke-linejoin:round" />
    <path
       d="m 392.36484,412.958 42.61417,0 0,36.7244 -42.61417,0 z"
       id="path91"
       inkscape:connector-curvature="0"
       style="fill:#000000;fill-opacity:0;fill-rule:nonzero" />
    <path
       d="m 645.41205,447.02887 42.6142,0 0,36.72443 -42.6142,0 z"
       id="path99"
       inkscape:connector-curvature="0"
       style="fill:#000000;fill-opacity:0;fill-rule:nonzero" />
    <path
       d="m 497.30185,447.02887 42.61417,0 0,36.72443 -42.61417,0 z"
       id="path115"
       inkscape:connector-curvature="0"
       style="fill:#000000;fill-opacity:0;fill-rule:nonzero" />
    <path
       d="m 122.56693,449.6824 184.72443,0 0,93.5433 -184.72443,0 z"
       id="path119"
       inkscape:connector-curvature="0"
       style="fill:#000000;fill-opacity:0;fill-rule:nonzero" />
    <g
       id="g6037">
      <path
         style="fill:#000000;fill-rule:evenodd;stroke:#000000;stroke-width:1;stroke-linecap:butt;stroke-linejoin:round;stroke-miterlimit:10;stroke-dasharray:none;marker-start:url(#marker4919)"
         inkscape:connector-curvature="0"
         id="path43"
         d="M 638.21018,334.6754 637.10143,158.12775" />
      <g
         id="g6021">
        <path
           d="m 645.41205,210.5643 42.6142,0 0,36.72441 -42.6142,0 z"
           id="path71"
           inkscape:connector-curvature="0"
           style="fill:#000000;fill-opacity:0;fill-rule:nonzero" />
        <path
           d="m 655.47504,228.92651 0,0 c 0,-6.20995 5.03418,-11.24409 11.24414,-11.24409 l 0,0 c 2.98212,0 5.8421,1.18463 7.95075,3.29331 2.1087,2.10868 3.29333,4.96866 3.29333,7.95078 l 0,0 c 0,6.20993 -5.03418,11.24409 -11.24408,11.24409 l 0,0 c -6.20996,0 -11.24414,-5.03416 -11.24414,-11.24409 z"
           id="path75"
           inkscape:connector-curvature="0"
           style="fill:#000000;fill-opacity:0;fill-rule:nonzero" />
        <path
           d="m 693.52051,230.242 -1.4075,0 0,-8.78265 q -0.51609,0.47431 -1.34495,0.94864 -0.81322,0.47432 -1.47005,0.71914 l 0,-1.33117 q 1.17291,-0.55083 2.04869,-1.31586 0.89142,-0.78035 1.26675,-1.49948 l 0.90706,0 0,11.26138 z"
           id="path73"
           inkscape:connector-curvature="0"
           style="fill:#000000;fill-rule:nonzero" />
        <path
           d="m 680.74551,224.36866 0,0 c 0,-6.0811 5.03865,-11.01078 11.25413,-11.01078 l 0,0 c 2.98477,0 5.84729,1.16005 7.95781,3.22498 2.11057,2.06492 3.29626,4.86556 3.29626,7.7858 l 0,0 c 0,6.08107 -5.03866,11.01078 -11.25407,11.01078 l 0,0 c -6.21548,0 -11.25413,-4.92971 -11.25413,-11.01078 z"
           id="path77"
           inkscape:connector-curvature="0"
           style="fill-rule:nonzero;stroke:#000000;stroke-width:1.9800204;stroke-linecap:butt;stroke-linejoin:round" />
        <text
           sodipodi:linespacing="125%"
           id="text4360"
           y="259.3075"
           x="692.60974"
           style="font-style:normal;font-weight:normal;font-size:12.5px;line-height:125%;font-family:sans-serif;text-align:center;letter-spacing:0px;word-spacing:0px;text-anchor:middle;fill:#000000;fill-opacity:1;stroke:none;stroke-width:1px;stroke-linecap:butt;stroke-linejoin:miter;stroke-opacity:1"
           xml:space="preserve"><tspan
             y="259.3075"
             x="692.60974"
             id="tspan4362"
             sodipodi:role="line">Interception</tspan><tspan
             id="tspan4366"
             y="274.9325"
             x="694.59949"
             sodipodi:role="line">d'appel système </tspan><tspan
             id="tspan4370"
             y="290.5575"
             x="692.60974"
             sodipodi:role="line">(entrée)</tspan></text>
      </g>
    </g>
    <g
       id="g6091">
      <path
         style="fill:#000000;fill-rule:evenodd;stroke:#000000;stroke-width:1;stroke-linecap:butt;stroke-linejoin:round;stroke-miterlimit:10;stroke-dasharray:none;marker-start:url(#marker5207)"
         inkscape:connector-curvature="0"
         id="path49"
         d="m 561.08458,419.17788 -0.57641,113.85478" />
      <g
         id="g6012">
        <path
           d="m 507.36484,465.39108 0,0 c 0,-6.20996 5.03415,-11.24411 11.24411,-11.24411 l 0,0 c 2.98212,0 5.8421,1.18466 7.95074,3.29334 2.10871,2.10867 3.29334,4.96865 3.29334,7.95077 l 0,0 c 0,6.20993 -5.03418,11.24408 -11.24408,11.24408 l 0,0 c -6.20996,0 -11.24411,-5.03415 -11.24411,-11.24408 z"
           id="path111"
           inkscape:connector-curvature="0"
           style="fill:#000000;fill-opacity:0;fill-rule:nonzero" />
        <path
           d="m 491.00572,464.31244 0,0 c 0,-6.20996 5.03415,-11.24411 11.24411,-11.24411 l 0,0 c 2.98212,0 5.8421,1.18466 7.95074,3.29334 2.10871,2.10867 3.29334,4.96865 3.29334,7.95077 l 0,0 c 0,6.20993 -5.03418,11.24408 -11.24408,11.24408 l 0,0 c -6.20996,0 -11.24411,-5.03415 -11.24411,-11.24408 z"
           id="path113"
           inkscape:connector-curvature="0"
           style="fill-rule:nonzero;stroke:#000000;stroke-width:2;stroke-linecap:butt;stroke-linejoin:round" />
        <path
           d="m 498.47248,467.279 1.40625,-0.1875 q 0.25,1.20312 0.82812,1.73437 0.57813,0.51563 1.42188,0.51563 0.98437,0 1.67187,-0.6875 0.6875,-0.6875 0.6875,-1.70313 0,-0.96875 -0.64062,-1.59375 -0.625,-0.625 -1.60938,-0.625 -0.39062,0 -0.98437,0.15625 l 0.15625,-1.23437 q 0.14062,0.0156 0.21875,0.0156 0.90625,0 1.625,-0.46875 0.71875,-0.46875 0.71875,-1.45312 0,-0.76563 -0.53125,-1.26563 -0.51563,-0.51562 -1.34375,-0.51562 -0.82813,0 -1.375,0.51562 -0.54688,0.51563 -0.70313,1.54688 l -1.40625,-0.25 q 0.26563,-1.42188 1.17188,-2.1875 0.92187,-0.78125 2.28125,-0.78125 0.9375,0 1.71875,0.40625 0.79687,0.39062 1.20312,1.09375 0.42188,0.6875 0.42188,1.46875 0,0.75 -0.40625,1.35937 -0.39063,0.60938 -1.17188,0.96875 1.01563,0.23438 1.57813,0.96875 0.5625,0.73438 0.5625,1.84375 0,1.5 -1.09375,2.54688 -1.09375,1.04687 -2.76563,1.04687 -1.5,0 -2.5,-0.89062 -1,-0.90625 -1.14062,-2.34375 z"
           id="path117"
           inkscape:connector-curvature="0"
           style="fill:#000000;fill-rule:nonzero" />
        <text
           sodipodi:linespacing="125%"
           id="text4360-4"
           y="490.92667"
           x="505.80768"
           style="font-style:normal;font-weight:normal;font-size:12.5px;line-height:125%;font-family:sans-serif;text-align:center;letter-spacing:0px;word-spacing:0px;text-anchor:middle;fill:#000000;fill-opacity:1;stroke:none;stroke-width:1px;stroke-linecap:butt;stroke-linejoin:miter;stroke-opacity:1"
           xml:space="preserve"><tspan
             y="490.92667"
             x="505.80768"
             id="tspan4362-9"
             sodipodi:role="line">Interception</tspan><tspan
             id="tspan4366-0"
             y="506.55167"
             x="507.79742"
             sodipodi:role="line">d'appel système </tspan><tspan
             id="tspan4370-3"
             y="522.17664"
             x="505.80768"
             sodipodi:role="line">(sortie)</tspan></text>
      </g>
    </g>
    <g
       id="g6055">
      <path
         style="fill:#000000;fill-rule:evenodd;stroke:#000000;stroke-width:1;stroke-linecap:butt;stroke-linejoin:round;stroke-miterlimit:10;stroke-dasharray:none;marker-start:url(#Arrow1Lstart)"
         inkscape:connector-curvature="0"
         id="path37"
         d="m 560.2334,157.43647 1.11055,180.08921" />
      <g
         id="g5988">
        <path
           d="m 497.30185,210.5643 42.61417,0 0,36.72441 -42.61417,0 z"
           id="path107"
           inkscape:connector-curvature="0"
           style="fill:#000000;fill-opacity:0;fill-rule:nonzero" />
        <path
           d="m 491.00572,227.84787 0,0 c 0,-6.20995 5.03415,-11.24409 11.24411,-11.24409 l 0,0 c 2.98212,0 5.8421,1.18463 7.95074,3.29331 2.10871,2.10868 3.29334,4.96866 3.29334,7.95078 l 0,0 c 0,6.20993 -5.03418,11.24409 -11.24408,11.24409 l 0,0 c -6.20996,0 -11.24411,-5.03416 -11.24411,-11.24409 z"
           id="path105"
           inkscape:connector-curvature="0"
           style="fill-rule:nonzero;stroke:#000000;stroke-width:2;stroke-linecap:butt;stroke-linejoin:round" />
        <path
           d="m 505.76938,225.18941 -1.40625,0.10937 q -0.1875,-0.82812 -0.53125,-1.20312 -0.5625,-0.59375 -1.40625,-0.59375 -0.67187,0 -1.17187,0.375 -0.67188,0.48437 -1.0625,1.42187 -0.375,0.92188 -0.39063,2.64063 0.51563,-0.78125 1.25,-1.15625 0.73438,-0.375 1.53125,-0.375 1.40625,0 2.39063,1.04687 1,1.03125 1,2.67188 0,1.07812 -0.46875,2 -0.46875,0.92187 -1.28125,1.42187 -0.8125,0.5 -1.84375,0.5 -1.75,0 -2.85938,-1.29687 -1.10937,-1.29688 -1.10937,-4.26563 0,-3.32812 1.21875,-4.82812 1.07812,-1.3125 2.89062,-1.3125 1.34375,0 2.20313,0.76562 0.875,0.75 1.04687,2.07813 z m -5.75,4.9375 q 0,0.73437 0.3125,1.40625 0.3125,0.65625 0.85938,1 0.5625,0.34375 1.17187,0.34375 0.89063,0 1.53125,-0.71875 0.64063,-0.71875 0.64063,-1.95313 0,-1.1875 -0.64063,-1.85937 -0.625,-0.6875 -1.59375,-0.6875 -0.95312,0 -1.625,0.6875 -0.65625,0.67187 -0.65625,1.78125 z"
           id="path109"
           inkscape:connector-curvature="0"
           style="fill:#000000;fill-rule:nonzero" />
        <g
           id="g5977">
          <path
             style="fill:#000000;fill-opacity:0;fill-rule:nonzero"
             inkscape:connector-curvature="0"
             id="path103"
             d="m 507.36484,228.92651 0,0 c 0,-6.20995 5.03415,-11.24409 11.24411,-11.24409 l 0,0 c 2.98212,0 5.8421,1.18463 7.95074,3.29331 2.10871,2.10868 3.29334,4.96866 3.29334,7.95078 l 0,0 c 0,6.20993 -5.03418,11.24409 -11.24408,11.24409 l 0,0 c -6.20996,0 -11.24411,-5.03416 -11.24411,-11.24409 z" />
          <text
             xml:space="preserve"
             style="font-style:normal;font-weight:normal;font-size:12.5px;line-height:125%;font-family:sans-serif;text-align:center;letter-spacing:0px;word-spacing:0px;text-anchor:middle;fill:#000000;fill-opacity:1;stroke:none;stroke-width:1px;stroke-linecap:butt;stroke-linejoin:miter;stroke-opacity:1"
             x="500.10016"
             y="257.28247"
             id="text4396"
             sodipodi:linespacing="125%"><tspan
               sodipodi:role="line"
               id="tspan4398"
               x="500.10016"
               y="257.28247">Retour de l'action</tspan><tspan
               sodipodi:role="line"
               x="500.10016"
               y="272.90747"
               id="tspan4406">Résultat</tspan><tspan
               sodipodi:role="line"
               x="500.10016"
               y="288.53247"
               id="tspan4402">Temps d'exécution</tspan></text>
        </g>
      </g>
    </g>
    <g
       id="g6074">
      <path
         style="fill:#000000;fill-rule:evenodd;stroke:#000000;stroke-width:1;stroke-linecap:butt;stroke-linejoin:round;stroke-miterlimit:10;stroke-dasharray:none;marker-start:url(#marker5039)"
         inkscape:connector-curvature="0"
         id="path55"
         d="m 635.89194,527.7331 0.0556,-111.05338" />
      <g
         id="g6003">
        <path
           d="m 655.47504,465.39108 0,0 c 0,-6.20996 5.03418,-11.24411 11.24414,-11.24411 l 0,0 c 2.98212,0 5.8421,1.18466 7.95075,3.29334 2.1087,2.10867 3.29333,4.96865 3.29333,7.95077 l 0,0 c 0,6.20993 -5.03418,11.24408 -11.24408,11.24408 l 0,0 c -6.20996,0 -11.24414,-5.03415 -11.24414,-11.24408 z"
           id="path95"
           inkscape:connector-curvature="0"
           style="fill:#000000;fill-opacity:0;fill-rule:nonzero" />
        <path
           d="m 680.74551,455.92665 0,0 c 0,-6.08111 5.03865,-11.0108 11.25413,-11.0108 l 0,0 c 2.98477,0 5.84729,1.16008 7.95781,3.225 2.11057,2.06492 3.29626,4.86555 3.29626,7.7858 l 0,0 c 0,6.08107 -5.03866,11.01076 -11.25407,11.01076 l 0,0 c -6.21548,0 -11.25413,-4.92969 -11.25413,-11.01076 z"
           id="path97"
           inkscape:connector-curvature="0"
           style="fill-rule:nonzero;stroke:#000000;stroke-width:1.9800204;stroke-linecap:butt;stroke-linejoin:round" />
        <path
           d="m 695.61613,460.46882 0,1.33116 -7.58487,0 q -0.0156,-0.50492 0.17204,-0.96394 0.2815,-0.74975 0.92269,-1.48418 0.64119,-0.73444 1.84538,-1.69838 1.86104,-1.49948 2.51787,-2.37163 0.65683,-0.88745 0.65683,-1.66778 0,-0.81095 -0.59428,-1.37707 -0.59427,-0.56614 -1.56388,-0.56614 -1.01654,0 -1.62645,0.59674 -0.60992,0.59672 -0.60992,1.65248 l -1.45441,-0.13771 q 0.15639,-1.59128 1.126,-2.41752 0.96961,-0.82624 2.59605,-0.82624 1.65773,0 2.61169,0.90275 0.96961,0.88744 0.96961,2.20331 0,0.67323 -0.2815,1.33116 -0.2815,0.64264 -0.93833,1.36178 -0.65683,0.71913 -2.1738,1.97379 -1.26675,1.04046 -1.62644,1.42298 -0.3597,0.36722 -0.59428,0.73444 l 5.63,0 z"
           id="path101"
           inkscape:connector-curvature="0"
           style="fill:#000000;fill-rule:nonzero" />
        <text
           sodipodi:linespacing="125%"
           id="text4408"
           y="484.17404"
           x="698.60834"
           style="font-style:normal;font-weight:normal;font-size:12.5px;line-height:125%;font-family:sans-serif;text-align:center;letter-spacing:0px;word-spacing:0px;text-anchor:middle;fill:#000000;fill-opacity:1;stroke:none;stroke-width:1px;stroke-linecap:butt;stroke-linejoin:miter;stroke-opacity:1"
           xml:space="preserve"><tspan
             y="484.17404"
             x="698.60834"
             id="tspan4410"
             sodipodi:role="line">Rend la main</tspan><tspan
             id="tspan4412"
             y="499.79904"
             x="698.60834"
             sodipodi:role="line">pour que l'appel</tspan><tspan
             id="tspan4414"
             y="515.42407"
             x="698.60834"
             sodipodi:role="line">système s'exécute</tspan></text>
      </g>
    </g>
    <path
       d="m 138.12716,106.11889 33.62888,-12.31549 134.51544,0 0,61.57744 -168.14432,0 z"
       id="path29-7"
       inkscape:connector-curvature="0"
       style="fill:#000000;fill-opacity:0;fill-rule:nonzero" />
    <g
       id="g6367">
      <path
         style="fill:none;fill-rule:nonzero;stroke:#ffff00;stroke-width:2;stroke-linecap:butt;stroke-linejoin:round"
         inkscape:connector-curvature="0"
         id="path31-0"
         d="m 138.12716,106.11889 33.62888,-12.31549 134.51544,0 0,61.57744 -168.14432,0 z" />
      <path
         style="fill:#000000;fill-rule:nonzero"
         inkscape:connector-curvature="0"
         id="path33-6"
         d="m 190.14465,136.60986 -2.51563,0 -1,-2.60938 -4.57812,0 -0.95313,2.60938 -2.45312,0 4.46875,-11.45312 2.4375,0 4.59375,11.45312 z m -4.26563,-4.53125 -1.57812,-4.25 -1.54688,4.25 3.125,0 z m 5.41407,-3.76563 2.04687,0 0,1.21875 q 0.39063,-0.625 1.0625,-1.01562 0.6875,-0.39062 1.51563,-0.39062 1.45312,0 2.45312,1.14062 1.01563,1.125 1.01563,3.14062 0,2.07813 -1.01563,3.23438 -1.01562,1.15625 -2.46875,1.15625 -0.6875,0 -1.25,-0.26563 -0.54687,-0.28125 -1.17187,-0.95312 l 0,4.1875 -2.1875,0 0,-11.45313 z m 2.17187,4 q 0,1.40625 0.54688,2.07813 0.5625,0.65625 1.35937,0.65625 0.76563,0 1.26563,-0.60938 0.51562,-0.60937 0.51562,-2.01562 0,-1.29688 -0.53125,-1.92188 -0.51562,-0.64062 -1.29687,-0.64062 -0.79688,0 -1.32813,0.625 -0.53125,0.60937 -0.53125,1.82812 z m 7.60156,-4 2.04688,0 0,1.21875 q 0.39062,-0.625 1.0625,-1.01562 0.6875,-0.39062 1.51562,-0.39062 1.45313,0 2.45313,1.14062 1.01562,1.125 1.01562,3.14062 0,2.07813 -1.01562,3.23438 -1.01563,1.15625 -2.46875,1.15625 -0.6875,0 -1.25,-0.26563 -0.54688,-0.28125 -1.17188,-0.95312 l 0,4.1875 -2.1875,0 0,-11.45313 z m 2.17188,4 q 0,1.40625 0.54687,2.07813 0.5625,0.65625 1.35938,0.65625 0.76562,0 1.26562,-0.60938 0.51563,-0.60937 0.51563,-2.01562 0,-1.29688 -0.53125,-1.92188 -0.51563,-0.64062 -1.29688,-0.64062 -0.79687,0 -1.32812,0.625 -0.53125,0.60937 -0.53125,1.82812 z m 7.66406,4.29688 0,-11.45312 2.1875,0 0,11.45312 -2.1875,0 z m 4.44531,-9.42187 0,-2.03125 2.1875,0 0,2.03125 -2.1875,0 z m 0,9.42187 0,-8.29688 2.1875,0 0,8.29688 -2.1875,0 z m 11.67969,-5.84375 -2.17187,0.39062 q -0.10938,-0.65625 -0.5,-0.98437 -0.375,-0.32813 -1,-0.32813 -0.8125,0 -1.3125,0.57813 -0.48438,0.5625 -0.48438,1.89062 0,1.46875 0.5,2.07813 0.5,0.60937 1.32813,0.60937 0.625,0 1.01562,-0.34375 0.40625,-0.35937 0.57813,-1.23437 l 2.15625,0.375 q -0.34375,1.48437 -1.29688,2.25 -0.95312,0.75 -2.54687,0.75 -1.82813,0 -2.90625,-1.14063 -1.07813,-1.15625 -1.07813,-3.1875 0,-2.0625 1.07813,-3.20312 1.09375,-1.14062 2.9375,-1.14062 1.51562,0 2.40625,0.65624 0.90625,0.64063 1.29687,1.98438 z m 3.30469,0.0781 -2,-0.35937 q 0.34375,-1.20313 1.15625,-1.78125 0.82812,-0.57812 2.4375,-0.57812 1.46875,0 2.1875,0.34374 0.71875,0.34375 1.01562,0.89063 0.29688,0.53125 0.29688,1.95312 l -0.0312,2.5625 q 0,1.09375 0.10937,1.625 0.10938,0.51563 0.39063,1.10938 l -2.17188,0 q -0.0781,-0.21875 -0.20312,-0.65625 -0.0625,-0.1875 -0.0781,-0.25 -0.5625,0.54687 -1.20312,0.82812 -0.64063,0.26563 -1.375,0.26563 -1.28125,0 -2.01563,-0.6875 -0.73437,-0.70313 -0.73437,-1.76563 0,-0.70312 0.32812,-1.25 0.34375,-0.5625 0.9375,-0.84375 0.60938,-0.29687 1.75,-0.51562 1.54688,-0.29688 2.14063,-0.54688 l 0,-0.21875 q 0,-0.625 -0.3125,-0.89062 -0.3125,-0.28125 -1.1875,-0.28125 -0.57813,0 -0.90625,0.23437 -0.32813,0.23438 -0.53125,0.8125 z m 2.9375,1.78125 q -0.42188,0.14063 -1.34375,0.34375 -0.90625,0.1875 -1.1875,0.375 -0.4375,0.29688 -0.4375,0.76563 0,0.46875 0.34375,0.8125 0.34375,0.32812 0.875,0.32812 0.59375,0 1.14062,-0.39062 0.39063,-0.29688 0.51563,-0.73438 0.0937,-0.28125 0.0937,-1.0625 l 0,-0.4375 z m 8.11719,-4.3125 0,1.75 -1.5,0 0,3.34375 q 0,1.01563 0.0469,1.1875 0.0469,0.15625 0.1875,0.26563 0.15625,0.10937 0.375,0.10937 0.3125,0 0.89063,-0.20312 l 0.1875,1.70312 q -0.76563,0.32813 -1.73438,0.32813 -0.59375,0 -1.07812,-0.20313 -0.46875,-0.20312 -0.70313,-0.51562 -0.21875,-0.3125 -0.29687,-0.85938 -0.0781,-0.375 -0.0781,-1.54687 l 0,-3.60938 -1,0 0,-1.75 1,0 0,-1.65624 2.20313,-1.28125 0,2.93749 1.5,0 z m 1.53125,-1.12499 0,-2.03125 2.1875,0 0,2.03125 -2.1875,0 z m 0,9.42187 0,-8.29688 2.1875,0 0,8.29688 -2.1875,0 z m 3.92968,-4.26563 q 0,-1.09375 0.53125,-2.10937 0.54688,-1.03125 1.53125,-1.5625 1,-0.54687 2.21875,-0.54687 1.875,0 3.07813,1.21874 1.20312,1.21875 1.20312,3.09375 0,1.875 -1.21875,3.125 -1.20312,1.23438 -3.04687,1.23438 -1.14063,0 -2.1875,-0.51563 -1.03125,-0.51562 -1.57813,-1.51562 -0.53125,-1 -0.53125,-2.42188 z m 2.25,0.10938 q 0,1.23437 0.57813,1.89062 0.59375,0.65625 1.45312,0.65625 0.85938,0 1.4375,-0.65625 0.59375,-0.65625 0.59375,-1.90625 0,-1.21875 -0.59375,-1.875 -0.57812,-0.65625 -1.4375,-0.65625 -0.85937,0 -1.45312,0.65625 -0.57813,0.65625 -0.57813,1.89063 z m 15.58594,4.15625 -2.20312,0 0,-4.23438 q 0,-1.34375 -0.14063,-1.73437 -0.14062,-0.40625 -0.45312,-0.625 -0.3125,-0.21875 -0.76563,-0.21875 -0.5625,0 -1.01562,0.3125 -0.45313,0.3125 -0.625,0.82812 -0.17188,0.51563 -0.17188,1.90625 l 0,3.76563 -2.1875,0 0,-8.29688 2.03125,0 0,1.21875 q 1.09375,-1.40624 2.73438,-1.40624 0.73437,0 1.32812,0.26562 0.60938,0.25 0.90625,0.65625 0.3125,0.40625 0.4375,0.92187 0.125,0.51563 0.125,1.48438 l 0,5.15625 z" />
    </g>
    <g
       id="g6114">
      <path
         style="fill:#000000;fill-rule:evenodd;stroke:#000000;stroke-width:1;stroke-linecap:butt;stroke-linejoin:round;stroke-miterlimit:10;stroke-dasharray:none;marker-end:url(#marker5173)"
         inkscape:connector-curvature="0"
         id="path67"
         d="m 499.07925,399.18384 -185.89246,0" />
      <path
         style="fill:#000000;fill-rule:nonzero"
         inkscape:connector-curvature="0"
         id="path85"
         d="m 409.89456,339.318 1.46875,-0.125 q 0.17188,1.07812 0.76563,1.625 0.59375,0.53125 1.4375,0.53125 1.01562,0 1.71875,-0.76563 0.70312,-0.76562 0.70312,-2.03125 0,-1.20312 -0.67187,-1.89062 -0.67188,-0.70313 -1.76563,-0.70313 -0.6875,0 -1.23437,0.3125 -0.54688,0.3125 -0.85938,0.79688 l -1.3125,-0.17188 1.10938,-5.875 5.6875,0 0,1.34375 -4.5625,0 -0.625,3.07813 q 1.03125,-0.71875 2.17187,-0.71875 1.5,0 2.53125,1.04687 1.03125,1.03125 1.03125,2.65625 0,1.5625 -0.90625,2.6875 -1.10937,1.40625 -3.01562,1.40625 -1.5625,0 -2.54688,-0.875 -0.98437,-0.89062 -1.125,-2.32812 z" />
      <path
         style="fill:#000000;fill-rule:nonzero"
         inkscape:connector-curvature="0"
         id="path93"
         d="m 414.39456,427.318 0,-2.75 -4.96875,0 0,-1.28125 5.23438,-7.42188 1.14062,0 0,7.42188 1.54688,0 0,1.28125 -1.54688,0 0,2.75 -1.40625,0 z m 0,-4.03125 0,-5.17188 -3.57812,5.17188 3.57812,0 z" />
      <text
         xml:space="preserve"
         style="font-style:normal;font-weight:normal;font-size:15px;line-height:125%;font-family:sans-serif;text-align:center;letter-spacing:0px;word-spacing:0px;text-anchor:middle;fill:#000000;fill-opacity:1;stroke:none;stroke-width:1px;stroke-linecap:butt;stroke-linejoin:miter;stroke-opacity:1"
         x="408.81357"
         y="376.77966"
         id="text4350"
         sodipodi:linespacing="125%"><tspan
           sodipodi:role="line"
           x="410.80331"
           y="376.77966"
           id="tspan4354"
           style="font-size:12.5px">Calcul du temps d'exécution </tspan><tspan
           sodipodi:role="line"
           x="408.81357"
           y="392.40466"
           style="font-size:12.5px"
           id="tspan4358">sur la machine simulée</tspan></text>
      <path
         style="fill:#000000;fill-rule:evenodd;stroke:#000000;stroke-width:1;stroke-linecap:butt;stroke-linejoin:round;stroke-miterlimit:10;stroke-dasharray:none;marker-start:url(#marker5397)"
         inkscape:connector-curvature="0"
         id="path67-2"
         d="m 501.53938,356.49918 -190.16518,0" />
    </g>
    <g
       id="g6139">
      <path
         style="fill:#000000;fill-opacity:1;fill-rule:evenodd;stroke:#000000;stroke-width:1px;stroke-linecap:butt;stroke-linejoin:miter;stroke-opacity:1;marker-end:url(#Arrow1Lend)"
         d="m 215.72749,318.74686 c 0,-54.29142 0,-108.58284 0,-162.87426"
         id="path4459"
         inkscape:connector-curvature="0" />
      <g
         id="g6123">
        <g
           transform="translate(-62.538686,-12.94365)"
           id="g5972">
          <path
             style="fill:#000000;fill-opacity:0;fill-rule:nonzero"
             inkscape:connector-curvature="0"
             id="path79-0"
             d="m 181.83201,244.3209 0,0 c 0,-6.20996 5.03415,-11.24411 11.24408,-11.24411 l 0,0 c 2.98212,0 5.8421,1.18466 7.95077,3.29334 2.10868,2.10867 3.29334,4.96865 3.29334,7.95077 l 0,0 c 0,6.20993 -5.03415,11.24408 -11.24411,11.24408 l 0,0 c -6.20993,0 -11.24408,-5.03415 -11.24408,-11.24408 z" />
          <path
             style="fill-rule:nonzero;stroke:#000000;stroke-width:2;stroke-linecap:butt;stroke-linejoin:round"
             inkscape:connector-curvature="0"
             id="path81-1"
             d="m 181.83201,244.3209 0,0 c 0,-6.20996 5.03415,-11.24411 11.24408,-11.24411 l 0,0 c 2.98212,0 5.8421,1.18466 7.95077,3.29334 2.10868,2.10867 3.29334,4.96865 3.29334,7.95077 l 0,0 c 0,6.20993 -5.03415,11.24408 -11.24411,11.24408 l 0,0 c -6.20993,0 -11.24408,-5.03415 -11.24408,-11.24408 z" />
          <path
             style="fill:#000000;fill-rule:nonzero"
             inkscape:connector-curvature="0"
             id="path85-5"
             d="m 189.29874,247.31868 1.46875,-0.125 q 0.17188,1.07812 0.76563,1.625 0.59375,0.53125 1.4375,0.53125 1.01562,0 1.71875,-0.76563 0.70312,-0.76562 0.70312,-2.03125 0,-1.20312 -0.67187,-1.89062 -0.67188,-0.70313 -1.76563,-0.70313 -0.6875,0 -1.23437,0.3125 -0.54688,0.3125 -0.85938,0.79688 l -1.3125,-0.17188 1.10938,-5.875 5.6875,0 0,1.34375 -4.5625,0 -0.625,3.07813 q 1.03125,-0.71875 2.17187,-0.71875 1.5,0 2.53125,1.04687 1.03125,1.03125 1.03125,2.65625 0,1.5625 -0.90625,2.6875 -1.10937,1.40625 -3.01562,1.40625 -1.5625,0 -2.54688,-0.875 -0.98437,-0.89062 -1.125,-2.32812 z" />
        </g>
        <text
           sodipodi:linespacing="125%"
           id="text5964"
           y="260.50046"
           x="125.52691"
           style="font-style:normal;font-weight:normal;font-size:12.5px;line-height:125%;font-family:sans-serif;text-align:center;letter-spacing:0px;word-spacing:0px;text-anchor:middle;fill:#000000;fill-opacity:1;stroke:none;stroke-width:1px;stroke-linecap:butt;stroke-linejoin:miter;stroke-opacity:1"
           xml:space="preserve"><tspan
             y="260.50046"
             x="125.52691"
             id="tspan5966"
             sodipodi:role="line">Si l'action demandée est</tspan><tspan
             id="tspan5970"
             y="276.12546"
             x="125.52691"
             sodipodi:role="line">une communication réseau</tspan><tspan
             id="tspan5968"
             y="291.75046"
             x="125.52691"
             sodipodi:role="line">on notifie le destnataire</tspan></text>
      </g>
    </g>
  </g>
</svg>
