<?xml version="1.0" encoding="UTF-8" standalone="no"?>
<svg
   xmlns:dc="http://purl.org/dc/elements/1.1/"
   xmlns:cc="http://creativecommons.org/ns#"
   xmlns:rdf="http://www.w3.org/1999/02/22-rdf-syntax-ns#"
   xmlns:svg="http://www.w3.org/2000/svg"
   xmlns="http://www.w3.org/2000/svg"
   xmlns:sodipodi="http://sodipodi.sourceforge.net/DTD/sodipodi-0.dtd"
   xmlns:inkscape="http://www.inkscape.org/namespaces/inkscape"
   version="1.1"
   viewBox="0.0 0.0 960.0 720.0"
   fill="none"
   stroke="none"
   stroke-linecap="square"
   stroke-miterlimit="10"
   id="svg109"
   inkscape:version="0.91 r13725"
   sodipodi:docname="Virtualisation_limitation.svg">
  <metadata
     id="metadata178">
    <rdf:RDF>
      <cc:Work
         rdf:about="">
        <dc:format>image/svg+xml</dc:format>
        <dc:type
           rdf:resource="http://purl.org/dc/dcmitype/StillImage" />
      </cc:Work>
    </rdf:RDF>
  </metadata>
  <defs
     id="defs176" />
  <sodipodi:namedview
     pagecolor="#ffffff"
     bordercolor="#666666"
     borderopacity="1"
     objecttolerance="10"
     gridtolerance="10"
     guidetolerance="10"
     inkscape:pageopacity="0"
     inkscape:pageshadow="2"
     inkscape:window-width="1600"
     inkscape:window-height="844"
     id="namedview174"
     showgrid="false"
     inkscape:zoom="0.92709556"
     inkscape:cx="238.38521"
     inkscape:cy="360"
     inkscape:window-x="0"
     inkscape:window-y="0"
     inkscape:window-maximized="1"
     inkscape:current-layer="svg109" />
  <clipPath
     id="p.0">
    <path
       d="m0 0l960.0 0l0 720.0l-960.0 0l0 -720.0z"
       clip-rule="nonzero"
       id="path112" />
  </clipPath>
  <path
     style="fill:#000000;fill-opacity:0;fill-rule:nonzero"
     inkscape:connector-curvature="0"
     id="path116"
     d="m 0,0 960,0 0,720 -960,0 z" />
  <path
     style="fill-rule:nonzero;stroke:#ffff00;stroke-width:2;stroke-linecap:butt;stroke-linejoin:round"
     inkscape:connector-curvature="0"
     id="path138"
     d="m 346.4252,163.78793 21.54645,-8.05302 86.18582,0 0,40.26509 -107.73227,0 z" />
  <g
     id="g3666"
     inkscape:export-filename="/home/cross-l/Informatique/SIMGRID/doc/Pictures/png/Virtualisation_limitation.png"
     inkscape:export-xdpi="90"
     inkscape:export-ydpi="90">
    <path
       d="m 290.16534,554.99774 0,0 c 0,-10.24573 8.30582,-18.55157 18.55158,-18.55157 l 183.14886,0 c 4.92016,0 9.63882,1.95458 13.11792,5.43365 3.47909,3.47907 5.43362,8.19775 5.43362,13.11792 l 0,74.20398 c 0,10.24573 -8.30582,18.55158 -18.55154,18.55158 l -183.14886,0 c -10.24576,0 -18.55158,-8.30585 -18.55158,-18.55158 z"
       id="path118"
       inkscape:connector-curvature="0"
       style="fill:#f9cb9c;fill-rule:nonzero" />
    <path
       d="m 290.16534,554.99774 0,0 c 0,-10.24573 8.30582,-18.55157 18.55158,-18.55157 l 183.14886,0 c 4.92016,0 9.63882,1.95458 13.11792,5.43365 3.47909,3.47907 5.43362,8.19775 5.43362,13.11792 l 0,74.20398 c 0,10.24573 -8.30582,18.55158 -18.55154,18.55158 l -183.14886,0 c -10.24576,0 -18.55158,-8.30585 -18.55158,-18.55158 z"
       id="path120"
       inkscape:connector-curvature="0"
       style="fill-rule:nonzero;stroke:#ff9900;stroke-width:2;stroke-linecap:butt;stroke-linejoin:round" />
    <path
       d="m 377.02963,597.9597 0,-11.45313 2.25,0 4.6875,7.64063 0,-7.64063 2.15625,0 0,11.45313 -2.32813,0 -4.60937,-7.46875 0,7.46875 -2.15625,0 z m 11.00781,-4.26563 q 0,-1.09375 0.53125,-2.10937 0.54688,-1.03125 1.53125,-1.5625 1,-0.54688 2.21875,-0.54688 1.875,0 3.07813,1.21875 1.20312,1.21875 1.20312,3.09375 0,1.875 -1.21875,3.125 -1.20312,1.23438 -3.04687,1.23438 -1.14063,0 -2.1875,-0.51563 -1.03125,-0.51562 -1.57813,-1.51562 -0.53125,-1 -0.53125,-2.42188 z m 2.25,0.10938 q 0,1.23437 0.57813,1.89062 0.59375,0.65625 1.45312,0.65625 0.85938,0 1.4375,-0.65625 0.59375,-0.65625 0.59375,-1.90625 0,-1.21875 -0.59375,-1.875 -0.57812,-0.65625 -1.4375,-0.65625 -0.85937,0 -1.45312,0.65625 -0.57813,0.65625 -0.57813,1.89063 z m 6.99219,-4.14063 2.34375,0 1.98437,5.89063 1.9375,-5.89063 2.26563,0 -2.92188,7.98438 -0.53125,1.45312 q -0.28125,0.71875 -0.54687,1.09375 -0.26563,0.39063 -0.60938,0.625 -0.32812,0.25 -0.82812,0.375 -0.5,0.14063 -1.125,0.14063 -0.625,0 -1.23438,-0.14063 l -0.20312,-1.71875 q 0.51562,0.10938 0.9375,0.10938 0.76562,0 1.125,-0.45313 0.375,-0.45312 0.5625,-1.14062 l -3.15625,-8.32813 z m 11.58594,2.53125 -2,-0.35937 q 0.34375,-1.20313 1.15625,-1.78125 0.82812,-0.57813 2.4375,-0.57813 1.46875,0 2.1875,0.34375 0.71875,0.34375 1.01562,0.89063 0.29688,0.53125 0.29688,1.95312 l -0.0312,2.5625 q 0,1.09375 0.10937,1.625 0.10938,0.51563 0.39063,1.10938 l -2.17188,0 q -0.0781,-0.21875 -0.20312,-0.65625 -0.0625,-0.1875 -0.0781,-0.25 -0.5625,0.54687 -1.20312,0.82812 -0.64063,0.26563 -1.375,0.26563 -1.28125,0 -2.01563,-0.6875 -0.73437,-0.70313 -0.73437,-1.76563 0,-0.70312 0.32812,-1.25 0.34375,-0.5625 0.9375,-0.84375 0.60938,-0.29687 1.75,-0.51562 1.54688,-0.29688 2.14063,-0.54688 l 0,-0.21875 q 0,-0.625 -0.3125,-0.89062 -0.3125,-0.28125 -1.1875,-0.28125 -0.57813,0 -0.90625,0.23437 -0.32813,0.23438 -0.53125,0.8125 z m 2.9375,1.78125 q -0.42188,0.14063 -1.34375,0.34375 -0.90625,0.1875 -1.1875,0.375 -0.4375,0.29688 -0.4375,0.76563 0,0.46875 0.34375,0.8125 0.34375,0.32812 0.875,0.32812 0.59375,0 1.14062,-0.39062 0.39063,-0.29688 0.51563,-0.73438 0.0937,-0.28125 0.0937,-1.0625 l 0,-0.4375 z m 9.77343,3.98438 0,-1.25 q -0.45312,0.67187 -1.1875,1.0625 -0.73437,0.375 -1.5625,0.375 -0.82812,0 -1.5,-0.35938 -0.65625,-0.375 -0.95312,-1.03125 -0.29688,-0.67187 -0.29688,-1.84375 l 0,-5.25 2.1875,0 0,3.8125 q 0,1.75 0.125,2.14063 0.125,0.39062 0.4375,0.625 0.32813,0.23437 0.8125,0.23437 0.5625,0 1,-0.3125 0.45313,-0.3125 0.60938,-0.76562 0.17187,-0.45313 0.17187,-2.23438 l 0,-3.5 2.2031,0 0,8.29688 -2.04685,0 z"
       id="path122"
       inkscape:connector-curvature="0"
       style="fill:#000000;fill-rule:nonzero" />
    <path
       d="m 290.16534,390.7848 220.25198,0 0,71.05512 -220.25198,0 z"
       id="path124"
       inkscape:connector-curvature="0"
       style="fill:#f4cccc;fill-rule:nonzero" />
    <path
       d="m 290.16534,390.7848 220.25198,0 0,71.05512 -220.25198,0 z"
       id="path126"
       inkscape:connector-curvature="0"
       style="fill-rule:nonzero;stroke:#ff0000;stroke-width:2;stroke-linecap:butt;stroke-linejoin:round" />
    <path
       d="m 362.34213,432.17233 0,-11.45313 8.48437,0 0,1.9375 -6.17187,0 0,2.53125 5.75,0 0,1.9375 -5.75,0 0,3.10938 6.39062,0 0,1.9375 -8.70312,0 z m 10.48437,-8.29688 2.03125,0 0,1.125 q 1.07813,-1.3125 2.57813,-1.3125 0.79687,0 1.375,0.32813 0.59375,0.32812 0.96875,0.98437 0.54687,-0.65625 1.17187,-0.98437 0.64063,-0.32813 1.35938,-0.32813 0.92187,0 1.54687,0.375 0.64063,0.35938 0.95313,1.07813 0.21875,0.53125 0.21875,1.71875 l 0,5.3125 -2.1875,0 0,-4.75 q 0,-1.23438 -0.23438,-1.59375 -0.29687,-0.46875 -0.9375,-0.46875 -0.45312,0 -0.85937,0.28125 -0.40625,0.28125 -0.59375,0.82812 -0.17188,0.54688 -0.17188,1.71875 l 0,3.98438 -2.20312,0 0,-4.54688 q 0,-1.21875 -0.125,-1.5625 -0.10938,-0.35937 -0.35938,-0.53125 -0.23437,-0.17187 -0.65625,-0.17187 -0.51562,0 -0.92187,0.28125 -0.40625,0.26562 -0.57813,0.78125 -0.17187,0.51562 -0.17187,1.71875 l 0,4.03125 -2.20313,0 0,-8.29688 z m 19.85157,8.29688 0,-1.25 q -0.45313,0.67187 -1.1875,1.0625 -0.73438,0.375 -1.5625,0.375 -0.82813,0 -1.5,-0.35938 -0.65625,-0.375 -0.95313,-1.03125 -0.29687,-0.67187 -0.29687,-1.84375 l 0,-5.25 2.1875,0 0,3.8125 q 0,1.75 0.125,2.14063 0.125,0.39062 0.4375,0.625 0.32812,0.23437 0.8125,0.23437 0.5625,0 1,-0.3125 0.45312,-0.3125 0.60937,-0.76562 0.17188,-0.45313 0.17188,-2.23438 l 0,-3.5 2.20312,0 0,8.29688 -2.04687,0 z m 4.32031,0 0,-11.45313 2.1875,0 0,11.45313 -2.1875,0 z m 6.08594,-5.76563 -2,-0.35937 q 0.34375,-1.20313 1.15625,-1.78125 0.82812,-0.57813 2.4375,-0.57813 1.46875,0 2.1875,0.34375 0.71875,0.34375 1.01562,0.89063 0.29688,0.53125 0.29688,1.95312 l -0.0312,2.5625 q 0,1.09375 0.10937,1.625 0.10938,0.51563 0.39063,1.10938 l -2.17188,0 q -0.0781,-0.21875 -0.20312,-0.65625 -0.0625,-0.1875 -0.0781,-0.25 -0.5625,0.54687 -1.20312,0.82812 -0.64063,0.26563 -1.375,0.26563 -1.28125,0 -2.01563,-0.6875 -0.73437,-0.70313 -0.73437,-1.76563 0,-0.70312 0.32812,-1.25 0.34375,-0.5625 0.9375,-0.84375 0.60938,-0.29687 1.75,-0.51562 1.54688,-0.29688 2.14063,-0.54688 l 0,-0.21875 q 0,-0.625 -0.3125,-0.89062 -0.3125,-0.28125 -1.1875,-0.28125 -0.57813,0 -0.90625,0.23437 -0.32813,0.23438 -0.53125,0.8125 z m 2.9375,1.78125 q -0.42188,0.14063 -1.34375,0.34375 -0.90625,0.1875 -1.1875,0.375 -0.4375,0.29688 -0.4375,0.76563 0,0.46875 0.34375,0.8125 0.34375,0.32812 0.875,0.32812 0.59375,0 1.14062,-0.39062 0.39063,-0.29688 0.51563,-0.73438 0.0937,-0.28125 0.0937,-1.0625 l 0,-0.4375 z m 8.11718,-4.3125 0,1.75 -1.5,0 0,3.34375 q 0,1.01563 0.0469,1.1875 0.0469,0.15625 0.1875,0.26563 0.15625,0.10937 0.375,0.10937 0.3125,0 0.89062,-0.20312 l 0.1875,1.70312 q -0.76562,0.32813 -1.73437,0.32813 -0.59375,0 -1.07813,-0.20313 -0.46875,-0.20312 -0.70312,-0.51562 -0.21875,-0.3125 -0.29688,-0.85938 -0.0781,-0.375 -0.0781,-1.54687 l 0,-3.60938 -1,0 0,-1.75 1,0 0,-1.65625 2.20312,-1.28125 0,2.9375 1.5,0 z m 6.3281,5.65625 2.1875,0.35938 q -0.42188,1.20312 -1.32813,1.84375 -0.90625,0.625 -2.28125,0.625 -2.15622,0 -3.20309,-1.42188 -0.8125,-1.125 -0.8125,-2.85937 0,-2.0625 1.07812,-3.21875 1.07813,-1.17188 2.71872,-1.17188 1.85938,0 2.92188,1.21875 1.07812,1.21875 1.03125,3.75 l -5.49997,0 q 0.0156,0.96875 0.51562,1.51563 0.5156,0.54687 1.28122,0.54687 0.51563,0 0.85938,-0.28125 0.35937,-0.28125 0.53125,-0.90625 z m 0.125,-2.21875 q -0.0156,-0.95312 -0.48438,-1.45312 -0.46875,-0.5 -1.14062,-0.5 -0.71875,0 -1.18747,0.53125 -0.46875,0.51562 -0.46875,1.42187 l 3.28122,0 z m 9.42969,4.85938 0,-1.25 q -0.45313,0.67187 -1.1875,1.0625 -0.73438,0.375 -1.5625,0.375 -0.82813,0 -1.5,-0.35938 -0.65625,-0.375 -0.95313,-1.03125 -0.29687,-0.67187 -0.29687,-1.84375 l 0,-5.25 2.1875,0 0,3.8125 q 0,1.75 0.125,2.14063 0.125,0.39062 0.4375,0.625 0.32812,0.23437 0.8125,0.23437 0.5625,0 1,-0.3125 0.45312,-0.3125 0.60937,-0.76562 0.17188,-0.45313 0.17188,-2.23438 l 0,-3.5 2.20312,0 0,8.29688 -2.04687,0 z m 6.41406,0 -2.1875,0 0,-8.29688 2.03125,0 0,1.17188 q 0.53125,-0.82813 0.9375,-1.09375 0.42187,-0.26563 0.95312,-0.26563 0.75,0 1.45313,0.40625 l -0.6875,1.92188 q -0.54688,-0.35938 -1.03125,-0.35938 -0.45313,0 -0.78125,0.25 -0.3125,0.25 -0.5,0.92188 -0.1875,0.65625 -0.1875,2.78125 l 0,2.5625 z"
       id="path128"
       inkscape:connector-curvature="0"
       style="fill:#000000;fill-rule:nonzero" />
    <path
       d="m 258.1916,242.52547 21.54648,-8.05302 86.18582,0 0,40.26507 -107.7323,0 z"
       id="path130"
       inkscape:connector-curvature="0"
       style="fill:#000000;fill-opacity:0;fill-rule:nonzero" />
    <path
       d="m 258.1916,242.52547 21.54648,-8.05302 86.18582,0 0,40.26507 -107.7323,0 z"
       id="path132"
       inkscape:connector-curvature="0"
       style="fill-rule:nonzero;stroke:#ffff00;stroke-width:2;stroke-linecap:butt;stroke-linejoin:round" />
    <path
       d="m 280.00305,264.4915 -2.51563,0 -1,-2.60938 -4.57812,0 -0.95313,2.60938 -2.45312,0 4.46875,-11.45311 2.4375,0 4.59375,11.45311 z m -4.26563,-4.53125 -1.57812,-4.24998 -1.54688,4.24998 3.125,0 z m 5.41407,-3.76563 2.04687,0 0,1.21875 q 0.39063,-0.625 1.0625,-1.01562 0.6875,-0.39063 1.51563,-0.39063 1.45312,0 2.45312,1.14063 1.01563,1.125 1.01563,3.14062 0,2.07813 -1.01563,3.23438 -1.01562,1.15625 -2.46875,1.15625 -0.6875,0 -1.25,-0.26563 -0.54687,-0.28125 -1.17187,-0.95312 l 0,4.1875 -2.1875,0 0,-11.45313 z m 2.17187,4 q 0,1.40625 0.54688,2.07813 0.5625,0.65625 1.35937,0.65625 0.76563,0 1.26563,-0.60938 0.51562,-0.60937 0.51562,-2.01562 0,-1.29688 -0.53125,-1.92188 -0.51562,-0.64062 -1.29687,-0.64062 -0.79688,0 -1.32813,0.625 -0.53125,0.60937 -0.53125,1.82812 z m 7.60156,-4 2.04688,0 0,1.21875 q 0.39062,-0.625 1.0625,-1.01562 0.6875,-0.39063 1.51562,-0.39063 1.45313,0 2.45313,1.14063 1.01562,1.125 1.01562,3.14062 0,2.07813 -1.01562,3.23438 -1.01563,1.15625 -2.46875,1.15625 -0.6875,0 -1.25,-0.26563 -0.54688,-0.28125 -1.17188,-0.95312 l 0,4.1875 -2.1875,0 0,-11.45313 z m 2.17188,4 q 0,1.40625 0.54687,2.07813 0.5625,0.65625 1.35938,0.65625 0.76562,0 1.26562,-0.60938 0.51563,-0.60937 0.51563,-2.01562 0,-1.29688 -0.53125,-1.92188 -0.51563,-0.64062 -1.29688,-0.64062 -0.79687,0 -1.32812,0.625 -0.53125,0.60937 -0.53125,1.82812 z m 7.66406,4.29688 0,-11.45311 2.1875,0 0,11.45311 -2.1875,0 z m 4.44531,-9.42186 0,-2.03125 2.1875,0 0,2.03125 -2.1875,0 z m 0,9.42186 0,-8.29688 2.1875,0 0,8.29688 -2.1875,0 z m 11.67969,-5.84375 -2.17187,0.39062 q -0.10938,-0.65625 -0.5,-0.98437 -0.375,-0.32813 -1,-0.32813 -0.8125,0 -1.3125,0.57813 -0.48438,0.5625 -0.48438,1.89062 0,1.46875 0.5,2.07813 0.5,0.60937 1.32813,0.60937 0.625,0 1.01562,-0.34375 0.40625,-0.35937 0.57813,-1.23437 l 2.15625,0.375 q -0.34375,1.48437 -1.29688,2.25 -0.95312,0.75 -2.54687,0.75 -1.82813,0 -2.90625,-1.14063 -1.07813,-1.15625 -1.07813,-3.1875 0,-2.0625 1.07813,-3.20312 1.09375,-1.14063 2.9375,-1.14063 1.51562,0 2.40625,0.65625 0.90625,0.64063 1.29687,1.98438 z m 3.30469,0.0781 -2,-0.35937 q 0.34375,-1.20313 1.15625,-1.78125 0.82812,-0.57813 2.4375,-0.57813 1.46875,0 2.1875,0.34375 0.71875,0.34375 1.01562,0.89063 0.29688,0.53125 0.29688,1.95312 l -0.0312,2.5625 q 0,1.09375 0.10937,1.625 0.10938,0.51563 0.39063,1.10938 l -2.17188,0 q -0.0781,-0.21875 -0.20312,-0.65625 -0.0625,-0.1875 -0.0781,-0.25 -0.5625,0.54687 -1.20312,0.82812 -0.64063,0.26563 -1.375,0.26563 -1.28125,0 -2.01563,-0.6875 -0.73437,-0.70313 -0.73437,-1.76563 0,-0.70312 0.32812,-1.25 0.34375,-0.5625 0.9375,-0.84375 0.60938,-0.29687 1.75,-0.51562 1.54688,-0.29688 2.14063,-0.54688 l 0,-0.21875 q 0,-0.625 -0.3125,-0.89062 -0.3125,-0.28125 -1.1875,-0.28125 -0.57813,0 -0.90625,0.23437 -0.32813,0.23438 -0.53125,0.8125 z m 2.9375,1.78125 q -0.42188,0.14063 -1.34375,0.34375 -0.90625,0.1875 -1.1875,0.375 -0.4375,0.29688 -0.4375,0.76563 0,0.46875 0.34375,0.8125 0.34375,0.32812 0.875,0.32812 0.59375,0 1.14062,-0.39062 0.39063,-0.29688 0.51563,-0.73438 0.0937,-0.28125 0.0937,-1.0625 l 0,-0.4375 z m 8.11719,-4.3125 0,1.75 -1.5,0 0,3.34375 q 0,1.01563 0.0469,1.1875 0.0469,0.15625 0.1875,0.26563 0.15625,0.10937 0.375,0.10937 0.3125,0 0.89063,-0.20312 l 0.1875,1.70312 q -0.76563,0.32813 -1.73438,0.32813 -0.59375,0 -1.07812,-0.20313 -0.46875,-0.20312 -0.70313,-0.51562 -0.21875,-0.3125 -0.29687,-0.85938 -0.0781,-0.375 -0.0781,-1.54687 l 0,-3.60938 -1,0 0,-1.75 1,0 0,-1.65623 2.20313,-1.28125 0,2.93748 1.5,0 z m 1.53125,-1.12498 0,-2.03125 2.1875,0 0,2.03125 -2.1875,0 z m 0,9.42186 0,-8.29687 2.1875,0 0,8.29687 -2.1875,0 z m 3.92968,-4.26562 q 0,-1.09375 0.53125,-2.10938 0.54688,-1.03125 1.53125,-1.5625 1,-0.54687 2.21875,-0.54687 1.875,0 3.07813,1.21875 1.20312,1.21875 1.20312,3.09375 0,1.875 -1.21875,3.125 -1.20312,1.23437 -3.04687,1.23437 -1.14063,0 -2.1875,-0.51562 -1.03125,-0.51563 -1.57813,-1.51563 -0.53125,-1 -0.53125,-2.42187 z m 2.25,0.10937 q 0,1.23438 0.57813,1.89063 0.59375,0.65625 1.45312,0.65625 0.85938,0 1.4375,-0.65625 0.59375,-0.65625 0.59375,-1.90625 0,-1.21875 -0.59375,-1.875 -0.57812,-0.65625 -1.4375,-0.65625 -0.85937,0 -1.45312,0.65625 -0.57813,0.65625 -0.57813,1.89062 z m 15.58594,4.15625 -2.20312,0 0,-4.23437 q 0,-1.34375 -0.14063,-1.73438 -0.14062,-0.40625 -0.45312,-0.625 -0.3125,-0.21875 -0.76563,-0.21875 -0.5625,0 -1.01562,0.3125 -0.45313,0.3125 -0.625,0.82813 -0.17188,0.51562 -0.17188,1.90625 l 0,3.76562 -2.1875,0 0,-8.29687 2.03125,0 0,1.21875 q 1.09375,-1.40625 2.73438,-1.40625 0.73437,0 1.32812,0.26562 0.60938,0.25 0.90625,0.65625 0.3125,0.40625 0.4375,0.92188 0.125,0.51562 0.125,1.48437 l 0,5.15625 z"
       id="path134"
       inkscape:connector-curvature="0"
       style="fill:#000000;fill-rule:nonzero" />
    <path
       d="m 346.4252,163.78793 21.54645,-8.05302 86.18582,0 0,40.26509 -107.73227,0 z"
       id="path136"
       inkscape:connector-curvature="0"
       style="fill:#000000;fill-opacity:0;fill-rule:nonzero" />
    <path
       d="m 368.23666,185.75397 -2.51563,0 -1,-2.60938 -4.57812,0 -0.95313,2.60938 -2.45312,0 4.46875,-11.45313 2.4375,0 4.59375,11.45313 z m -4.26563,-4.53125 -1.57812,-4.25 -1.54688,4.25 3.125,0 z m 5.41407,-3.76563 2.04687,0 0,1.21875 q 0.39063,-0.625 1.0625,-1.01562 0.6875,-0.39063 1.51563,-0.39063 1.45312,0 2.45312,1.14063 1.01563,1.125 1.01563,3.14062 0,2.07813 -1.01563,3.23438 -1.01562,1.15625 -2.46875,1.15625 -0.6875,0 -1.25,-0.26563 -0.54687,-0.28125 -1.17187,-0.95312 l 0,4.1875 -2.1875,0 0,-11.45313 z m 2.17187,4 q 0,1.40625 0.54688,2.07813 0.5625,0.65625 1.35937,0.65625 0.76563,0 1.26563,-0.60938 0.51562,-0.60937 0.51562,-2.01562 0,-1.29688 -0.53125,-1.92188 -0.51562,-0.64062 -1.29687,-0.64062 -0.79688,0 -1.32813,0.625 -0.53125,0.60937 -0.53125,1.82812 z m 7.60156,-4 2.04688,0 0,1.21875 q 0.39062,-0.625 1.0625,-1.01562 0.6875,-0.39063 1.51562,-0.39063 1.45313,0 2.45313,1.14063 1.01562,1.125 1.01562,3.14062 0,2.07813 -1.01562,3.23438 -1.01563,1.15625 -2.46875,1.15625 -0.6875,0 -1.25,-0.26563 -0.54688,-0.28125 -1.17188,-0.95312 l 0,4.1875 -2.1875,0 0,-11.45313 z m 2.17188,4 q 0,1.40625 0.54687,2.07813 0.5625,0.65625 1.35938,0.65625 0.76562,0 1.26562,-0.60938 0.51563,-0.60937 0.51563,-2.01562 0,-1.29688 -0.53125,-1.92188 -0.51563,-0.64062 -1.29688,-0.64062 -0.79687,0 -1.32812,0.625 -0.53125,0.60937 -0.53125,1.82812 z m 7.66406,4.29688 0,-11.45313 2.1875,0 0,11.45313 -2.1875,0 z m 4.44531,-9.42188 0,-2.03125 2.1875,0 0,2.03125 -2.1875,0 z m 0,9.42188 0,-8.29688 2.1875,0 0,8.29688 -2.1875,0 z m 11.67969,-5.84375 -2.17187,0.39062 q -0.10938,-0.65625 -0.5,-0.98437 -0.375,-0.32813 -1,-0.32813 -0.8125,0 -1.3125,0.57813 -0.48438,0.5625 -0.48438,1.89062 0,1.46875 0.5,2.07813 0.5,0.60937 1.32813,0.60937 0.625,0 1.01562,-0.34375 0.40625,-0.35937 0.57813,-1.23437 l 2.15625,0.375 q -0.34375,1.48437 -1.29688,2.25 -0.95312,0.75 -2.54687,0.75 -1.82813,0 -2.90625,-1.14063 -1.07813,-1.15625 -1.07813,-3.1875 0,-2.0625 1.07813,-3.20312 1.09375,-1.14063 2.9375,-1.14063 1.51562,0 2.40625,0.65625 0.90625,0.64063 1.29687,1.98438 z m 3.30469,0.0781 -2,-0.35937 q 0.34375,-1.20313 1.15625,-1.78125 0.82812,-0.57813 2.4375,-0.57813 1.46875,0 2.1875,0.34375 0.71875,0.34375 1.01562,0.89063 0.29688,0.53125 0.29688,1.95312 l -0.0312,2.5625 q 0,1.09375 0.10937,1.625 0.10938,0.51563 0.39063,1.10938 l -2.17188,0 q -0.0781,-0.21875 -0.20312,-0.65625 -0.0625,-0.1875 -0.0781,-0.25 -0.5625,0.54687 -1.20312,0.82812 -0.64063,0.26563 -1.375,0.26563 -1.28125,0 -2.01563,-0.6875 -0.73437,-0.70313 -0.73437,-1.76563 0,-0.70312 0.32812,-1.25 0.34375,-0.5625 0.9375,-0.84375 0.60938,-0.29687 1.75,-0.51562 1.54688,-0.29688 2.14063,-0.54688 l 0,-0.21875 q 0,-0.625 -0.3125,-0.89062 -0.3125,-0.28125 -1.1875,-0.28125 -0.57813,0 -0.90625,0.23437 -0.32813,0.23438 -0.53125,0.8125 z m 2.9375,1.78125 q -0.42188,0.14063 -1.34375,0.34375 -0.90625,0.1875 -1.1875,0.375 -0.4375,0.29688 -0.4375,0.76563 0,0.46875 0.34375,0.8125 0.34375,0.32812 0.875,0.32812 0.59375,0 1.14062,-0.39062 0.39063,-0.29688 0.51563,-0.73438 0.0937,-0.28125 0.0937,-1.0625 l 0,-0.4375 z m 8.11719,-4.3125 0,1.75 -1.5,0 0,3.34375 q 0,1.01563 0.0469,1.1875 0.0469,0.15625 0.1875,0.26563 0.15625,0.10937 0.375,0.10937 0.3125,0 0.89063,-0.20312 l 0.1875,1.70312 q -0.76563,0.32813 -1.73438,0.32813 -0.59375,0 -1.07812,-0.20313 -0.46875,-0.20312 -0.70313,-0.51562 -0.21875,-0.3125 -0.29687,-0.85938 -0.0781,-0.375 -0.0781,-1.54687 l 0,-3.60938 -1,0 0,-1.75 1,0 0,-1.65625 2.20313,-1.28125 0,2.9375 1.5,0 z m 1.53125,-1.125 0,-2.03125 2.1875,0 0,2.03125 -2.1875,0 z m 0,9.42188 0,-8.29688 2.1875,0 0,8.29688 -2.1875,0 z m 3.92968,-4.26563 q 0,-1.09375 0.53125,-2.10937 0.54688,-1.03125 1.53125,-1.5625 1,-0.54688 2.21875,-0.54688 1.875,0 3.07813,1.21875 1.20312,1.21875 1.20312,3.09375 0,1.875 -1.21875,3.125 -1.20312,1.23438 -3.04687,1.23438 -1.14063,0 -2.1875,-0.51563 -1.03125,-0.51562 -1.57813,-1.51562 -0.53125,-1 -0.53125,-2.42188 z m 2.25,0.10938 q 0,1.23437 0.57813,1.89062 0.59375,0.65625 1.45312,0.65625 0.85938,0 1.4375,-0.65625 0.59375,-0.65625 0.59375,-1.90625 0,-1.21875 -0.59375,-1.875 -0.57812,-0.65625 -1.4375,-0.65625 -0.85937,0 -1.45312,0.65625 -0.57813,0.65625 -0.57813,1.89063 z m 15.58594,4.15625 -2.20312,0 0,-4.23438 q 0,-1.34375 -0.14063,-1.73437 -0.14062,-0.40625 -0.45312,-0.625 -0.3125,-0.21875 -0.76563,-0.21875 -0.5625,0 -1.01562,0.3125 -0.45313,0.3125 -0.625,0.82812 -0.17188,0.51563 -0.17188,1.90625 l 0,3.76563 -2.1875,0 0,-8.29688 2.03125,0 0,1.21875 q 1.09375,-1.40625 2.73438,-1.40625 0.73437,0 1.32812,0.26563 0.60938,0.25 0.90625,0.65625 0.3125,0.40625 0.4375,0.92187 0.125,0.51563 0.125,1.48438 l 0,5.15625 z"
       id="path140"
       inkscape:connector-curvature="0"
       style="fill:#000000;fill-rule:nonzero" />
    <path
       d="m 426.13385,247.28925 21.54648,-8.05302 86.18582,0 0,40.26509 -107.7323,0 z"
       id="path142"
       inkscape:connector-curvature="0"
       style="fill:#000000;fill-opacity:0;fill-rule:nonzero" />
    <path
       d="m 426.13385,247.28925 21.54648,-8.05302 86.18582,0 0,40.26509 -107.7323,0 z"
       id="path144"
       inkscape:connector-curvature="0"
       style="fill-rule:nonzero;stroke:#ffff00;stroke-width:2;stroke-linecap:butt;stroke-linejoin:round" />
    <path
       d="m 447.9453,269.25528 -2.51563,0 -1,-2.60937 -4.57812,0 -0.95313,2.60937 -2.45312,0 4.46875,-11.45312 2.4375,0 4.59375,11.45312 z m -4.26563,-4.53125 -1.57812,-4.25 -1.54688,4.25 3.125,0 z m 5.41407,-3.76562 2.04687,0 0,1.21875 q 0.39063,-0.625 1.0625,-1.01563 0.6875,-0.39062 1.51563,-0.39062 1.45312,0 2.45312,1.14062 1.01563,1.125 1.01563,3.14063 0,2.07812 -1.01563,3.23437 -1.01562,1.15625 -2.46875,1.15625 -0.6875,0 -1.25,-0.26562 -0.54687,-0.28125 -1.17187,-0.95313 l 0,4.1875 -2.1875,0 0,-11.45312 z m 2.17187,4 q 0,1.40625 0.54688,2.07812 0.5625,0.65625 1.35937,0.65625 0.76563,0 1.26563,-0.60937 0.51562,-0.60938 0.51562,-2.01563 0,-1.29687 -0.53125,-1.92187 -0.51562,-0.64063 -1.29687,-0.64063 -0.79688,0 -1.32813,0.625 -0.53125,0.60938 -0.53125,1.82813 z m 7.60156,-4 2.04688,0 0,1.21875 q 0.39062,-0.625 1.0625,-1.01563 0.6875,-0.39062 1.51562,-0.39062 1.45313,0 2.45313,1.14062 1.01562,1.125 1.01562,3.14063 0,2.07812 -1.01562,3.23437 -1.01563,1.15625 -2.46875,1.15625 -0.6875,0 -1.25,-0.26562 -0.54688,-0.28125 -1.17188,-0.95313 l 0,4.1875 -2.1875,0 0,-11.45312 z m 2.17188,4 q 0,1.40625 0.54687,2.07812 0.5625,0.65625 1.35938,0.65625 0.76562,0 1.26562,-0.60937 0.51563,-0.60938 0.51563,-2.01563 0,-1.29687 -0.53125,-1.92187 -0.51563,-0.64063 -1.29688,-0.64063 -0.79687,0 -1.32812,0.625 -0.53125,0.60938 -0.53125,1.82813 z m 7.66406,4.29687 0,-11.45312 2.1875,0 0,11.45312 -2.1875,0 z m 4.44531,-9.42187 0,-2.03125 2.1875,0 0,2.03125 -2.1875,0 z m 0,9.42187 0,-8.29687 2.1875,0 0,8.29687 -2.1875,0 z m 11.67969,-5.84375 -2.17187,0.39063 q -0.10938,-0.65625 -0.5,-0.98438 -0.375,-0.32812 -1,-0.32812 -0.8125,0 -1.3125,0.57812 -0.48438,0.5625 -0.48438,1.89063 0,1.46875 0.5,2.07812 0.5,0.60938 1.32813,0.60938 0.625,0 1.01562,-0.34375 0.40625,-0.35938 0.57813,-1.23438 l 2.15625,0.375 q -0.34375,1.48438 -1.29688,2.25 -0.95312,0.75 -2.54687,0.75 -1.82813,0 -2.90625,-1.14062 -1.07813,-1.15625 -1.07813,-3.1875 0,-2.0625 1.07813,-3.20313 1.09375,-1.14062 2.9375,-1.14062 1.51562,0 2.40625,0.65625 0.90625,0.64062 1.29687,1.98437 z m 3.30469,0.0781 -2,-0.35938 q 0.34375,-1.20312 1.15625,-1.78125 0.82812,-0.57812 2.4375,-0.57812 1.46875,0 2.1875,0.34375 0.71875,0.34375 1.01562,0.89062 0.29688,0.53125 0.29688,1.95313 l -0.0312,2.5625 q 0,1.09375 0.10937,1.625 0.10938,0.51562 0.39063,1.10937 l -2.17188,0 q -0.0781,-0.21875 -0.20312,-0.65625 -0.0625,-0.1875 -0.0781,-0.25 -0.5625,0.54688 -1.20312,0.82813 -0.64063,0.26562 -1.375,0.26562 -1.28125,0 -2.01563,-0.6875 -0.73437,-0.70312 -0.73437,-1.76562 0,-0.70313 0.32812,-1.25 0.34375,-0.5625 0.9375,-0.84375 0.60938,-0.29688 1.75,-0.51563 1.54688,-0.29687 2.14063,-0.54687 l 0,-0.21875 q 0,-0.625 -0.3125,-0.89063 -0.3125,-0.28125 -1.1875,-0.28125 -0.57813,0 -0.90625,0.23438 -0.32813,0.23437 -0.53125,0.8125 z m 2.9375,1.78125 q -0.42188,0.14062 -1.34375,0.34375 -0.90625,0.1875 -1.1875,0.375 -0.4375,0.29687 -0.4375,0.76562 0,0.46875 0.34375,0.8125 0.34375,0.32813 0.875,0.32813 0.59375,0 1.14062,-0.39063 0.39063,-0.29687 0.51563,-0.73437 0.0937,-0.28125 0.0937,-1.0625 l 0,-0.4375 z m 8.11719,-4.3125 0,1.75 -1.5,0 0,3.34375 q 0,1.01562 0.0469,1.1875 0.0469,0.15625 0.1875,0.26562 0.15625,0.10938 0.375,0.10938 0.3125,0 0.89063,-0.20313 l 0.1875,1.70313 q -0.76563,0.32812 -1.73438,0.32812 -0.59375,0 -1.07812,-0.20312 -0.46875,-0.20313 -0.70313,-0.51563 -0.21875,-0.3125 -0.29687,-0.85937 -0.0781,-0.375 -0.0781,-1.54688 l 0,-3.60937 -1,0 0,-1.75 1,0 0,-1.65625 2.20313,-1.28125 0,2.9375 1.5,0 z m 1.53125,-1.125 0,-2.03125 2.1875,0 0,2.03125 -2.1875,0 z m 0,9.42187 0,-8.29687 2.1875,0 0,8.29687 -2.1875,0 z m 3.92968,-4.26562 q 0,-1.09375 0.53125,-2.10938 0.54688,-1.03125 1.53125,-1.5625 1,-0.54687 2.21875,-0.54687 1.875,0 3.07813,1.21875 1.20312,1.21875 1.20312,3.09375 0,1.875 -1.21875,3.125 -1.20312,1.23437 -3.04687,1.23437 -1.14063,0 -2.1875,-0.51562 -1.03125,-0.51563 -1.57813,-1.51563 -0.53125,-1 -0.53125,-2.42187 z m 2.25,0.10937 q 0,1.23438 0.57813,1.89063 0.59375,0.65625 1.45312,0.65625 0.85938,0 1.4375,-0.65625 0.59375,-0.65625 0.59375,-1.90625 0,-1.21875 -0.59375,-1.875 -0.57812,-0.65625 -1.4375,-0.65625 -0.85937,0 -1.45312,0.65625 -0.57813,0.65625 -0.57813,1.89062 z m 15.58594,4.15625 -2.20312,0 0,-4.23437 q 0,-1.34375 -0.14063,-1.73438 -0.14062,-0.40625 -0.45312,-0.625 -0.3125,-0.21875 -0.76563,-0.21875 -0.5625,0 -1.01562,0.3125 -0.45313,0.3125 -0.625,0.82813 -0.17188,0.51562 -0.17188,1.90625 l 0,3.76562 -2.1875,0 0,-8.29687 2.03125,0 0,1.21875 q 1.09375,-1.40625 2.73438,-1.40625 0.73437,0 1.32812,0.26562 0.60938,0.25 0.90625,0.65625 0.3125,0.40625 0.4375,0.92188 0.125,0.51562 0.125,1.48437 l 0,5.15625 z"
       id="path146"
       inkscape:connector-curvature="0"
       style="fill:#000000;fill-rule:nonzero" />
    <path
       d="m 313.81628,278.28873 2.36218,108.94485"
       id="path148"
       inkscape:connector-curvature="0"
       style="fill:#000000;fill-opacity:0;fill-rule:nonzero" />
    <path
       d="m 313.81628,278.28873 2.10205,96.94769"
       id="path150"
       inkscape:connector-curvature="0"
       style="fill-rule:evenodd;stroke:#000000;stroke-width:2;stroke-linecap:butt;stroke-linejoin:round" />
    <path
       d="m 312.61566,375.308 3.49942,9.00247 3.10596,-9.14569 z"
       id="path152"
       inkscape:connector-curvature="0"
       style="fill:#000000;fill-rule:evenodd;stroke:#000000;stroke-width:2;stroke-linecap:butt" />
    <path
       d="m 400.29135,196 0,194.77167"
       id="path154"
       inkscape:connector-curvature="0"
       style="fill:#000000;fill-opacity:0;fill-rule:nonzero" />
    <path
       d="m 400.29135,196 0,182.77167"
       id="path156"
       inkscape:connector-curvature="0"
       style="fill-rule:evenodd;stroke:#000000;stroke-width:2;stroke-linecap:butt;stroke-linejoin:round" />
    <path
       d="m 396.98788,378.77167 3.30347,9.07617 3.30346,-9.07617 z"
       id="path158"
       inkscape:connector-curvature="0"
       style="fill:#000000;fill-rule:evenodd;stroke:#000000;stroke-width:2;stroke-linecap:butt" />
    <path
       d="m 483.5538,281.26904 0.78741,109.51181"
       id="path160"
       inkscape:connector-curvature="0"
       style="fill:#000000;fill-opacity:0;fill-rule:nonzero" />
    <path
       d="m 483.5538,281.26904 0.70111,97.51211"
       id="path162"
       inkscape:connector-curvature="0"
       style="fill-rule:evenodd;stroke:#000000;stroke-width:2;stroke-linecap:butt;stroke-linejoin:round" />
    <path
       d="m 480.95154,378.8049 3.36865,9.05222 3.23813,-9.09974 z"
       id="path164"
       inkscape:connector-curvature="0"
       style="fill:#000000;fill-rule:evenodd;stroke:#000000;stroke-width:2;stroke-linecap:butt" />
    <path
       d="m 400.29135,461.8399 0,74.61414"
       id="path166"
       inkscape:connector-curvature="0"
       style="fill:#000000;fill-opacity:0;fill-rule:nonzero" />
    <path
       d="m 400.29135,473.8399 0,50.61414"
       id="path168"
       inkscape:connector-curvature="0"
       style="fill-rule:evenodd;stroke:#000000;stroke-width:2;stroke-linecap:butt;stroke-linejoin:round" />
    <path
       d="m 403.59482,473.8399 -3.30347,-9.0762 -3.30346,9.0762 z"
       id="path170"
       inkscape:connector-curvature="0"
       style="fill:#000000;fill-rule:evenodd;stroke:#000000;stroke-width:2;stroke-linecap:butt" />
    <path
       d="m 396.98788,524.45404 3.30347,9.07623 3.30346,-9.07623 z"
       id="path172"
       inkscape:connector-curvature="0"
       style="fill:#000000;fill-rule:evenodd;stroke:#000000;stroke-width:2;stroke-linecap:butt" />
  </g>
</svg>
