<?xml version="1.0" encoding="UTF-8" standalone="no"?>
<svg
   xmlns:dc="http://purl.org/dc/elements/1.1/"
   xmlns:cc="http://creativecommons.org/ns#"
   xmlns:rdf="http://www.w3.org/1999/02/22-rdf-syntax-ns#"
   xmlns:svg="http://www.w3.org/2000/svg"
   xmlns="http://www.w3.org/2000/svg"
   xmlns:sodipodi="http://sodipodi.sourceforge.net/DTD/sodipodi-0.dtd"
   xmlns:inkscape="http://www.inkscape.org/namespaces/inkscape"
   version="1.1"
   viewBox="0.0 0.0 960.0 720.0"
   fill="none"
   stroke="none"
   stroke-linecap="square"
   stroke-miterlimit="10"
   id="svg2"
   inkscape:version="0.91 r13725"
   sodipodi:docname="Virtualisation_interception.svg">
  <metadata
     id="metadata99">
    <rdf:RDF>
      <cc:Work
         rdf:about="">
        <dc:format>image/svg+xml</dc:format>
        <dc:type
           rdf:resource="http://purl.org/dc/dcmitype/StillImage" />
      </cc:Work>
    </rdf:RDF>
  </metadata>
  <defs
     id="defs97" />
  <sodipodi:namedview
     pagecolor="#ffffff"
     bordercolor="#666666"
     borderopacity="1"
     objecttolerance="10"
     gridtolerance="10"
     guidetolerance="10"
     inkscape:pageopacity="0"
     inkscape:pageshadow="2"
     inkscape:window-width="1600"
     inkscape:window-height="844"
     id="namedview95"
     showgrid="false"
     inkscape:zoom="0.65555556"
     inkscape:cx="238.38521"
     inkscape:cy="360"
     inkscape:window-x="0"
     inkscape:window-y="0"
     inkscape:window-maximized="1"
     inkscape:current-layer="svg2" />
  <clipPath
     id="p.0">
    <path
       d="m0 0l960.0 0l0 720.0l-960.0 0l0 -720.0z"
       clip-rule="nonzero"
       id="path5" />
  </clipPath>
  <path
     style="fill:#000000;fill-opacity:0;fill-rule:nonzero"
     inkscape:connector-curvature="0"
     id="path9"
     d="m 0,0 960,0 0,720 -960,0 z" />
  <g
     id="g3377">
    <path
       inkscape:export-filename="/home/cross-l/Informatique/SIMGRID/doc/Pictures/png/Virtualisation_interception.png"
       inkscape:export-ydpi="90"
       inkscape:export-xdpi="90"
       d="m 451.7953,370.65878 184.72437,0 0,75.77954 -184.72437,0 z"
       id="path11"
       inkscape:connector-curvature="0"
       style="fill:#f4cccc;fill-rule:nonzero" />
    <path
       inkscape:export-filename="/home/cross-l/Informatique/SIMGRID/doc/Pictures/png/Virtualisation_interception.png"
       inkscape:export-ydpi="90"
       inkscape:export-xdpi="90"
       d="m 451.7953,370.65878 184.72437,0 0,75.77954 -184.72437,0 z"
       id="path13"
       inkscape:connector-curvature="0"
       style="fill-rule:nonzero;stroke:#ff0000;stroke-width:2;stroke-linecap:butt;stroke-linejoin:round" />
    <path
       inkscape:export-filename="/home/cross-l/Informatique/SIMGRID/doc/Pictures/png/Virtualisation_interception.png"
       inkscape:export-ydpi="90"
       inkscape:export-xdpi="90"
       d="m 506.20825,414.40857 0,-11.45313 8.48438,0 0,1.9375 -6.17188,0 0,2.53125 5.75,0 0,1.9375 -5.75,0 0,3.10938 6.39063,0 0,1.9375 -8.70313,0 z m 3.29688,-12.3125 1.07812,-2.34375 2.45313,0 -2.14063,2.34375 -1.39062,0 z m 7.1875,4.01562 2.03125,0 0,1.125 q 1.07812,-1.3125 2.57812,-1.3125 0.79688,0 1.375,0.32813 0.59375,0.32812 0.96875,0.98437 0.54688,-0.65625 1.17188,-0.98437 0.64062,-0.32813 1.35937,-0.32813 0.92188,0 1.54688,0.375 0.64062,0.35938 0.95312,1.07813 0.21875,0.53125 0.21875,1.71875 l 0,5.3125 -2.1875,0 0,-4.75 q 0,-1.23438 -0.23437,-1.59375 -0.29688,-0.46875 -0.9375,-0.46875 -0.45313,0 -0.85938,0.28125 -0.40625,0.28125 -0.59375,0.82812 -0.17187,0.54688 -0.17187,1.71875 l 0,3.98438 -2.20313,0 0,-4.54688 q 0,-1.21875 -0.125,-1.5625 -0.10937,-0.35937 -0.35937,-0.53125 -0.23438,-0.17187 -0.65625,-0.17187 -0.51563,0 -0.92188,0.28125 -0.40625,0.26562 -0.57812,0.78125 -0.17188,0.51562 -0.17188,1.71875 l 0,4.03125 -2.20312,0 0,-8.29688 z m 19.85156,8.29688 0,-1.25 q -0.45313,0.67187 -1.1875,1.0625 -0.73438,0.375 -1.5625,0.375 -0.82813,0 -1.5,-0.35938 -0.65625,-0.375 -0.95313,-1.03125 -0.29687,-0.67187 -0.29687,-1.84375 l 0,-5.25 2.1875,0 0,3.8125 q 0,1.75 0.125,2.14063 0.125,0.39062 0.4375,0.625 0.32812,0.23437 0.8125,0.23437 0.5625,0 1,-0.3125 0.45312,-0.3125 0.60937,-0.76562 0.17188,-0.45313 0.17188,-2.23438 l 0,-3.5 2.20312,0 0,8.29688 -2.04687,0 z m 4.32031,0 0,-11.45313 2.1875,0 0,11.45313 -2.1875,0 z m 6.08594,-5.76563 -2,-0.35937 q 0.34375,-1.20313 1.15625,-1.78125 0.82812,-0.57813 2.4375,-0.57813 1.46875,0 2.1875,0.34375 0.71875,0.34375 1.01562,0.89063 0.29688,0.53125 0.29688,1.95312 l -0.0312,2.5625 q 0,1.09375 0.10937,1.625 0.10938,0.51563 0.39063,1.10938 l -2.17188,0 q -0.0781,-0.21875 -0.20312,-0.65625 -0.0625,-0.1875 -0.0781,-0.25 -0.5625,0.54687 -1.20312,0.82812 -0.64063,0.26563 -1.375,0.26563 -1.28125,0 -2.01563,-0.6875 -0.73437,-0.70313 -0.73437,-1.76563 0,-0.70312 0.32812,-1.25 0.34375,-0.5625 0.9375,-0.84375 0.60938,-0.29687 1.75,-0.51562 1.54688,-0.29688 2.14063,-0.54688 l 0,-0.21875 q 0,-0.625 -0.3125,-0.89062 -0.3125,-0.28125 -1.1875,-0.28125 -0.57813,0 -0.90625,0.23437 -0.32813,0.23438 -0.53125,0.8125 z m 2.9375,1.78125 q -0.42188,0.14063 -1.34375,0.34375 -0.90625,0.1875 -1.1875,0.375 -0.4375,0.29688 -0.4375,0.76563 0,0.46875 0.34375,0.8125 0.34375,0.32812 0.875,0.32812 0.59375,0 1.14062,-0.39062 0.39063,-0.29688 0.51563,-0.73438 0.0937,-0.28125 0.0937,-1.0625 l 0,-0.4375 z m 8.11718,-4.3125 0,1.75 -1.5,0 0,3.34375 q 0,1.01563 0.0469,1.1875 0.0469,0.15625 0.1875,0.26563 0.15625,0.10937 0.375,0.10937 0.3125,0 0.89062,-0.20312 l 0.1875,1.70312 q -0.76562,0.32813 -1.73437,0.32813 -0.59375,0 -1.07813,-0.20313 -0.46875,-0.20312 -0.70312,-0.51562 -0.21875,-0.3125 -0.29688,-0.85938 -0.0781,-0.375 -0.0781,-1.54687 l 0,-3.60938 -1,0 0,-1.75 1,0 0,-1.65625 2.20312,-1.28125 0,2.9375 1.5,0 z m 6.32813,5.65625 2.1875,0.35938 q -0.42188,1.20312 -1.32813,1.84375 -0.90625,0.625 -2.28125,0.625 -2.15625,0 -3.20312,-1.42188 -0.8125,-1.125 -0.8125,-2.85937 0,-2.0625 1.07812,-3.21875 1.07813,-1.17188 2.71875,-1.17188 1.85938,0 2.92188,1.21875 1.07812,1.21875 1.03125,3.75 l -5.5,0 q 0.0156,0.96875 0.51562,1.51563 0.51563,0.54687 1.28125,0.54687 0.51563,0 0.85938,-0.28125 0.35937,-0.28125 0.53125,-0.90625 z m 0.125,-2.21875 q -0.0156,-0.95312 -0.48438,-1.45312 -0.46875,-0.5 -1.14062,-0.5 -0.71875,0 -1.1875,0.53125 -0.46875,0.51562 -0.46875,1.42187 l 3.28125,0 z m 9.42969,4.85938 0,-1.25 q -0.45313,0.67187 -1.1875,1.0625 -0.73438,0.375 -1.5625,0.375 -0.82813,0 -1.5,-0.35938 -0.65625,-0.375 -0.95313,-1.03125 -0.29687,-0.67187 -0.29687,-1.84375 l 0,-5.25 2.1875,0 0,3.8125 q 0,1.75 0.125,2.14063 0.125,0.39062 0.4375,0.625 0.32812,0.23437 0.8125,0.23437 0.5625,0 1,-0.3125 0.45312,-0.3125 0.60937,-0.76562 0.17188,-0.45313 0.17188,-2.23438 l 0,-3.5 2.20312,0 0,8.29688 -2.04687,0 z m 6.41406,0 -2.1875,0 0,-8.29688 2.03125,0 0,1.17188 q 0.53125,-0.82813 0.9375,-1.09375 0.42187,-0.26563 0.95312,-0.26563 0.75,0 1.45313,0.40625 l -0.6875,1.92188 q -0.54688,-0.35938 -1.03125,-0.35938 -0.45313,0 -0.78125,0.25 -0.3125,0.25 -0.5,0.92188 -0.1875,0.65625 -0.1875,2.78125 l 0,2.5625 z"
       id="path15"
       inkscape:connector-curvature="0"
       style="fill:#000000;fill-rule:nonzero" />
    <path
       inkscape:export-filename="/home/cross-l/Informatique/SIMGRID/doc/Pictures/png/Virtualisation_interception.png"
       inkscape:export-ydpi="90"
       inkscape:export-xdpi="90"
       d="m 315,151.3412 24.39474,-13.97376 97.57901,0 0,69.86878 -121.97375,0 z"
       id="path17"
       inkscape:connector-curvature="0"
       style="fill:#000000;fill-opacity:0;fill-rule:nonzero" />
    <path
       inkscape:export-filename="/home/cross-l/Informatique/SIMGRID/doc/Pictures/png/Virtualisation_interception.png"
       inkscape:export-ydpi="90"
       inkscape:export-xdpi="90"
       d="m 315,151.3412 24.39474,-13.97376 97.57901,0 0,69.86878 -121.97375,0 z"
       id="path19"
       inkscape:connector-curvature="0"
       style="fill-rule:nonzero;stroke:#ffff00;stroke-width:2;stroke-linecap:butt;stroke-linejoin:round" />
    <path
       inkscape:export-filename="/home/cross-l/Informatique/SIMGRID/doc/Pictures/png/Virtualisation_interception.png"
       inkscape:export-ydpi="90"
       inkscape:export-xdpi="90"
       d="m 343.9322,185.14871 -2.51562,0 -1,-2.60938 -4.57813,0 -0.95312,2.60938 -2.45313,0 4.46875,-11.45313 2.4375,0 4.59375,11.45313 z m -4.26562,-4.53125 -1.57813,-4.25 -1.54687,4.25 3.125,0 z m 5.41406,-3.76563 2.04687,0 0,1.21875 q 0.39063,-0.625 1.0625,-1.01562 0.6875,-0.39063 1.51563,-0.39063 1.45312,0 2.45312,1.14063 1.01563,1.125 1.01563,3.14062 0,2.07813 -1.01563,3.23438 -1.01562,1.15625 -2.46875,1.15625 -0.6875,0 -1.25,-0.26563 -0.54687,-0.28125 -1.17187,-0.95312 l 0,4.1875 -2.1875,0 0,-11.45313 z m 2.17187,4 q 0,1.40625 0.54688,2.07813 0.5625,0.65625 1.35937,0.65625 0.76563,0 1.26563,-0.60938 0.51562,-0.60937 0.51562,-2.01562 0,-1.29688 -0.53125,-1.92188 -0.51562,-0.64062 -1.29687,-0.64062 -0.79688,0 -1.32813,0.625 -0.53125,0.60937 -0.53125,1.82812 z m 7.60157,-4 2.04687,0 0,1.21875 q 0.39063,-0.625 1.0625,-1.01562 0.6875,-0.39063 1.51563,-0.39063 1.45312,0 2.45312,1.14063 1.01563,1.125 1.01563,3.14062 0,2.07813 -1.01563,3.23438 -1.01562,1.15625 -2.46875,1.15625 -0.6875,0 -1.25,-0.26563 -0.54687,-0.28125 -1.17187,-0.95312 l 0,4.1875 -2.1875,0 0,-11.45313 z m 2.17187,4 q 0,1.40625 0.54688,2.07813 0.5625,0.65625 1.35937,0.65625 0.76563,0 1.26563,-0.60938 0.51562,-0.60937 0.51562,-2.01562 0,-1.29688 -0.53125,-1.92188 -0.51562,-0.64062 -1.29687,-0.64062 -0.79688,0 -1.32813,0.625 -0.53125,0.60937 -0.53125,1.82812 z m 7.66406,4.29688 0,-11.45313 2.1875,0 0,11.45313 -2.1875,0 z m 4.44532,-9.42188 0,-2.03125 2.1875,0 0,2.03125 -2.1875,0 z m 0,9.42188 0,-8.29688 2.1875,0 0,8.29688 -2.1875,0 z m 11.67968,-5.84375 -2.17187,0.39062 q -0.10938,-0.65625 -0.5,-0.98437 -0.375,-0.32813 -1,-0.32813 -0.8125,0 -1.3125,0.57813 -0.48438,0.5625 -0.48438,1.89062 0,1.46875 0.5,2.07813 0.5,0.60937 1.32813,0.60937 0.625,0 1.01562,-0.34375 0.40625,-0.35937 0.57813,-1.23437 l 2.15625,0.375 q -0.34375,1.48437 -1.29688,2.25 -0.95312,0.75 -2.54687,0.75 -1.82813,0 -2.90625,-1.14063 -1.07813,-1.15625 -1.07813,-3.1875 0,-2.0625 1.07813,-3.20312 1.09375,-1.14063 2.9375,-1.14063 1.51562,0 2.40625,0.65625 0.90625,0.64063 1.29687,1.98438 z m 3.30469,0.0781 -2,-0.35937 q 0.34375,-1.20313 1.15625,-1.78125 0.82813,-0.57813 2.4375,-0.57813 1.46875,0 2.1875,0.34375 0.71875,0.34375 1.01563,0.89063 0.29687,0.53125 0.29687,1.95312 l -0.0312,2.5625 q 0,1.09375 0.10938,1.625 0.10937,0.51563 0.39062,1.10938 l -2.17187,0 q -0.0781,-0.21875 -0.20313,-0.65625 -0.0625,-0.1875 -0.0781,-0.25 -0.5625,0.54687 -1.20313,0.82812 -0.64062,0.26563 -1.375,0.26563 -1.28125,0 -2.01562,-0.6875 -0.73438,-0.70313 -0.73438,-1.76563 0,-0.70312 0.32813,-1.25 0.34375,-0.5625 0.9375,-0.84375 0.60937,-0.29687 1.75,-0.51562 1.54687,-0.29688 2.14062,-0.54688 l 0,-0.21875 q 0,-0.625 -0.3125,-0.89062 -0.3125,-0.28125 -1.1875,-0.28125 -0.57812,0 -0.90625,0.23437 -0.32812,0.23438 -0.53125,0.8125 z m 2.9375,1.78125 q -0.42187,0.14063 -1.34375,0.34375 -0.90625,0.1875 -1.1875,0.375 -0.4375,0.29688 -0.4375,0.76563 0,0.46875 0.34375,0.8125 0.34375,0.32812 0.875,0.32812 0.59375,0 1.14063,-0.39062 0.39062,-0.29688 0.51562,-0.73438 0.0937,-0.28125 0.0937,-1.0625 l 0,-0.4375 z m 8.11719,-4.3125 0,1.75 -1.5,0 0,3.34375 q 0,1.01563 0.0469,1.1875 0.0469,0.15625 0.1875,0.26563 0.15625,0.10937 0.375,0.10937 0.3125,0 0.89063,-0.20312 l 0.1875,1.70312 q -0.76563,0.32813 -1.73438,0.32813 -0.59375,0 -1.07812,-0.20313 -0.46875,-0.20312 -0.70313,-0.51562 -0.21875,-0.3125 -0.29687,-0.85938 -0.0781,-0.375 -0.0781,-1.54687 l 0,-3.60938 -1,0 0,-1.75 1,0 0,-1.65625 2.20313,-1.28125 0,2.9375 1.5,0 z m 1.53125,-1.125 0,-2.03125 2.1875,0 0,2.03125 -2.1875,0 z m 0,9.42188 0,-8.29688 2.1875,0 0,8.29688 -2.1875,0 z m 3.92969,-4.26563 q 0,-1.09375 0.53125,-2.10937 0.54687,-1.03125 1.53125,-1.5625 1,-0.54688 2.21875,-0.54688 1.875,0 3.07812,1.21875 1.20313,1.21875 1.20313,3.09375 0,1.875 -1.21875,3.125 -1.20313,1.23438 -3.04688,1.23438 -1.14062,0 -2.1875,-0.51563 -1.03125,-0.51562 -1.57812,-1.51562 -0.53125,-1 -0.53125,-2.42188 z m 2.25,0.10938 q 0,1.23437 0.57812,1.89062 0.59375,0.65625 1.45313,0.65625 0.85937,0 1.4375,-0.65625 0.59375,-0.65625 0.59375,-1.90625 0,-1.21875 -0.59375,-1.875 -0.57813,-0.65625 -1.4375,-0.65625 -0.85938,0 -1.45313,0.65625 -0.57812,0.65625 -0.57812,1.89063 z m 15.58593,4.15625 -2.20312,0 0,-4.23438 q 0,-1.34375 -0.14063,-1.73437 -0.14062,-0.40625 -0.45312,-0.625 -0.3125,-0.21875 -0.76563,-0.21875 -0.5625,0 -1.01562,0.3125 -0.45313,0.3125 -0.625,0.82812 -0.17188,0.51563 -0.17188,1.90625 l 0,3.76563 -2.1875,0 0,-8.29688 2.03125,0 0,1.21875 q 1.09375,-1.40625 2.73438,-1.40625 0.73437,0 1.32812,0.26563 0.60938,0.25 0.90625,0.65625 0.3125,0.40625 0.4375,0.92187 0.125,0.51563 0.125,1.48438 l 0,5.15625 z"
       id="path21"
       inkscape:connector-curvature="0"
       style="fill:#000000;fill-rule:nonzero" />
    <path
       inkscape:export-filename="/home/cross-l/Informatique/SIMGRID/doc/Pictures/png/Virtualisation_interception.png"
       inkscape:export-ydpi="90"
       inkscape:export-xdpi="90"
       d="m 483.1706,151.3412 24.39477,-13.97376 97.57898,0 0,69.86878 -121.97375,0 z"
       id="path23"
       inkscape:connector-curvature="0"
       style="fill:#000000;fill-opacity:0;fill-rule:nonzero" />
    <path
       inkscape:export-filename="/home/cross-l/Informatique/SIMGRID/doc/Pictures/png/Virtualisation_interception.png"
       inkscape:export-ydpi="90"
       inkscape:export-xdpi="90"
       d="m 483.1706,151.3412 24.39477,-13.97376 97.57898,0 0,69.86878 -121.97375,0 z"
       id="path25"
       inkscape:connector-curvature="0"
       style="fill-rule:nonzero;stroke:#ffff00;stroke-width:2;stroke-linecap:butt;stroke-linejoin:round" />
    <path
       inkscape:export-filename="/home/cross-l/Informatique/SIMGRID/doc/Pictures/png/Virtualisation_interception.png"
       inkscape:export-ydpi="90"
       inkscape:export-xdpi="90"
       d="m 512.1028,185.14871 -2.51563,0 -1,-2.60938 -4.57812,0 -0.95313,2.60938 -2.45312,0 4.46875,-11.45313 2.4375,0 4.59375,11.45313 z m -4.26563,-4.53125 -1.57812,-4.25 -1.54688,4.25 3.125,0 z m 5.41407,-3.76563 2.04687,0 0,1.21875 q 0.39063,-0.625 1.0625,-1.01562 0.6875,-0.39063 1.51563,-0.39063 1.45312,0 2.45312,1.14063 1.01563,1.125 1.01563,3.14062 0,2.07813 -1.01563,3.23438 -1.01562,1.15625 -2.46875,1.15625 -0.6875,0 -1.25,-0.26563 -0.54687,-0.28125 -1.17187,-0.95312 l 0,4.1875 -2.1875,0 0,-11.45313 z m 2.17187,4 q 0,1.40625 0.54688,2.07813 0.5625,0.65625 1.35937,0.65625 0.76563,0 1.26563,-0.60938 0.51562,-0.60937 0.51562,-2.01562 0,-1.29688 -0.53125,-1.92188 -0.51562,-0.64062 -1.29687,-0.64062 -0.79688,0 -1.32813,0.625 -0.53125,0.60937 -0.53125,1.82812 z m 7.60156,-4 2.04688,0 0,1.21875 q 0.39062,-0.625 1.0625,-1.01562 0.6875,-0.39063 1.51562,-0.39063 1.45313,0 2.45313,1.14063 1.01562,1.125 1.01562,3.14062 0,2.07813 -1.01562,3.23438 -1.01563,1.15625 -2.46875,1.15625 -0.6875,0 -1.25,-0.26563 -0.54688,-0.28125 -1.17188,-0.95312 l 0,4.1875 -2.1875,0 0,-11.45313 z m 2.17188,4 q 0,1.40625 0.54687,2.07813 0.5625,0.65625 1.35938,0.65625 0.76562,0 1.26562,-0.60938 0.51563,-0.60937 0.51563,-2.01562 0,-1.29688 -0.53125,-1.92188 -0.51563,-0.64062 -1.29688,-0.64062 -0.79687,0 -1.32812,0.625 -0.53125,0.60937 -0.53125,1.82812 z m 7.66406,4.29688 0,-11.45313 2.1875,0 0,11.45313 -2.1875,0 z m 4.44531,-9.42188 0,-2.03125 2.1875,0 0,2.03125 -2.1875,0 z m 0,9.42188 0,-8.29688 2.1875,0 0,8.29688 -2.1875,0 z m 11.67969,-5.84375 -2.17187,0.39062 q -0.10938,-0.65625 -0.5,-0.98437 -0.375,-0.32813 -1,-0.32813 -0.8125,0 -1.3125,0.57813 -0.48438,0.5625 -0.48438,1.89062 0,1.46875 0.5,2.07813 0.5,0.60937 1.32813,0.60937 0.625,0 1.01562,-0.34375 0.40625,-0.35937 0.57813,-1.23437 l 2.15625,0.375 q -0.34375,1.48437 -1.29688,2.25 -0.95312,0.75 -2.54687,0.75 -1.82813,0 -2.90625,-1.14063 -1.07813,-1.15625 -1.07813,-3.1875 0,-2.0625 1.07813,-3.20312 1.09375,-1.14063 2.9375,-1.14063 1.51562,0 2.40625,0.65625 0.90625,0.64063 1.29687,1.98438 z m 3.30469,0.0781 -2,-0.35937 q 0.34375,-1.20313 1.15625,-1.78125 0.82812,-0.57813 2.4375,-0.57813 1.46875,0 2.1875,0.34375 0.71875,0.34375 1.01562,0.89063 0.29688,0.53125 0.29688,1.95312 l -0.0312,2.5625 q 0,1.09375 0.10937,1.625 0.10938,0.51563 0.39063,1.10938 l -2.17188,0 q -0.0781,-0.21875 -0.20312,-0.65625 -0.0625,-0.1875 -0.0781,-0.25 -0.5625,0.54687 -1.20312,0.82812 -0.64063,0.26563 -1.375,0.26563 -1.28125,0 -2.01563,-0.6875 -0.73437,-0.70313 -0.73437,-1.76563 0,-0.70312 0.32812,-1.25 0.34375,-0.5625 0.9375,-0.84375 0.60938,-0.29687 1.75,-0.51562 1.54688,-0.29688 2.14063,-0.54688 l 0,-0.21875 q 0,-0.625 -0.3125,-0.89062 -0.3125,-0.28125 -1.1875,-0.28125 -0.57813,0 -0.90625,0.23437 -0.32813,0.23438 -0.53125,0.8125 z m 2.9375,1.78125 q -0.42188,0.14063 -1.34375,0.34375 -0.90625,0.1875 -1.1875,0.375 -0.4375,0.29688 -0.4375,0.76563 0,0.46875 0.34375,0.8125 0.34375,0.32812 0.875,0.32812 0.59375,0 1.14062,-0.39062 0.39063,-0.29688 0.51563,-0.73438 0.0937,-0.28125 0.0937,-1.0625 l 0,-0.4375 z m 8.11719,-4.3125 0,1.75 -1.5,0 0,3.34375 q 0,1.01563 0.0469,1.1875 0.0469,0.15625 0.1875,0.26563 0.15625,0.10937 0.375,0.10937 0.3125,0 0.89063,-0.20312 l 0.1875,1.70312 q -0.76563,0.32813 -1.73438,0.32813 -0.59375,0 -1.07812,-0.20313 -0.46875,-0.20312 -0.70313,-0.51562 -0.21875,-0.3125 -0.29687,-0.85938 -0.0781,-0.375 -0.0781,-1.54687 l 0,-3.60938 -1,0 0,-1.75 1,0 0,-1.65625 2.20313,-1.28125 0,2.9375 1.5,0 z m 1.53125,-1.125 0,-2.03125 2.1875,0 0,2.03125 -2.1875,0 z m 0,9.42188 0,-8.29688 2.1875,0 0,8.29688 -2.1875,0 z m 3.92968,-4.26563 q 0,-1.09375 0.53125,-2.10937 0.54688,-1.03125 1.53125,-1.5625 1,-0.54688 2.21875,-0.54688 1.875,0 3.07813,1.21875 1.20312,1.21875 1.20312,3.09375 0,1.875 -1.21875,3.125 -1.20312,1.23438 -3.04687,1.23438 -1.14063,0 -2.1875,-0.51563 -1.03125,-0.51562 -1.57813,-1.51562 -0.53125,-1 -0.53125,-2.42188 z m 2.25,0.10938 q 0,1.23437 0.57813,1.89062 0.59375,0.65625 1.45312,0.65625 0.85938,0 1.4375,-0.65625 0.59375,-0.65625 0.59375,-1.90625 0,-1.21875 -0.59375,-1.875 -0.57812,-0.65625 -1.4375,-0.65625 -0.85937,0 -1.45312,0.65625 -0.57813,0.65625 -0.57813,1.89063 z m 15.58594,4.15625 -2.20312,0 0,-4.23438 q 0,-1.34375 -0.14063,-1.73437 -0.14062,-0.40625 -0.45312,-0.625 -0.3125,-0.21875 -0.76563,-0.21875 -0.5625,0 -1.01562,0.3125 -0.45313,0.3125 -0.625,0.82812 -0.17188,0.51563 -0.17188,1.90625 l 0,3.76563 -2.1875,0 0,-8.29688 2.03125,0 0,1.21875 q 1.09375,-1.40625 2.73438,-1.40625 0.73437,0 1.32812,0.26563 0.60938,0.25 0.90625,0.65625 0.3125,0.40625 0.4375,0.92187 0.125,0.51563 0.125,1.48438 l 0,5.15625 z"
       id="path27"
       inkscape:connector-curvature="0"
       style="fill:#000000;fill-rule:nonzero" />
    <path
       inkscape:export-filename="/home/cross-l/Informatique/SIMGRID/doc/Pictures/png/Virtualisation_interception.png"
       inkscape:export-ydpi="90"
       inkscape:export-xdpi="90"
       d="m 651.3412,151.3412 24.39477,-13.97376 97.57898,0 0,69.86878 -121.97375,0 z"
       id="path29"
       inkscape:connector-curvature="0"
       style="fill:#000000;fill-opacity:0;fill-rule:nonzero" />
    <path
       inkscape:export-filename="/home/cross-l/Informatique/SIMGRID/doc/Pictures/png/Virtualisation_interception.png"
       inkscape:export-ydpi="90"
       inkscape:export-xdpi="90"
       d="m 651.3412,151.3412 24.39477,-13.97376 97.57898,0 0,69.86878 -121.97375,0 z"
       id="path31"
       inkscape:connector-curvature="0"
       style="fill-rule:nonzero;stroke:#ffff00;stroke-width:2;stroke-linecap:butt;stroke-linejoin:round" />
    <path
       inkscape:export-filename="/home/cross-l/Informatique/SIMGRID/doc/Pictures/png/Virtualisation_interception.png"
       inkscape:export-ydpi="90"
       inkscape:export-xdpi="90"
       d="m 680.2734,185.14871 -2.51562,0 -1,-2.60938 -4.57813,0 -0.95312,2.60938 -2.45313,0 4.46875,-11.45313 2.4375,0 4.59375,11.45313 z m -4.26562,-4.53125 -1.57813,-4.25 -1.54687,4.25 3.125,0 z m 5.41406,-3.76563 2.04687,0 0,1.21875 q 0.39063,-0.625 1.0625,-1.01562 0.6875,-0.39063 1.51563,-0.39063 1.45312,0 2.45312,1.14063 1.01563,1.125 1.01563,3.14062 0,2.07813 -1.01563,3.23438 -1.01562,1.15625 -2.46875,1.15625 -0.6875,0 -1.25,-0.26563 -0.54687,-0.28125 -1.17187,-0.95312 l 0,4.1875 -2.1875,0 0,-11.45313 z m 2.17187,4 q 0,1.40625 0.54688,2.07813 0.5625,0.65625 1.35937,0.65625 0.76563,0 1.26563,-0.60938 0.51562,-0.60937 0.51562,-2.01562 0,-1.29688 -0.53125,-1.92188 -0.51562,-0.64062 -1.29687,-0.64062 -0.79688,0 -1.32813,0.625 -0.53125,0.60937 -0.53125,1.82812 z m 7.60157,-4 2.04687,0 0,1.21875 q 0.39063,-0.625 1.0625,-1.01562 0.6875,-0.39063 1.51563,-0.39063 1.45312,0 2.45312,1.14063 1.01563,1.125 1.01563,3.14062 0,2.07813 -1.01563,3.23438 -1.01562,1.15625 -2.46875,1.15625 -0.6875,0 -1.25,-0.26563 -0.54687,-0.28125 -1.17187,-0.95312 l 0,4.1875 -2.1875,0 0,-11.45313 z m 2.17187,4 q 0,1.40625 0.54688,2.07813 0.5625,0.65625 1.35937,0.65625 0.76563,0 1.26563,-0.60938 0.51562,-0.60937 0.51562,-2.01562 0,-1.29688 -0.53125,-1.92188 -0.51562,-0.64062 -1.29687,-0.64062 -0.79688,0 -1.32813,0.625 -0.53125,0.60937 -0.53125,1.82812 z m 7.66406,4.29688 0,-11.45313 2.1875,0 0,11.45313 -2.1875,0 z m 4.44532,-9.42188 0,-2.03125 2.1875,0 0,2.03125 -2.1875,0 z m 0,9.42188 0,-8.29688 2.1875,0 0,8.29688 -2.1875,0 z m 11.67968,-5.84375 -2.17187,0.39062 q -0.10938,-0.65625 -0.5,-0.98437 -0.375,-0.32813 -1,-0.32813 -0.8125,0 -1.3125,0.57813 -0.48438,0.5625 -0.48438,1.89062 0,1.46875 0.5,2.07813 0.5,0.60937 1.32813,0.60937 0.625,0 1.01562,-0.34375 0.40625,-0.35937 0.57813,-1.23437 l 2.15625,0.375 q -0.34375,1.48437 -1.29688,2.25 -0.95312,0.75 -2.54687,0.75 -1.82813,0 -2.90625,-1.14063 -1.07813,-1.15625 -1.07813,-3.1875 0,-2.0625 1.07813,-3.20312 1.09375,-1.14063 2.9375,-1.14063 1.51562,0 2.40625,0.65625 0.90625,0.64063 1.29687,1.98438 z m 3.30469,0.0781 -2,-0.35937 q 0.34375,-1.20313 1.15625,-1.78125 0.82813,-0.57813 2.4375,-0.57813 1.46875,0 2.1875,0.34375 0.71875,0.34375 1.01563,0.89063 0.29687,0.53125 0.29687,1.95312 l -0.0312,2.5625 q 0,1.09375 0.10938,1.625 0.10937,0.51563 0.39062,1.10938 l -2.17187,0 q -0.0781,-0.21875 -0.20313,-0.65625 -0.0625,-0.1875 -0.0781,-0.25 -0.5625,0.54687 -1.20313,0.82812 -0.64062,0.26563 -1.375,0.26563 -1.28125,0 -2.01562,-0.6875 -0.73438,-0.70313 -0.73438,-1.76563 0,-0.70312 0.32813,-1.25 0.34375,-0.5625 0.9375,-0.84375 0.60937,-0.29687 1.75,-0.51562 1.54687,-0.29688 2.14062,-0.54688 l 0,-0.21875 q 0,-0.625 -0.3125,-0.89062 -0.3125,-0.28125 -1.1875,-0.28125 -0.57812,0 -0.90625,0.23437 -0.32812,0.23438 -0.53125,0.8125 z m 2.9375,1.78125 q -0.42187,0.14063 -1.34375,0.34375 -0.90625,0.1875 -1.1875,0.375 -0.4375,0.29688 -0.4375,0.76563 0,0.46875 0.34375,0.8125 0.34375,0.32812 0.875,0.32812 0.59375,0 1.14063,-0.39062 0.39062,-0.29688 0.51562,-0.73438 0.0937,-0.28125 0.0937,-1.0625 l 0,-0.4375 z m 8.11719,-4.3125 0,1.75 -1.5,0 0,3.34375 q 0,1.01563 0.0469,1.1875 0.0469,0.15625 0.1875,0.26563 0.15625,0.10937 0.375,0.10937 0.3125,0 0.89063,-0.20312 l 0.1875,1.70312 q -0.76563,0.32813 -1.73438,0.32813 -0.59375,0 -1.07812,-0.20313 -0.46875,-0.20312 -0.70313,-0.51562 -0.21875,-0.3125 -0.29687,-0.85938 -0.0781,-0.375 -0.0781,-1.54687 l 0,-3.60938 -1,0 0,-1.75 1,0 0,-1.65625 2.20313,-1.28125 0,2.9375 1.5,0 z m 1.53125,-1.125 0,-2.03125 2.1875,0 0,2.03125 -2.1875,0 z m 0,9.42188 0,-8.29688 2.1875,0 0,8.29688 -2.1875,0 z m 3.92969,-4.26563 q 0,-1.09375 0.53125,-2.10937 0.54687,-1.03125 1.53125,-1.5625 1,-0.54688 2.21875,-0.54688 1.875,0 3.07812,1.21875 1.20313,1.21875 1.20313,3.09375 0,1.875 -1.21875,3.125 -1.20313,1.23438 -3.04688,1.23438 -1.14062,0 -2.1875,-0.51563 -1.03125,-0.51562 -1.57812,-1.51562 -0.53125,-1 -0.53125,-2.42188 z m 2.25,0.10938 q 0,1.23437 0.57812,1.89062 0.59375,0.65625 1.45313,0.65625 0.85937,0 1.4375,-0.65625 0.59375,-0.65625 0.59375,-1.90625 0,-1.21875 -0.59375,-1.875 -0.57813,-0.65625 -1.4375,-0.65625 -0.85938,0 -1.45313,0.65625 -0.57812,0.65625 -0.57812,1.89063 z m 15.58593,4.15625 -2.20312,0 0,-4.23438 q 0,-1.34375 -0.14063,-1.73437 -0.14062,-0.40625 -0.45312,-0.625 -0.3125,-0.21875 -0.76563,-0.21875 -0.5625,0 -1.01562,0.3125 -0.45313,0.3125 -0.625,0.82812 -0.17188,0.51563 -0.17188,1.90625 l 0,3.76563 -2.1875,0 0,-8.29688 2.03125,0 0,1.21875 q 1.09375,-1.40625 2.73438,-1.40625 0.73437,0 1.32812,0.26563 0.60938,0.25 0.90625,0.65625 0.3125,0.40625 0.4375,0.92187 0.125,0.51563 0.125,1.48438 l 0,5.15625 z"
       id="path33"
       inkscape:connector-curvature="0"
       style="fill:#000000;fill-rule:nonzero" />
    <path
       inkscape:export-filename="/home/cross-l/Informatique/SIMGRID/doc/Pictures/png/Virtualisation_interception.png"
       inkscape:export-ydpi="90"
       inkscape:export-xdpi="90"
       d="M 375.98688,207.23622 486.72705,371.83465"
       id="path35"
       inkscape:connector-curvature="0"
       style="fill:#000000;fill-opacity:0;fill-rule:nonzero" />
    <path
       inkscape:export-filename="/home/cross-l/Informatique/SIMGRID/doc/Pictures/png/Virtualisation_interception.png"
       inkscape:export-ydpi="90"
       inkscape:export-xdpi="90"
       d="m 382.6854,217.19261 97.34311,144.68568"
       id="path37"
       inkscape:connector-curvature="0"
       style="fill-rule:evenodd;stroke:#000000;stroke-width:2;stroke-linecap:butt;stroke-linejoin:round" />
    <path
       inkscape:export-filename="/home/cross-l/Informatique/SIMGRID/doc/Pictures/png/Virtualisation_interception.png"
       inkscape:export-ydpi="90"
       inkscape:export-xdpi="90"
       d="m 385.4263,215.34856 -7.80731,-5.68646 2.32556,9.37454 z"
       id="path39"
       inkscape:connector-curvature="0"
       style="fill:#000000;fill-rule:evenodd;stroke:#000000;stroke-width:2;stroke-linecap:butt" />
    <path
       inkscape:export-filename="/home/cross-l/Informatique/SIMGRID/doc/Pictures/png/Virtualisation_interception.png"
       inkscape:export-ydpi="90"
       inkscape:export-xdpi="90"
       d="m 477.2876,363.7223 7.80734,5.68649 -2.32559,-9.37454 z"
       id="path41"
       inkscape:connector-curvature="0"
       style="fill:#000000;fill-rule:evenodd;stroke:#000000;stroke-width:2;stroke-linecap:butt" />
    <path
       inkscape:export-filename="/home/cross-l/Informatique/SIMGRID/doc/Pictures/png/Virtualisation_interception.png"
       inkscape:export-ydpi="90"
       inkscape:export-xdpi="90"
       d="m 544.1575,207.23622 0,163.43306"
       id="path43"
       inkscape:connector-curvature="0"
       style="fill:#000000;fill-opacity:0;fill-rule:nonzero" />
    <path
       inkscape:export-filename="/home/cross-l/Informatique/SIMGRID/doc/Pictures/png/Virtualisation_interception.png"
       inkscape:export-ydpi="90"
       inkscape:export-xdpi="90"
       d="m 544.1575,219.23622 0,139.43306"
       id="path45"
       inkscape:connector-curvature="0"
       style="fill-rule:evenodd;stroke:#000000;stroke-width:2;stroke-linecap:butt;stroke-linejoin:round" />
    <path
       inkscape:export-filename="/home/cross-l/Informatique/SIMGRID/doc/Pictures/png/Virtualisation_interception.png"
       inkscape:export-ydpi="90"
       inkscape:export-xdpi="90"
       d="m 547.46094,219.23622 -3.30347,-9.0762 -3.30346,9.0762 z"
       id="path47"
       inkscape:connector-curvature="0"
       style="fill:#000000;fill-rule:evenodd;stroke:#000000;stroke-width:2;stroke-linecap:butt" />
    <path
       inkscape:export-filename="/home/cross-l/Informatique/SIMGRID/doc/Pictures/png/Virtualisation_interception.png"
       inkscape:export-ydpi="90"
       inkscape:export-xdpi="90"
       d="m 540.854,358.66928 3.30347,9.0762 3.30346,-9.0762 z"
       id="path49"
       inkscape:connector-curvature="0"
       style="fill:#000000;fill-rule:evenodd;stroke:#000000;stroke-width:2;stroke-linecap:butt" />
    <path
       inkscape:export-filename="/home/cross-l/Informatique/SIMGRID/doc/Pictures/png/Virtualisation_interception.png"
       inkscape:export-ydpi="90"
       inkscape:export-xdpi="90"
       d="M 712.32806,207.23622 601.58795,371.83465"
       id="path51"
       inkscape:connector-curvature="0"
       style="fill:#000000;fill-opacity:0;fill-rule:nonzero" />
    <path
       inkscape:export-filename="/home/cross-l/Informatique/SIMGRID/doc/Pictures/png/Virtualisation_interception.png"
       inkscape:export-ydpi="90"
       inkscape:export-xdpi="90"
       d="M 705.6295,217.19261 608.28642,361.87829"
       id="path53"
       inkscape:connector-curvature="0"
       style="fill-rule:evenodd;stroke:#000000;stroke-width:2;stroke-linecap:butt;stroke-linejoin:round" />
    <path
       inkscape:export-filename="/home/cross-l/Informatique/SIMGRID/doc/Pictures/png/Virtualisation_interception.png"
       inkscape:export-ydpi="90"
       inkscape:export-xdpi="90"
       d="m 708.3704,219.03664 2.32556,-9.37454 -7.80731,5.68646 z"
       id="path55"
       inkscape:connector-curvature="0"
       style="fill:#000000;fill-rule:evenodd;stroke:#000000;stroke-width:2;stroke-linecap:butt" />
    <path
       inkscape:export-filename="/home/cross-l/Informatique/SIMGRID/doc/Pictures/png/Virtualisation_interception.png"
       inkscape:export-ydpi="90"
       inkscape:export-xdpi="90"
       d="m 605.5456,360.03424 -2.32556,9.37454 7.80731,-5.68649 z"
       id="path57"
       inkscape:connector-curvature="0"
       style="fill:#000000;fill-rule:evenodd;stroke:#000000;stroke-width:2;stroke-linecap:butt" />
    <path
       inkscape:export-filename="/home/cross-l/Informatique/SIMGRID/doc/Pictures/png/Virtualisation_interception.png"
       inkscape:export-ydpi="90"
       inkscape:export-xdpi="90"
       d="m 400.28348,540.98206 0,0 c 0,-12.31866 9.98624,-22.30487 22.3049,-22.30487 l 243.13824,0 c 5.91559,0 11.58893,2.34998 15.77191,6.53296 4.18299,4.18298 6.53296,9.85632 6.53296,15.77191 l 0,89.21698 c 0,12.31867 -9.98626,22.30487 -22.30487,22.30487 l -243.13824,0 c -12.31866,0 -22.3049,-9.9862 -22.3049,-22.30487 z"
       id="path59"
       inkscape:connector-curvature="0"
       style="fill:#f9cb9c;fill-rule:nonzero" />
    <path
       inkscape:export-filename="/home/cross-l/Informatique/SIMGRID/doc/Pictures/png/Virtualisation_interception.png"
       inkscape:export-ydpi="90"
       inkscape:export-xdpi="90"
       d="m 400.28348,540.98206 0,0 c 0,-12.31866 9.98624,-22.30487 22.3049,-22.30487 l 243.13824,0 c 5.91559,0 11.58893,2.34998 15.77191,6.53296 4.18299,4.18298 6.53296,9.85632 6.53296,15.77191 l 0,89.21698 c 0,12.31867 -9.98626,22.30487 -22.30487,22.30487 l -243.13824,0 c -12.31866,0 -22.3049,-9.9862 -22.3049,-22.30487 z"
       id="path61"
       inkscape:connector-curvature="0"
       style="fill-rule:nonzero;stroke:#ff9900;stroke-width:2;stroke-linecap:butt;stroke-linejoin:round" />
    <path
       inkscape:export-filename="/home/cross-l/Informatique/SIMGRID/doc/Pictures/png/Virtualisation_interception.png"
       inkscape:export-ydpi="90"
       inkscape:export-xdpi="90"
       d="m 520.89575,591.45056 0,-11.45313 2.25,0 4.6875,7.64063 0,-7.64063 2.15625,0 0,11.45313 -2.32812,0 -4.60938,-7.46875 0,7.46875 -2.15625,0 z m 11.00781,-4.26563 q 0,-1.09375 0.53125,-2.10937 0.54688,-1.03125 1.53125,-1.5625 1,-0.54688 2.21875,-0.54688 1.875,0 3.07813,1.21875 1.20312,1.21875 1.20312,3.09375 0,1.875 -1.21875,3.125 -1.20312,1.23438 -3.04687,1.23438 -1.14063,0 -2.1875,-0.51563 -1.03125,-0.51562 -1.57813,-1.51562 -0.53125,-1 -0.53125,-2.42188 z m 2.25,0.10938 q 0,1.23437 0.57813,1.89062 0.59375,0.65625 1.45312,0.65625 0.85938,0 1.4375,-0.65625 0.59375,-0.65625 0.59375,-1.90625 0,-1.21875 -0.59375,-1.875 -0.57812,-0.65625 -1.4375,-0.65625 -0.85937,0 -1.45312,0.65625 -0.57813,0.65625 -0.57813,1.89063 z m 6.99219,-4.14063 2.34375,0 1.98438,5.89063 1.9375,-5.89063 2.26562,0 -2.92187,7.98438 -0.53125,1.45312 q -0.28125,0.71875 -0.54688,1.09375 -0.26562,0.39063 -0.60937,0.625 -0.32813,0.25 -0.82813,0.375 -0.5,0.14063 -1.125,0.14063 -0.625,0 -1.23437,-0.14063 l -0.20313,-1.71875 q 0.51563,0.10938 0.9375,0.10938 0.76563,0 1.125,-0.45313 0.375,-0.45312 0.5625,-1.14062 l -3.15625,-8.32813 z m 11.58594,2.53125 -2,-0.35937 q 0.34375,-1.20313 1.15625,-1.78125 0.82812,-0.57813 2.4375,-0.57813 1.46875,0 2.1875,0.34375 0.71875,0.34375 1.01562,0.89063 0.29688,0.53125 0.29688,1.95312 l -0.0312,2.5625 q 0,1.09375 0.10937,1.625 0.10938,0.51563 0.39063,1.10938 l -2.17188,0 q -0.0781,-0.21875 -0.20312,-0.65625 -0.0625,-0.1875 -0.0781,-0.25 -0.5625,0.54687 -1.20312,0.82812 -0.64063,0.26563 -1.375,0.26563 -1.28125,0 -2.01563,-0.6875 -0.73437,-0.70313 -0.73437,-1.76563 0,-0.70312 0.32812,-1.25 0.34375,-0.5625 0.9375,-0.84375 0.60938,-0.29687 1.75,-0.51562 1.54688,-0.29688 2.14063,-0.54688 l 0,-0.21875 q 0,-0.625 -0.3125,-0.89062 -0.3125,-0.28125 -1.1875,-0.28125 -0.57813,0 -0.90625,0.23437 -0.32813,0.23438 -0.53125,0.8125 z m 2.9375,1.78125 q -0.42188,0.14063 -1.34375,0.34375 -0.90625,0.1875 -1.1875,0.375 -0.4375,0.29688 -0.4375,0.76563 0,0.46875 0.34375,0.8125 0.34375,0.32812 0.875,0.32812 0.59375,0 1.14062,-0.39062 0.39063,-0.29688 0.51563,-0.73438 0.0937,-0.28125 0.0937,-1.0625 l 0,-0.4375 z m 9.77344,3.98438 0,-1.25 q -0.45313,0.67187 -1.1875,1.0625 -0.73438,0.375 -1.5625,0.375 -0.82813,0 -1.5,-0.35938 -0.65625,-0.375 -0.95313,-1.03125 -0.29687,-0.67187 -0.29687,-1.84375 l 0,-5.25 2.1875,0 0,3.8125 q 0,1.75 0.125,2.14063 0.125,0.39062 0.4375,0.625 0.32812,0.23437 0.8125,0.23437 0.5625,0 1,-0.3125 0.45312,-0.3125 0.60937,-0.76562 0.17188,-0.45313 0.17188,-2.23438 l 0,-3.5 2.20312,0 0,8.29688 -2.04687,0 z"
       id="path63"
       inkscape:connector-curvature="0"
       style="fill:#000000;fill-rule:nonzero" />
    <path
       inkscape:export-filename="/home/cross-l/Informatique/SIMGRID/doc/Pictures/png/Virtualisation_interception.png"
       inkscape:export-ydpi="90"
       inkscape:export-xdpi="90"
       d="m 544.1575,446.43832 0,72.25198"
       id="path65"
       inkscape:connector-curvature="0"
       style="fill:#000000;fill-opacity:0;fill-rule:nonzero" />
    <path
       inkscape:export-filename="/home/cross-l/Informatique/SIMGRID/doc/Pictures/png/Virtualisation_interception.png"
       inkscape:export-ydpi="90"
       inkscape:export-xdpi="90"
       d="m 544.1575,458.43832 0,48.25195"
       id="path67"
       inkscape:connector-curvature="0"
       style="fill-rule:evenodd;stroke:#000000;stroke-width:2;stroke-linecap:butt;stroke-linejoin:round" />
    <path
       inkscape:export-filename="/home/cross-l/Informatique/SIMGRID/doc/Pictures/png/Virtualisation_interception.png"
       inkscape:export-ydpi="90"
       inkscape:export-xdpi="90"
       d="m 547.46094,458.43832 -3.30347,-9.0762 -3.30346,9.0762 z"
       id="path69"
       inkscape:connector-curvature="0"
       style="fill:#000000;fill-rule:evenodd;stroke:#000000;stroke-width:2;stroke-linecap:butt" />
    <path
       inkscape:export-filename="/home/cross-l/Informatique/SIMGRID/doc/Pictures/png/Virtualisation_interception.png"
       inkscape:export-ydpi="90"
       inkscape:export-xdpi="90"
       d="m 540.854,506.69028 3.30347,9.0762 3.30346,-9.0762 z"
       id="path71"
       inkscape:connector-curvature="0"
       style="fill:#000000;fill-rule:evenodd;stroke:#000000;stroke-width:2;stroke-linecap:butt" />
    <path
       d="m 50.92126,408.54855 0,0 c 0,-30.7366 44.00301,-55.65353 98.28346,-55.65353 l 0,0 c 54.28046,0 98.28348,24.91693 98.28348,55.65353 l 0,0 c 0,30.7366 -44.00302,55.65353 -98.28348,55.65353 l 0,0 c -54.280457,0 -98.28346,-24.91693 -98.28346,-55.65353 z"
       id="path73"
       inkscape:connector-curvature="0"
       style="fill:#cfe2f3;fill-rule:nonzero" />
    <path
       d="m 50.92126,408.54855 0,0 c 0,-30.7366 44.00301,-55.65353 98.28346,-55.65353 l 0,0 c 54.28046,0 98.28348,24.91693 98.28348,55.65353 l 0,0 c 0,30.7366 -44.00302,55.65353 -98.28348,55.65353 l 0,0 c -54.280457,0 -98.28346,-24.91693 -98.28346,-55.65353 z"
       id="path75"
       inkscape:connector-curvature="0"
       style="fill-rule:nonzero;stroke:#0000ff;stroke-width:2;stroke-linecap:butt;stroke-linejoin:round" />
    <path
       inkscape:export-filename="/home/cross-l/Informatique/SIMGRID/doc/Pictures/png/Virtualisation_interception.png"
       inkscape:export-ydpi="90"
       inkscape:export-xdpi="90"
       d="m 108.4391,410.6742 2.25,-0.21875 q 0.20312,1.14062 0.82812,1.67187 0.625,0.53125 1.67188,0.53125 1.125,0 1.6875,-0.46875 0.5625,-0.48437 0.5625,-1.10937 0,-0.40625 -0.23438,-0.6875 -0.23437,-0.29688 -0.82812,-0.5 -0.40625,-0.14063 -1.85938,-0.5 -1.85937,-0.46875 -2.60937,-1.14063 -1.04688,-0.9375 -1.04688,-2.29687 0,-0.875 0.48438,-1.64063 0.5,-0.76562 1.4375,-1.15625 0.9375,-0.40625 2.25,-0.40625 2.15625,0 3.25,0.95313 1.09375,0.9375 1.14062,2.51562 l -2.3125,0.10938 q -0.14062,-0.89063 -0.64062,-1.26563 -0.48438,-0.39062 -1.45313,-0.39062 -1.01562,0 -1.57812,0.40625 -0.375,0.26562 -0.375,0.71875 0,0.40625 0.34375,0.6875 0.4375,0.375 2.125,0.78125 1.6875,0.39062 2.5,0.8125 0.8125,0.42187 1.26562,1.17187 0.45313,0.73438 0.45313,1.8125 0,0.98438 -0.54688,1.84375 -0.54687,0.85938 -1.54687,1.28125 -1,0.42188 -2.48438,0.42188 -2.17187,0 -3.34375,-1 -1.15625,-1.01563 -1.39062,-2.9375 z m 11.25,-5.6875 0,-2.03125 2.1875,0 0,2.03125 -2.1875,0 z m 0,9.42187 0,-8.29687 2.1875,0 0,8.29687 -2.1875,0 z m 4.27344,-8.29687 2.03125,0 0,1.125 q 1.07812,-1.3125 2.57812,-1.3125 0.79688,0 1.375,0.32812 0.59375,0.32813 0.96875,0.98438 0.54688,-0.65625 1.17188,-0.98438 0.64062,-0.32812 1.35937,-0.32812 0.92188,0 1.54688,0.375 0.64062,0.35937 0.95312,1.07812 0.21875,0.53125 0.21875,1.71875 l 0,5.3125 -2.1875,0 0,-4.75 q 0,-1.23437 -0.23437,-1.59375 -0.29688,-0.46875 -0.9375,-0.46875 -0.45313,0 -0.85938,0.28125 -0.40625,0.28125 -0.59375,0.82813 -0.17187,0.54687 -0.17187,1.71875 l 0,3.98437 -2.20313,0 0,-4.54687 q 0,-1.21875 -0.125,-1.5625 -0.10937,-0.35938 -0.35937,-0.53125 -0.23438,-0.17188 -0.65625,-0.17188 -0.51563,0 -0.92188,0.28125 -0.40625,0.26563 -0.57812,0.78125 -0.17188,0.51563 -0.17188,1.71875 l 0,4.03125 -2.20312,0 0,-8.29687 z m 19.85156,8.29687 0,-1.25 q -0.45313,0.67188 -1.1875,1.0625 -0.73438,0.375 -1.5625,0.375 -0.82813,0 -1.5,-0.35937 -0.65625,-0.375 -0.95313,-1.03125 -0.29687,-0.67188 -0.29687,-1.84375 l 0,-5.25 2.1875,0 0,3.8125 q 0,1.75 0.125,2.14062 0.125,0.39063 0.4375,0.625 0.32812,0.23438 0.8125,0.23438 0.5625,0 1,-0.3125 0.45312,-0.3125 0.60937,-0.76563 0.17188,-0.45312 0.17188,-2.23437 l 0,-3.5 2.20312,0 0,8.29687 -2.04687,0 z m 4.32031,0 0,-11.45312 2.1875,0 0,11.45312 -2.1875,0 z m 6.08594,-5.76562 -2,-0.35938 q 0.34375,-1.20312 1.15625,-1.78125 0.82812,-0.57812 2.4375,-0.57812 1.46875,0 2.1875,0.34375 0.71875,0.34375 1.01562,0.89062 0.29688,0.53125 0.29688,1.95313 l -0.0312,2.5625 q 0,1.09375 0.10937,1.625 0.10938,0.51562 0.39063,1.10937 l -2.17188,0 q -0.0781,-0.21875 -0.20312,-0.65625 -0.0625,-0.1875 -0.0781,-0.25 -0.5625,0.54688 -1.20312,0.82813 -0.64063,0.26562 -1.375,0.26562 -1.28125,0 -2.01563,-0.6875 -0.73437,-0.70312 -0.73437,-1.76562 0,-0.70313 0.32812,-1.25 0.34375,-0.5625 0.9375,-0.84375 0.60938,-0.29688 1.75,-0.51563 1.54688,-0.29687 2.14063,-0.54687 l 0,-0.21875 q 0,-0.625 -0.3125,-0.89063 -0.3125,-0.28125 -1.1875,-0.28125 -0.57813,0 -0.90625,0.23438 -0.32813,0.23437 -0.53125,0.8125 z m 2.9375,1.78125 q -0.42188,0.14062 -1.34375,0.34375 -0.90625,0.1875 -1.1875,0.375 -0.4375,0.29687 -0.4375,0.76562 0,0.46875 0.34375,0.8125 0.34375,0.32813 0.875,0.32813 0.59375,0 1.14062,-0.39063 0.39063,-0.29687 0.51563,-0.73437 0.0937,-0.28125 0.0937,-1.0625 l 0,-0.4375 z m 8.11719,-4.3125 0,1.75 -1.5,0 0,3.34375 q 0,1.01562 0.0469,1.1875 0.0469,0.15625 0.1875,0.26562 0.15625,0.10938 0.375,0.10938 0.3125,0 0.89063,-0.20313 l 0.1875,1.70313 q -0.76563,0.32812 -1.73438,0.32812 -0.59375,0 -1.07812,-0.20312 -0.46875,-0.20313 -0.70313,-0.51563 -0.21875,-0.3125 -0.29687,-0.85937 -0.0781,-0.375 -0.0781,-1.54688 l 0,-3.60937 -1,0 0,-1.75 1,0 0,-1.65625 2.20313,-1.28125 0,2.9375 1.5,0 z m 6.32812,5.65625 2.1875,0.35937 q -0.42187,1.20313 -1.32812,1.84375 -0.90625,0.625 -2.28125,0.625 -2.15625,0 -3.20313,-1.42187 -0.8125,-1.125 -0.8125,-2.85938 0,-2.0625 1.07813,-3.21875 1.07812,-1.17187 2.71875,-1.17187 1.85937,0 2.92187,1.21875 1.07813,1.21875 1.03125,3.75 l -5.5,0 q 0.0156,0.96875 0.51563,1.51562 0.51562,0.54688 1.28125,0.54688 0.51562,0 0.85937,-0.28125 0.35938,-0.28125 0.53125,-0.90625 z m 0.125,-2.21875 q -0.0156,-0.95313 -0.48437,-1.45313 -0.46875,-0.5 -1.14063,-0.5 -0.71875,0 -1.1875,0.53125 -0.46875,0.51563 -0.46875,1.42188 l 3.28125,0 z m 9.42969,4.85937 0,-1.25 q -0.45313,0.67188 -1.1875,1.0625 -0.73438,0.375 -1.5625,0.375 -0.82813,0 -1.5,-0.35937 -0.65625,-0.375 -0.95313,-1.03125 -0.29687,-0.67188 -0.29687,-1.84375 l 0,-5.25 2.1875,0 0,3.8125 q 0,1.75 0.125,2.14062 0.125,0.39063 0.4375,0.625 0.32812,0.23438 0.8125,0.23438 0.5625,0 1,-0.3125 0.45312,-0.3125 0.60937,-0.76563 0.17188,-0.45312 0.17188,-2.23437 l 0,-3.5 2.20312,0 0,8.29687 -2.04687,0 z m 6.41406,0 -2.1875,0 0,-8.29687 2.03125,0 0,1.17187 q 0.53125,-0.82812 0.9375,-1.09375 0.42188,-0.26562 0.95313,-0.26562 0.75,0 1.45312,0.40625 l -0.6875,1.92187 q -0.54687,-0.35937 -1.03125,-0.35937 -0.45312,0 -0.78125,0.25 -0.3125,0.25 -0.5,0.92187 -0.1875,0.65625 -0.1875,2.78125 l 0,2.5625 z"
       id="path77"
       inkscape:connector-curvature="0"
       style="fill:#000000;fill-rule:nonzero" />
    <path
       inkscape:export-filename="/home/cross-l/Informatique/SIMGRID/doc/Pictures/png/Virtualisation_interception.png"
       inkscape:export-ydpi="90"
       inkscape:export-xdpi="90"
       d="m 451.7953,408.54855 -204.31497,0"
       id="path79"
       inkscape:connector-curvature="0"
       style="fill:#000000;fill-opacity:0;fill-rule:nonzero" />
    <path
       inkscape:export-filename="/home/cross-l/Informatique/SIMGRID/doc/Pictures/png/Virtualisation_interception.png"
       inkscape:export-ydpi="90"
       inkscape:export-xdpi="90"
       d="m 439.7953,408.54855 -180.31497,0"
       id="path81"
       inkscape:connector-curvature="0"
       style="fill-rule:evenodd;stroke:#000000;stroke-width:2;stroke-linecap:butt;stroke-linejoin:round" />
    <path
       inkscape:export-filename="/home/cross-l/Informatique/SIMGRID/doc/Pictures/png/Virtualisation_interception.png"
       inkscape:export-ydpi="90"
       inkscape:export-xdpi="90"
       d="m 439.7953,411.85202 9.07617,-3.30347 -9.07617,-3.30346 z"
       id="path83"
       inkscape:connector-curvature="0"
       style="fill:#000000;fill-rule:evenodd;stroke:#000000;stroke-width:2;stroke-linecap:butt" />
    <path
       inkscape:export-filename="/home/cross-l/Informatique/SIMGRID/doc/Pictures/png/Virtualisation_interception.png"
       inkscape:export-ydpi="90"
       inkscape:export-xdpi="90"
       d="m 259.48032,405.2451 -9.0762,3.30347 9.0762,3.30346 z"
       id="path85"
       inkscape:connector-curvature="0"
       style="fill:#000000;fill-rule:evenodd;stroke:#000000;stroke-width:2;stroke-linecap:butt" />
    <path
       inkscape:export-filename="/home/cross-l/Informatique/SIMGRID/doc/Pictures/png/Virtualisation_interception.png"
       inkscape:export-ydpi="90"
       inkscape:export-xdpi="90"
       d="m 62.76378,487.89502 196.56694,0 0,55.65356 -196.56694,0 z"
       id="path87"
       inkscape:connector-curvature="0"
       style="fill:#000000;fill-opacity:0;fill-rule:nonzero" />
    <path
       inkscape:export-filename="/home/cross-l/Informatique/SIMGRID/doc/Pictures/png/Virtualisation_interception.png"
       inkscape:export-ydpi="90"
       inkscape:export-xdpi="90"
       d="m 91.54334,500.80188 1.515625,0 0,6.60937 q 0,1.73438 -0.390625,2.75 -0.390625,1.01563 -1.40625,1.65625 -1.015625,0.64063 -2.671875,0.64063 -1.609375,0 -2.640625,-0.5625 -1.015625,-0.5625 -1.453125,-1.60938 -0.4375,-1.04687 -0.4375,-2.875 l 0,-6.60937 1.515625,0 0,6.60937 q 0,1.48438 0.265625,2.20313 0.28125,0.70312 0.953125,1.09375 0.6875,0.375 1.65625,0.375 1.671875,0 2.375,-0.75 0.71875,-0.76563 0.71875,-2.92188 l 0,-6.60937 z m 6.929687,10.1875 0.203125,1.25 q -0.59375,0.125 -1.0625,0.125 -0.765625,0 -1.1875,-0.23438 -0.421875,-0.25 -0.59375,-0.64062 -0.171875,-0.40625 -0.171875,-1.67188 l 0,-4.76562 -1.03125,0 0,-1.09375 1.03125,0 0,-2.0625 1.40625,-0.84375 0,2.90625 1.40625,0 0,1.09375 -1.40625,0 0,4.84375 q 0,0.60937 0.0625,0.78125 0.07813,0.17187 0.25,0.28125 0.171875,0.0937 0.484375,0.0937 0.234375,0 0.609375,-0.0625 z m 1.382813,-8.57813 0,-1.60937 1.40625,0 0,1.60937 -1.40625,0 z m 0,9.84375 0,-8.29687 1.40625,0 0,8.29687 -1.40625,0 z m 3.52344,0 0,-11.45312 1.40625,0 0,11.45312 -1.40625,0 z m 3.58594,-9.84375 0,-1.60937 1.40625,0 0,1.60937 -1.40625,0 z m 0,9.84375 0,-8.29687 1.40625,0 0,8.29687 -1.40625,0 z m 2.99218,-2.48437 1.39063,-0.21875 q 0.10937,0.84375 0.64062,1.29687 0.54688,0.4375 1.5,0.4375 0.96875,0 1.4375,-0.39062 0.46875,-0.40625 0.46875,-0.9375 0,-0.46875 -0.40625,-0.75 -0.29687,-0.1875 -1.4375,-0.46875 -1.54687,-0.39063 -2.15625,-0.67188 -0.59375,-0.29687 -0.90625,-0.79687 -0.29687,-0.5 -0.29687,-1.10938 0,-0.5625 0.25,-1.03125 0.25,-0.46875 0.6875,-0.78125 0.32812,-0.25 0.89062,-0.40625 0.57813,-0.17187 1.21875,-0.17187 0.98438,0 1.71875,0.28125 0.73438,0.28125 1.07813,0.76562 0.35937,0.46875 0.5,1.28125 l -1.375,0.1875 q -0.0937,-0.64062 -0.54688,-1 -0.45312,-0.35937 -1.26562,-0.35937 -0.96875,0 -1.39063,0.32812 -0.40625,0.3125 -0.40625,0.73438 0,0.28125 0.17188,0.5 0.17187,0.21875 0.53125,0.375 0.21875,0.0781 1.25,0.35937 1.48437,0.39063 2.07812,0.65625 0.59375,0.25 0.92188,0.73438 0.34375,0.48437 0.34375,1.20312 0,0.70313 -0.42188,1.32813 -0.40625,0.60937 -1.1875,0.95312 -0.76562,0.34375 -1.73437,0.34375 -1.625,0 -2.46875,-0.67187 -0.84375,-0.67188 -1.07813,-2 z m 14.23438,-0.1875 1.45312,0.17187 q -0.34375,1.28125 -1.28125,1.98438 -0.92187,0.70312 -2.35937,0.70312 -1.82813,0 -2.89063,-1.125 -1.0625,-1.125 -1.0625,-3.14062 0,-2.09375 1.07813,-3.25 1.07812,-1.15625 2.79687,-1.15625 1.65625,0 2.70313,1.14062 1.0625,1.125 1.0625,3.17188 0,0.125 0,0.375 l -6.1875,0 q 0.0781,1.375 0.76562,2.10937 0.70313,0.71875 1.73438,0.71875 0.78125,0 1.32812,-0.40625 0.54688,-0.40625 0.85938,-1.29687 z m -4.60938,-2.28125 4.625,0 q -0.0937,-1.04688 -0.53125,-1.5625 -0.67187,-0.8125 -1.73437,-0.8125 -0.96875,0 -1.64063,0.65625 -0.65625,0.64062 -0.71875,1.71875 z m 1.60938,-4.375 1.04687,-2.1875 1.84375,0 -1.71875,2.1875 -1.17187,0 z m 10.67188,12.51562 0,-11.48437 1.28125,0 0,1.07812 q 0.45313,-0.64062 1.01563,-0.95312 0.57812,-0.3125 1.39062,-0.3125 1.0625,0 1.875,0.54687 0.8125,0.54688 1.21875,1.54688 0.42188,0.98437 0.42188,2.17187 0,1.28125 -0.46875,2.29688 -0.45313,1.01562 -1.32813,1.5625 -0.85937,0.54687 -1.82812,0.54687 -0.70313,0 -1.26563,-0.29687 -0.54687,-0.29688 -0.90625,-0.75 l 0,4.04687 -1.40625,0 z m 1.26563,-7.29687 q 0,1.60937 0.64062,2.375 0.65625,0.76562 1.57813,0.76562 0.9375,0 1.60937,-0.79687 0.67188,-0.79688 0.67188,-2.45313 0,-1.59375 -0.65625,-2.375 -0.65625,-0.79687 -1.5625,-0.79687 -0.89063,0 -1.59375,0.84375 -0.6875,0.84375 -0.6875,2.4375 z m 7.10156,-0.0469 q 0,-2.29687 1.28125,-3.40625 1.07812,-0.92187 2.60937,-0.92187 1.71875,0 2.79688,1.125 1.09375,1.10937 1.09375,3.09375 0,1.59375 -0.48438,2.51562 -0.48437,0.92188 -1.40625,1.4375 -0.90625,0.5 -2,0.5 -1.73437,0 -2.8125,-1.10937 -1.07812,-1.125 -1.07812,-3.23438 z m 1.45312,0 q 0,1.59375 0.6875,2.39063 0.70313,0.79687 1.75,0.79687 1.04688,0 1.73438,-0.79687 0.70312,-0.79688 0.70312,-2.4375 0,-1.53125 -0.70312,-2.32813 -0.6875,-0.79687 -1.73438,-0.79687 -1.04687,0 -1.75,0.79687 -0.6875,0.78125 -0.6875,2.375 z m 13.41407,4.15625 0,-1.21875 q -0.96875,1.40625 -2.64063,1.40625 -0.73437,0 -1.375,-0.28125 -0.625,-0.28125 -0.9375,-0.70312 -0.3125,-0.4375 -0.4375,-1.04688 -0.0781,-0.42187 -0.0781,-1.3125 l 0,-5.14062 1.40625,0 0,4.59375 q 0,1.10937 0.0781,1.48437 0.14063,0.5625 0.5625,0.875 0.4375,0.3125 1.0625,0.3125 0.64063,0 1.1875,-0.3125 0.5625,-0.32812 0.78125,-0.89062 0.23438,-0.5625 0.23438,-1.625 l 0,-4.4375 1.40625,0 0,8.29687 -1.25,0 z m 3.44531,0 0,-8.29687 1.26562,0 0,1.25 q 0.48438,-0.875 0.89063,-1.15625 0.40625,-0.28125 0.90625,-0.28125 0.70312,0 1.4375,0.45312 l -0.48438,1.29688 q -0.51562,-0.29688 -1.03125,-0.29688 -0.45312,0 -0.82812,0.28125 -0.35938,0.26563 -0.51563,0.76563 -0.23437,0.75 -0.23437,1.64062 l 0,4.34375 -1.40625,0 z m 15.19531,-3.04687 1.39063,0.1875 q -0.23438,1.42187 -1.17188,2.23437 -0.92187,0.8125 -2.28125,0.8125 -1.70312,0 -2.75,-1.10937 -1.03125,-1.125 -1.03125,-3.20313 0,-1.34375 0.4375,-2.34375 0.45313,-1.01562 1.35938,-1.51562 0.92187,-0.5 1.98437,-0.5 1.35938,0 2.21875,0.6875 0.85938,0.67187 1.09375,1.9375 l -1.35937,0.20312 q -0.20313,-0.82812 -0.70313,-1.25 -0.48437,-0.42187 -1.1875,-0.42187 -1.0625,0 -1.73437,0.76562 -0.65625,0.75 -0.65625,2.40625 0,1.67188 0.64062,2.4375 0.64063,0.75 1.67188,0.75 0.82812,0 1.375,-0.5 0.5625,-0.51562 0.70312,-1.57812 z m 8,2.01562 q -0.78125,0.67188 -1.5,0.95313 -0.71875,0.26562 -1.54687,0.26562 -1.375,0 -2.10938,-0.67187 -0.73437,-0.67188 -0.73437,-1.70313 0,-0.60937 0.28125,-1.10937 0.28125,-0.51563 0.71875,-0.8125 0.45312,-0.3125 1.01562,-0.46875 0.42188,-0.10938 1.25,-0.20313 1.70313,-0.20312 2.51563,-0.48437 0,-0.29688 0,-0.375 0,-0.85938 -0.39063,-1.20313 -0.54687,-0.48437 -1.60937,-0.48437 -0.98438,0 -1.46875,0.35937 -0.46875,0.34375 -0.6875,1.21875 l -1.375,-0.1875 q 0.1875,-0.875 0.60937,-1.42187 0.4375,-0.54688 1.25,-0.82813 0.8125,-0.29687 1.875,-0.29687 1.0625,0 1.71875,0.25 0.67188,0.25 0.98438,0.625 0.3125,0.375 0.4375,0.95312 0.0781,0.35938 0.0781,1.29688 l 0,1.875 q 0,1.96875 0.0781,2.48437 0.0937,0.51563 0.35937,1 l -1.46875,0 q -0.21875,-0.4375 -0.28125,-1.03125 z m -0.10937,-3.14062 q -0.76563,0.3125 -2.29688,0.53125 -0.875,0.125 -1.23437,0.28125 -0.35938,0.15625 -0.5625,0.46875 -0.1875,0.29687 -0.1875,0.65625 0,0.5625 0.42187,0.9375 0.4375,0.375 1.25,0.375 0.8125,0 1.4375,-0.34375 0.64063,-0.35938 0.9375,-0.98438 0.23438,-0.46875 0.23438,-1.40625 l 0,-0.51562 z m 3.57031,4.17187 0,-11.45312 1.40625,0 0,11.45312 -1.40625,0 z m 8.99219,-3.04687 1.39062,0.1875 q -0.23437,1.42187 -1.17187,2.23437 -0.92188,0.8125 -2.28125,0.8125 -1.70313,0 -2.75,-1.10937 -1.03125,-1.125 -1.03125,-3.20313 0,-1.34375 0.4375,-2.34375 0.45312,-1.01562 1.35937,-1.51562 0.92188,-0.5 1.98438,-0.5 1.35937,0 2.21875,0.6875 0.85937,0.67187 1.09375,1.9375 l -1.35938,0.20312 q -0.20312,-0.82812 -0.70312,-1.25 -0.48438,-0.42187 -1.1875,-0.42187 -1.0625,0 -1.73438,0.76562 -0.65625,0.75 -0.65625,2.40625 0,1.67188 0.64063,2.4375 0.64062,0.75 1.67187,0.75 0.82813,0 1.375,-0.5 0.5625,-0.51562 0.70313,-1.57812 z m 8.03125,3.04687 0,-1.21875 q -0.96875,1.40625 -2.64063,1.40625 -0.73437,0 -1.375,-0.28125 -0.625,-0.28125 -0.9375,-0.70312 -0.3125,-0.4375 -0.4375,-1.04688 -0.0781,-0.42187 -0.0781,-1.3125 l 0,-5.14062 1.40625,0 0,4.59375 q 0,1.10937 0.0781,1.48437 0.14063,0.5625 0.5625,0.875 0.4375,0.3125 1.0625,0.3125 0.64063,0 1.1875,-0.3125 0.5625,-0.32812 0.78125,-0.89062 0.23438,-0.5625 0.23438,-1.625 l 0,-4.4375 1.40625,0 0,8.29687 -1.25,0 z m 3.42968,0 0,-11.45312 1.40625,0 0,11.45312 -1.40625,0 z m 9.25782,-2.67187 1.45312,0.17187 q -0.34375,1.28125 -1.28125,1.98438 -0.92187,0.70312 -2.35937,0.70312 -1.82813,0 -2.89063,-1.125 -1.0625,-1.125 -1.0625,-3.14062 0,-2.09375 1.07813,-3.25 1.07812,-1.15625 2.79687,-1.15625 1.65625,0 2.70313,1.14062 1.0625,1.125 1.0625,3.17188 0,0.125 0,0.375 l -6.1875,0 q 0.0781,1.375 0.76562,2.10937 0.70313,0.71875 1.73438,0.71875 0.78125,0 1.32812,-0.40625 0.54688,-0.40625 0.85938,-1.29687 z m -4.60938,-2.28125 4.625,0 q -0.0937,-1.04688 -0.53125,-1.5625 -0.67187,-0.8125 -1.73437,-0.8125 -0.96875,0 -1.64063,0.65625 -0.65625,0.64062 -0.71875,1.71875 z m 7.82031,4.95312 0,-8.29687 1.26563,0 0,1.25 q 0.48437,-0.875 0.89062,-1.15625 0.40625,-0.28125 0.90625,-0.28125 0.70313,0 1.4375,0.45312 l -0.48437,1.29688 q -0.51563,-0.29688 -1.03125,-0.29688 -0.45313,0 -0.82813,0.28125 -0.35937,0.26563 -0.51562,0.76563 -0.23438,0.75 -0.23438,1.64062 l 0,4.34375 -1.40625,0 z m 9.75782,0 0,-11.45312 1.40625,0 0,11.45312 -1.40625,0 z m 9.25781,-2.67187 1.45312,0.17187 q -0.34375,1.28125 -1.28125,1.98438 -0.92187,0.70312 -2.35937,0.70312 -1.82813,0 -2.89063,-1.125 -1.0625,-1.125 -1.0625,-3.14062 0,-2.09375 1.07813,-3.25 1.07812,-1.15625 2.79687,-1.15625 1.65625,0 2.70313,1.14062 1.0625,1.125 1.0625,3.17188 0,0.125 0,0.375 l -6.1875,0 q 0.0781,1.375 0.76562,2.10937 0.70313,0.71875 1.73438,0.71875 0.78125,0 1.32812,-0.40625 0.54688,-0.40625 0.85938,-1.29687 z m -4.60938,-2.28125 4.625,0 q -0.0937,-1.04688 -0.53125,-1.5625 -0.67187,-0.8125 -1.73437,-0.8125 -0.96875,0 -1.64063,0.65625 -0.65625,0.64062 -0.71875,1.71875 z"
       id="path89"
       inkscape:connector-curvature="0"
       style="fill:#0000ff;fill-rule:nonzero" />
    <path
       inkscape:export-filename="/home/cross-l/Informatique/SIMGRID/doc/Pictures/png/Virtualisation_interception.png"
       inkscape:export-ydpi="90"
       inkscape:export-xdpi="90"
       d="m 81.562874,529.9894 0.203125,1.25 q -0.59375,0.125 -1.0625,0.125 -0.765625,0 -1.1875,-0.23437 -0.421875,-0.25 -0.59375,-0.64063 -0.171875,-0.40625 -0.171875,-1.67187 l 0,-4.76563 -1.03125,0 0,-1.09375 1.03125,0 0,-2.0625 1.40625,-0.84375 0,2.90625 1.40625,0 0,1.09375 -1.40625,0 0,4.84375 q 0,0.60938 0.0625,0.78125 0.07813,0.17188 0.25,0.28125 0.171875,0.0937 0.484375,0.0937 0.234375,0 0.609375,-0.0625 z m 7.054687,-1.40625 1.453125,0.17188 q -0.34375,1.28125 -1.28125,1.98437 -0.921875,0.70313 -2.359375,0.70313 -1.828125,0 -2.890625,-1.125 -1.0625,-1.125 -1.0625,-3.14063 0,-2.09375 1.078125,-3.25 1.078125,-1.15625 2.796875,-1.15625 1.65625,0 2.703125,1.14063 1.0625,1.125 1.0625,3.17187 0,0.125 0,0.375 l -6.1875,0 q 0.07813,1.375 0.765625,2.10938 0.703125,0.71875 1.734375,0.71875 0.78125,0 1.328125,-0.40625 0.546875,-0.40625 0.859375,-1.29688 z m -4.609375,-2.28125 4.625,0 q -0.09375,-1.04687 -0.53125,-1.5625 -0.671875,-0.8125 -1.734375,-0.8125 -0.96875,0 -1.640625,0.65625 -0.65625,0.64063 -0.71875,1.71875 z m 7.835938,4.95313 0,-8.29688 1.25,0 0,1.15625 q 0.390625,-0.60937 1.03125,-0.96875 0.65625,-0.375 1.484375,-0.375 0.921875,0 1.515625,0.39063 0.59375,0.375 0.828125,1.0625 0.984375,-1.45313 2.562501,-1.45313 1.23437,0 1.89062,0.6875 0.67188,0.67188 0.67188,2.09375 l 0,5.70313 -1.39063,0 0,-5.23438 q 0,-0.84375 -0.14062,-1.20312 -0.14063,-0.375 -0.5,-0.59375 -0.35938,-0.23438 -0.84375,-0.23438 -0.875001,0 -1.453126,0.57813 -0.578125,0.57812 -0.578125,1.85937 l 0,4.82813 -1.40625,0 0,-5.39063 q 0,-0.9375 -0.34375,-1.40625 -0.34375,-0.46875 -1.125,-0.46875 -0.59375,0 -1.09375,0.3125 -0.5,0.3125 -0.734375,0.92188 -0.21875,0.59375 -0.21875,1.71875 l 0,4.3125 -1.40625,0 z m 13.328126,3.1875 0,-11.48438 1.28125,0 0,1.07813 q 0.45312,-0.64063 1.01562,-0.95313 0.57813,-0.3125 1.39063,-0.3125 1.0625,0 1.875,0.54688 0.8125,0.54687 1.21875,1.54687 0.42187,0.98438 0.42187,2.17188 0,1.28125 -0.46875,2.29687 -0.45312,1.01563 -1.32812,1.5625 -0.85938,0.54688 -1.82813,0.54688 -0.70312,0 -1.26562,-0.29688 -0.54688,-0.29687 -0.90625,-0.75 l 0,4.04688 -1.40625,0 z m 1.26562,-7.29688 q 0,1.60938 0.64063,2.375 0.65625,0.76563 1.57812,0.76563 0.9375,0 1.60938,-0.79688 0.67187,-0.79687 0.67187,-2.45312 0,-1.59375 -0.65625,-2.375 -0.65625,-0.79688 -1.5625,-0.79688 -0.89062,0 -1.59375,0.84375 -0.6875,0.84375 -0.6875,2.4375 z m 7.07032,1.625 1.39062,-0.21875 q 0.10938,0.84375 0.64063,1.29688 0.54687,0.4375 1.5,0.4375 0.96875,0 1.4375,-0.39063 0.46875,-0.40625 0.46875,-0.9375 0,-0.46875 -0.40625,-0.75 -0.29688,-0.1875 -1.4375,-0.46875 -1.54688,-0.39062 -2.15625,-0.67187 -0.59375,-0.29688 -0.90625,-0.79688 -0.29688,-0.5 -0.29688,-1.10937 0,-0.5625 0.25,-1.03125 0.25,-0.46875 0.6875,-0.78125 0.32813,-0.25 0.89063,-0.40625 0.57812,-0.17188 1.21875,-0.17188 0.98437,0 1.71875,0.28125 0.73437,0.28125 1.07812,0.76563 0.35938,0.46875 0.5,1.28125 l -1.375,0.1875 q -0.0937,-0.64063 -0.54687,-1 -0.45313,-0.35938 -1.26563,-0.35938 -0.96875,0 -1.39062,0.32813 -0.40625,0.3125 -0.40625,0.73437 0,0.28125 0.17187,0.5 0.17188,0.21875 0.53125,0.375 0.21875,0.0781 1.25,0.35938 1.48438,0.39062 2.07813,0.65625 0.59375,0.25 0.92187,0.73437 0.34375,0.48438 0.34375,1.20313 0,0.70312 -0.42187,1.32812 -0.40625,0.60938 -1.1875,0.95313 -0.76563,0.34375 -1.73438,0.34375 -1.625,0 -2.46875,-0.67188 -0.84375,-0.67187 -1.07812,-2 z m 18.38282,2.48438 0,-1.04688 q -0.78125,1.23438 -2.3125,1.23438 -1,0 -1.82814,-0.54688 -0.82812,-0.54687 -1.29687,-1.53125 -0.45313,-0.98437 -0.45313,-2.25 0,-1.25 0.40625,-2.25 0.42188,-1.01562 1.25,-1.54687 0.82814,-0.54688 1.85939,-0.54688 0.75,0 1.32812,0.3125 0.59375,0.3125 0.95313,0.82813 l 0,-4.10938 1.40625,0 0,11.45313 -1.3125,0 z m -4.43751,-4.14063 q 0,1.59375 0.67188,2.39063 0.67188,0.78125 1.57813,0.78125 0.92187,0 1.5625,-0.75 0.65625,-0.76563 0.65625,-2.3125 0,-1.70313 -0.65625,-2.5 -0.65625,-0.79688 -1.625,-0.79688 -0.9375,0 -1.5625,0.76563 -0.62501,0.76562 -0.62501,2.42187 z m 13.63282,1.46875 1.45312,0.17188 q -0.34375,1.28125 -1.28125,1.98437 -0.92187,0.70313 -2.35937,0.70313 -1.82813,0 -2.89063,-1.125 -1.0625,-1.125 -1.0625,-3.14063 0,-2.09375 1.07813,-3.25 1.07812,-1.15625 2.79687,-1.15625 1.65625,0 2.70313,1.14063 1.0625,1.125 1.0625,3.17187 0,0.125 0,0.375 l -6.1875,0 q 0.0781,1.375 0.76562,2.10938 0.70313,0.71875 1.73438,0.71875 0.78125,0 1.32812,-0.40625 0.54688,-0.40625 0.85938,-1.29688 z m -4.60938,-2.28125 4.625,0 q -0.0937,-1.04687 -0.53125,-1.5625 -0.67187,-0.8125 -1.73437,-0.8125 -0.96875,0 -1.64063,0.65625 -0.65625,0.64063 -0.71875,1.71875 z m 12.26563,4.95313 0,-8.29688 1.26562,0 0,1.25 q 0.48438,-0.875 0.89063,-1.15625 0.40625,-0.28125 0.90625,-0.28125 0.70312,0 1.4375,0.45313 l -0.48438,1.29687 q -0.51562,-0.29687 -1.03125,-0.29687 -0.45312,0 -0.82812,0.28125 -0.35938,0.26562 -0.51563,0.76562 -0.23437,0.75 -0.23437,1.64063 l 0,4.34375 -1.40625,0 z m 11.01562,-2.67188 1.45313,0.17188 q -0.34375,1.28125 -1.28125,1.98437 -0.92188,0.70313 -2.35938,0.70313 -1.82812,0 -2.89062,-1.125 -1.0625,-1.125 -1.0625,-3.14063 0,-2.09375 1.07812,-3.25 1.07813,-1.15625 2.79688,-1.15625 1.65625,0 2.70312,1.14063 1.0625,1.125 1.0625,3.17187 0,0.125 0,0.375 l -6.1875,0 q 0.0781,1.375 0.76563,2.10938 0.70312,0.71875 1.73437,0.71875 0.78125,0 1.32813,-0.40625 0.54687,-0.40625 0.85937,-1.29688 z m -4.60937,-2.28125 4.625,0 q -0.0937,-1.04687 -0.53125,-1.5625 -0.67188,-0.8125 -1.73438,-0.8125 -0.96875,0 -1.64062,0.65625 -0.65625,0.64063 -0.71875,1.71875 z m 1.60937,-4.375 1.04688,-2.1875 1.84375,0 -1.71875,2.1875 -1.17188,0 z m 6.22657,12.51563 0,-11.48438 1.28125,0 0,1.07813 q 0.45312,-0.64063 1.01562,-0.95313 0.57813,-0.3125 1.39063,-0.3125 1.0625,0 1.875,0.54688 0.8125,0.54687 1.21875,1.54687 0.42187,0.98438 0.42187,2.17188 0,1.28125 -0.46875,2.29687 -0.45312,1.01563 -1.32812,1.5625 -0.85938,0.54688 -1.82813,0.54688 -0.70312,0 -1.26562,-0.29688 -0.54688,-0.29687 -0.90625,-0.75 l 0,4.04688 -1.40625,0 z m 1.26562,-7.29688 q 0,1.60938 0.64063,2.375 0.65625,0.76563 1.57812,0.76563 0.9375,0 1.60938,-0.79688 0.67187,-0.79687 0.67187,-2.45312 0,-1.59375 -0.65625,-2.375 -0.65625,-0.79688 -1.5625,-0.79688 -0.89062,0 -1.59375,0.84375 -0.6875,0.84375 -0.6875,2.4375 z m 7.10156,-0.0469 q 0,-2.29688 1.28125,-3.40625 1.07813,-0.92188 2.60938,-0.92188 1.71875,0 2.79687,1.125 1.09375,1.10938 1.09375,3.09375 0,1.59375 -0.48437,2.51563 -0.48438,0.92187 -1.40625,1.4375 -0.90625,0.5 -2,0.5 -1.73438,0 -2.8125,-1.10938 -1.07813,-1.125 -1.07813,-3.23437 z m 1.45313,0 q 0,1.59375 0.6875,2.39062 0.70312,0.79688 1.75,0.79688 1.04687,0 1.73437,-0.79688 0.70313,-0.79687 0.70313,-2.4375 0,-1.53125 -0.70313,-2.32812 -0.6875,-0.79688 -1.73437,-0.79688 -1.04688,0 -1.75,0.79688 -0.6875,0.78125 -0.6875,2.375 z m 7.97656,4.15625 0,-8.29688 1.26563,0 0,1.17188 q 0.90625,-1.35938 2.64062,-1.35938 0.75,0 1.375,0.26563 0.625,0.26562 0.9375,0.70312 0.3125,0.4375 0.4375,1.04688 0.0781,0.39062 0.0781,1.35937 l 0,5.10938 -1.40625,0 0,-5.04688 q 0,-0.85937 -0.17188,-1.28125 -0.15625,-0.4375 -0.57812,-0.6875 -0.40625,-0.25 -0.96875,-0.25 -0.90625,0 -1.5625,0.57813 -0.64063,0.5625 -0.64063,2.15625 l 0,4.53125 -1.40625,0 z m 8.33594,-2.48438 1.39062,-0.21875 q 0.10938,0.84375 0.64063,1.29688 0.54687,0.4375 1.5,0.4375 0.96875,0 1.4375,-0.39063 0.46875,-0.40625 0.46875,-0.9375 0,-0.46875 -0.40625,-0.75 -0.29688,-0.1875 -1.4375,-0.46875 -1.54688,-0.39062 -2.15625,-0.67187 -0.59375,-0.29688 -0.90625,-0.79688 -0.29688,-0.5 -0.29688,-1.10937 0,-0.5625 0.25,-1.03125 0.25,-0.46875 0.6875,-0.78125 0.32813,-0.25 0.89063,-0.40625 0.57812,-0.17188 1.21875,-0.17188 0.98437,0 1.71875,0.28125 0.73437,0.28125 1.07812,0.76563 0.35938,0.46875 0.5,1.28125 l -1.375,0.1875 q -0.0937,-0.64063 -0.54687,-1 -0.45313,-0.35938 -1.26563,-0.35938 -0.96875,0 -1.39062,0.32813 -0.40625,0.3125 -0.40625,0.73437 0,0.28125 0.17187,0.5 0.17188,0.21875 0.53125,0.375 0.21875,0.0781 1.25,0.35938 1.48438,0.39062 2.07813,0.65625 0.59375,0.25 0.92187,0.73437 0.34375,0.48438 0.34375,1.20313 0,0.70312 -0.42187,1.32812 -0.40625,0.60938 -1.1875,0.95313 -0.76563,0.34375 -1.73438,0.34375 -1.625,0 -2.46875,-0.67188 -0.84375,-0.67187 -1.07812,-2 z m 14.23437,-0.1875 1.45313,0.17188 q -0.34375,1.28125 -1.28125,1.98437 -0.92188,0.70313 -2.35938,0.70313 -1.82812,0 -2.89062,-1.125 -1.0625,-1.125 -1.0625,-3.14063 0,-2.09375 1.07812,-3.25 1.07813,-1.15625 2.79688,-1.15625 1.65625,0 2.70312,1.14063 1.0625,1.125 1.0625,3.17187 0,0.125 0,0.375 l -6.1875,0 q 0.0781,1.375 0.76563,2.10938 0.70312,0.71875 1.73437,0.71875 0.78125,0 1.32813,-0.40625 0.54687,-0.40625 0.85937,-1.29688 z m -4.60937,-2.28125 4.625,0 q -0.0937,-1.04687 -0.53125,-1.5625 -0.67188,-0.8125 -1.73438,-0.8125 -0.96875,0 -1.64062,0.65625 -0.65625,0.64063 -0.71875,1.71875 z m 17.65625,4.95313 0,-1.04688 q -0.78125,1.23438 -2.3125,1.23438 -1,0 -1.82813,-0.54688 -0.82812,-0.54687 -1.29687,-1.53125 -0.45313,-0.98437 -0.45313,-2.25 0,-1.25 0.40625,-2.25 0.42188,-1.01562 1.25,-1.54687 0.82813,-0.54688 1.85938,-0.54688 0.75,0 1.32812,0.3125 0.59375,0.3125 0.95313,0.82813 l 0,-4.10938 1.40625,0 0,11.45313 -1.3125,0 z m -4.4375,-4.14063 q 0,1.59375 0.67187,2.39063 0.67188,0.78125 1.57813,0.78125 0.92187,0 1.5625,-0.75 0.65625,-0.76563 0.65625,-2.3125 0,-1.70313 -0.65625,-2.5 -0.65625,-0.79688 -1.625,-0.79688 -0.9375,0 -1.5625,0.76563 -0.625,0.76562 -0.625,2.42187 z m 13.36719,3.10938 q -0.78125,0.67187 -1.5,0.95312 -0.71875,0.26563 -1.54688,0.26563 -1.375,0 -2.10937,-0.67188 -0.73438,-0.67187 -0.73438,-1.70312 0,-0.60938 0.28125,-1.10938 0.28125,-0.51562 0.71875,-0.8125 0.45313,-0.3125 1.01563,-0.46875 0.42187,-0.10937 1.25,-0.20312 1.70312,-0.20313 2.51562,-0.48438 0,-0.29687 0,-0.375 0,-0.85937 -0.39062,-1.20312 -0.54688,-0.48438 -1.60938,-0.48438 -0.98437,0 -1.46875,0.35938 -0.46875,0.34375 -0.6875,1.21875 l -1.375,-0.1875 q 0.1875,-0.875 0.60938,-1.42188 0.4375,-0.54687 1.25,-0.82812 0.8125,-0.29688 1.875,-0.29688 1.0625,0 1.71875,0.25 0.67187,0.25 0.98437,0.625 0.3125,0.375 0.4375,0.95313 0.0781,0.35937 0.0781,1.29687 l 0,1.875 q 0,1.96875 0.0781,2.48438 0.0937,0.51562 0.35938,1 l -1.46875,0 q -0.21875,-0.4375 -0.28125,-1.03125 z m -0.10938,-3.14063 q -0.76562,0.3125 -2.29687,0.53125 -0.875,0.125 -1.23438,0.28125 -0.35937,0.15625 -0.5625,0.46875 -0.1875,0.29688 -0.1875,0.65625 0,0.5625 0.42188,0.9375 0.4375,0.375 1.25,0.375 0.8125,0 1.4375,-0.34375 0.64062,-0.35937 0.9375,-0.98437 0.23437,-0.46875 0.23437,-1.40625 l 0,-0.51563 z m 3.60156,4.17188 0,-8.29688 1.26563,0 0,1.17188 q 0.90625,-1.35938 2.64062,-1.35938 0.75,0 1.375,0.26563 0.625,0.26562 0.9375,0.70312 0.3125,0.4375 0.4375,1.04688 0.0781,0.39062 0.0781,1.35937 l 0,5.10938 -1.40625,0 0,-5.04688 q 0,-0.85937 -0.17188,-1.28125 -0.15625,-0.4375 -0.57812,-0.6875 -0.40625,-0.25 -0.96875,-0.25 -0.90625,0 -1.5625,0.57813 -0.64063,0.5625 -0.64063,2.15625 l 0,4.53125 -1.40625,0 z m 8.33594,-2.48438 1.39063,-0.21875 q 0.10937,0.84375 0.64062,1.29688 0.54688,0.4375 1.5,0.4375 0.96875,0 1.4375,-0.39063 0.46875,-0.40625 0.46875,-0.9375 0,-0.46875 -0.40625,-0.75 -0.29687,-0.1875 -1.4375,-0.46875 -1.54687,-0.39062 -2.15625,-0.67187 -0.59375,-0.29688 -0.90625,-0.79688 -0.29687,-0.5 -0.29687,-1.10937 0,-0.5625 0.25,-1.03125 0.25,-0.46875 0.6875,-0.78125 0.32812,-0.25 0.89062,-0.40625 0.57813,-0.17188 1.21875,-0.17188 0.98438,0 1.71875,0.28125 0.73438,0.28125 1.07813,0.76563 0.35937,0.46875 0.5,1.28125 l -1.375,0.1875 q -0.0937,-0.64063 -0.54688,-1 -0.45312,-0.35938 -1.26562,-0.35938 -0.96875,0 -1.39063,0.32813 -0.40625,0.3125 -0.40625,0.73437 0,0.28125 0.17188,0.5 0.17187,0.21875 0.53125,0.375 0.21875,0.0781 1.25,0.35938 1.48437,0.39062 2.07812,0.65625 0.59375,0.25 0.92188,0.73437 0.34375,0.48438 0.34375,1.20313 0,0.70312 -0.42188,1.32812 -0.40625,0.60938 -1.1875,0.95313 -0.76562,0.34375 -1.73437,0.34375 -1.625,0 -2.46875,-0.67188 -0.84375,-0.67187 -1.07813,-2 z"
       id="path91"
       inkscape:connector-curvature="0"
       style="fill:#0000ff;fill-rule:nonzero" />
    <path
       inkscape:export-filename="/home/cross-l/Informatique/SIMGRID/doc/Pictures/png/Virtualisation_interception.png"
       inkscape:export-ydpi="90"
       inkscape:export-xdpi="90"
       d="m 80.26209,550.255 0,-11.45313 1.40625,0 0,11.45313 -1.40625,0 z m 3.492187,-9.9375 0,-1.64063 1.515625,0 0,1.29688 q 0,1.04687 -0.25,1.5 -0.328125,0.64062 -1.046875,0.95312 L 83.629277,541.88 q 0.421875,-0.17188 0.625,-0.54688 0.21875,-0.375 0.234375,-1.01562 l -0.734375,0 z m 9.320313,7.26562 1.453125,0.17188 q -0.34375,1.28125 -1.28125,1.98437 -0.921875,0.70313 -2.359375,0.70313 -1.828125,0 -2.890625,-1.125 -1.0625,-1.125 -1.0625,-3.14063 0,-2.09375 1.078125,-3.25 1.078125,-1.15625 2.796875,-1.15625 1.65625,0 2.703125,1.14063 1.0625,1.125 1.0625,3.17187 0,0.125 0,0.375 l -6.1875,0 q 0.07813,1.375 0.765625,2.10938 0.703125,0.71875 1.734375,0.71875 0.78125,0 1.328125,-0.40625 0.546875,-0.40625 0.859375,-1.29688 z m -4.609375,-2.28125 4.625,0 q -0.09375,-1.04687 -0.53125,-1.5625 -0.671875,-0.8125 -1.734375,-0.8125 -0.96875,0 -1.640625,0.65625 -0.65625,0.64063 -0.71875,1.71875 z m 7.835937,4.95313 0,-8.29688 1.265625,0 0,1.17188 q 0.90625,-1.35938 2.640623,-1.35938 0.75,0 1.375,0.26563 0.625,0.26562 0.9375,0.70312 0.3125,0.4375 0.4375,1.04688 0.0781,0.39062 0.0781,1.35937 l 0,5.10938 -1.40625,0 0,-5.04688 q 0,-0.85937 -0.17188,-1.28125 -0.15625,-0.4375 -0.57812,-0.6875 -0.40625,-0.25 -0.968753,-0.25 -0.90625,0 -1.5625,0.57813 -0.640625,0.5625 -0.640625,2.15625 l 0,4.53125 -1.40625,0 z m 11.195318,0 -3.15625,-8.29688 1.48437,0 1.78125,4.96875 q 0.29688,0.79688 0.53125,1.67188 0.1875,-0.65625 0.53125,-1.57813 l 1.84375,-5.0625 1.4375,0 -3.14062,8.29688 -1.3125,0 z m 5.70312,-9.84375 0,-1.60938 1.40625,0 0,1.60938 -1.40625,0 z m 0,9.84375 0,-8.29688 1.40625,0 0,8.29688 -1.40625,0 z m 3.53906,0 0,-8.29688 1.26563,0 0,1.25 q 0.48437,-0.875 0.89062,-1.15625 0.40625,-0.28125 0.90625,-0.28125 0.70313,0 1.4375,0.45313 l -0.48437,1.29687 q -0.51563,-0.29687 -1.03125,-0.29687 -0.45313,0 -0.82813,0.28125 -0.35937,0.26562 -0.51562,0.76562 -0.23438,0.75 -0.23438,1.64063 l 0,4.34375 -1.40625,0 z m 4.8125,-4.15625 q 0,-2.29688 1.28125,-3.40625 1.07813,-0.92188 2.60938,-0.92188 1.71875,0 2.79688,1.125 1.09375,1.10938 1.09375,3.09375 0,1.59375 -0.48437,2.51563 -0.48438,0.92187 -1.40626,1.4375 -0.90625,0.5 -2,0.5 -1.73438,0 -2.8125,-1.10938 -1.07813,-1.125 -1.07813,-3.23437 z m 1.45313,0 q 0,1.59375 0.6875,2.39062 0.70312,0.79688 1.75,0.79688 1.04687,0 1.73437,-0.79688 0.70313,-0.79687 0.70313,-2.4375 0,-1.53125 -0.70313,-2.32812 -0.6875,-0.79688 -1.73437,-0.79688 -1.04688,0 -1.75,0.79688 -0.6875,0.78125 -0.6875,2.375 z m 7.97657,4.15625 0,-8.29688 1.26562,0 0,1.17188 q 0.90625,-1.35938 2.64063,-1.35938 0.75,0 1.375,0.26563 0.625,0.26562 0.9375,0.70312 0.3125,0.4375 0.4375,1.04688 0.0781,0.39062 0.0781,1.35937 l 0,5.10938 -1.40625,0 0,-5.04688 q 0,-0.85937 -0.17187,-1.28125 -0.15625,-0.4375 -0.57813,-0.6875 -0.40625,-0.25 -0.96875,-0.25 -0.90625,0 -1.5625,0.57813 -0.64062,0.5625 -0.64062,2.15625 l 0,4.53125 -1.40625,0 z m 8.89843,0 0,-8.29688 1.26563,0 0,1.17188 q 0.90625,-1.35938 2.64062,-1.35938 0.75,0 1.375,0.26563 0.625,0.26562 0.9375,0.70312 0.3125,0.4375 0.4375,1.04688 0.0781,0.39062 0.0781,1.35937 l 0,5.10938 -1.40625,0 0,-5.04688 q 0,-0.85937 -0.17188,-1.28125 -0.15625,-0.4375 -0.57812,-0.6875 -0.40625,-0.25 -0.96875,-0.25 -0.90625,0 -1.5625,0.57813 -0.64063,0.5625 -0.64063,2.15625 l 0,4.53125 -1.40625,0 z m 14.57032,-2.67188 1.45312,0.17188 q -0.34375,1.28125 -1.28125,1.98437 -0.92187,0.70313 -2.35937,0.70313 -1.82813,0 -2.89063,-1.125 -1.0625,-1.125 -1.0625,-3.14063 0,-2.09375 1.07813,-3.25 1.07812,-1.15625 2.79687,-1.15625 1.65625,0 2.70313,1.14063 1.0625,1.125 1.0625,3.17187 0,0.125 0,0.375 l -6.1875,0 q 0.0781,1.375 0.76562,2.10938 0.70313,0.71875 1.73438,0.71875 0.78125,0 1.32812,-0.40625 0.54688,-0.40625 0.85938,-1.29688 z m -4.60938,-2.28125 4.625,0 q -0.0937,-1.04687 -0.53125,-1.5625 -0.67187,-0.8125 -1.73437,-0.8125 -0.96875,0 -1.64063,0.65625 -0.65625,0.64063 -0.71875,1.71875 z m 7.83594,4.95313 0,-8.29688 1.25,0 0,1.15625 q 0.39062,-0.60937 1.03125,-0.96875 0.65625,-0.375 1.48437,-0.375 0.92188,0 1.51563,0.39063 0.59375,0.375 0.82812,1.0625 0.98438,-1.45313 2.5625,-1.45313 1.23438,0 1.89063,0.6875 0.67187,0.67188 0.67187,2.09375 l 0,5.70313 -1.39062,0 0,-5.23438 q 0,-0.84375 -0.14063,-1.20312 -0.14062,-0.375 -0.5,-0.59375 -0.35937,-0.23438 -0.84375,-0.23438 -0.875,0 -1.45312,0.57813 -0.57813,0.57812 -0.57813,1.85937 l 0,4.82813 -1.40625,0 0,-5.39063 q 0,-0.9375 -0.34375,-1.40625 -0.34375,-0.46875 -1.125,-0.46875 -0.59375,0 -1.09375,0.3125 -0.5,0.3125 -0.73437,0.92188 -0.21875,0.59375 -0.21875,1.71875 l 0,4.3125 -1.40625,0 z m 19,-2.67188 1.45312,0.17188 q -0.34375,1.28125 -1.28125,1.98437 -0.92187,0.70313 -2.35937,0.70313 -1.82813,0 -2.89063,-1.125 -1.0625,-1.125 -1.0625,-3.14063 0,-2.09375 1.07813,-3.25 1.07812,-1.15625 2.79687,-1.15625 1.65625,0 2.70313,1.14063 1.0625,1.125 1.0625,3.17187 0,0.125 0,0.375 l -6.1875,0 q 0.0781,1.375 0.76562,2.10938 0.70313,0.71875 1.73438,0.71875 0.78125,0 1.32812,-0.40625 0.54688,-0.40625 0.85938,-1.29688 z m -4.60938,-2.28125 4.625,0 q -0.0937,-1.04687 -0.53125,-1.5625 -0.67187,-0.8125 -1.73437,-0.8125 -0.96875,0 -1.64063,0.65625 -0.65625,0.64063 -0.71875,1.71875 z m 7.83594,4.95313 0,-8.29688 1.26563,0 0,1.17188 q 0.90625,-1.35938 2.64062,-1.35938 0.75,0 1.375,0.26563 0.625,0.26562 0.9375,0.70312 0.3125,0.4375 0.4375,1.04688 0.0781,0.39062 0.0781,1.35937 l 0,5.10938 -1.40625,0 0,-5.04688 q 0,-0.85937 -0.17188,-1.28125 -0.15625,-0.4375 -0.57812,-0.6875 -0.40625,-0.25 -0.96875,-0.25 -0.90625,0 -1.5625,0.57813 -0.64063,0.5625 -0.64063,2.15625 l 0,4.53125 -1.40625,0 z m 11.96094,-1.26563 0.20312,1.25 q -0.59375,0.125 -1.0625,0.125 -0.76562,0 -1.1875,-0.23437 -0.42187,-0.25 -0.59375,-0.64063 -0.17187,-0.40625 -0.17187,-1.67187 l 0,-4.76563 -1.03125,0 0,-1.09375 1.03125,0 0,-2.0625 1.40625,-0.84375 0,2.90625 1.40625,0 0,1.09375 -1.40625,0 0,4.84375 q 0,0.60938 0.0625,0.78125 0.0781,0.17188 0.25,0.28125 0.17187,0.0937 0.48437,0.0937 0.23438,0 0.60938,-0.0625 z m 5.26562,-1.21875 1.39063,-0.21875 q 0.10937,0.84375 0.64062,1.29688 0.54688,0.4375 1.5,0.4375 0.96875,0 1.4375,-0.39063 0.46875,-0.40625 0.46875,-0.9375 0,-0.46875 -0.40625,-0.75 -0.29687,-0.1875 -1.4375,-0.46875 -1.54687,-0.39062 -2.15625,-0.67187 -0.59375,-0.29688 -0.90625,-0.79688 -0.29687,-0.5 -0.29687,-1.10937 0,-0.5625 0.25,-1.03125 0.25,-0.46875 0.6875,-0.78125 0.32812,-0.25 0.89062,-0.40625 0.57813,-0.17188 1.21875,-0.17188 0.98438,0 1.71875,0.28125 0.73438,0.28125 1.07813,0.76563 0.35937,0.46875 0.5,1.28125 l -1.375,0.1875 q -0.0937,-0.64063 -0.54688,-1 -0.45312,-0.35938 -1.26562,-0.35938 -0.96875,0 -1.39063,0.32813 -0.40625,0.3125 -0.40625,0.73437 0,0.28125 0.17188,0.5 0.17187,0.21875 0.53125,0.375 0.21875,0.0781 1.25,0.35938 1.48437,0.39062 2.07812,0.65625 0.59375,0.25 0.92188,0.73437 0.34375,0.48438 0.34375,1.20313 0,0.70312 -0.42188,1.32812 -0.40625,0.60938 -1.1875,0.95313 -0.76562,0.34375 -1.73437,0.34375 -1.625,0 -2.46875,-0.67188 -0.84375,-0.67187 -1.07813,-2 z m 8.5625,-7.35937 0,-1.60938 1.40625,0 0,1.60938 -1.40625,0 z m 0,9.84375 0,-8.29688 1.40625,0 0,8.29688 -1.40625,0 z m 3.55469,0 0,-8.29688 1.25,0 0,1.15625 q 0.39063,-0.60937 1.03125,-0.96875 0.65625,-0.375 1.48438,-0.375 0.92187,0 1.51562,0.39063 0.59375,0.375 0.82813,1.0625 0.98437,-1.45313 2.5625,-1.45313 1.23437,0 1.89062,0.6875 0.67188,0.67188 0.67188,2.09375 l 0,5.70313 -1.39063,0 0,-5.23438 q 0,-0.84375 -0.14062,-1.20312 -0.14063,-0.375 -0.5,-0.59375 -0.35938,-0.23438 -0.84375,-0.23438 -0.875,0 -1.45313,0.57813 -0.57812,0.57812 -0.57812,1.85937 l 0,4.82813 -1.40625,0 0,-5.39063 q 0,-0.9375 -0.34375,-1.40625 -0.34375,-0.46875 -1.125,-0.46875 -0.59375,0 -1.09375,0.3125 -0.5,0.3125 -0.73438,0.92188 -0.21875,0.59375 -0.21875,1.71875 l 0,4.3125 -1.40625,0 z m 18.76563,0 0,-1.21875 q -0.96875,1.40625 -2.64063,1.40625 -0.73437,0 -1.375,-0.28125 -0.625,-0.28125 -0.9375,-0.70313 -0.3125,-0.4375 -0.4375,-1.04687 -0.0781,-0.42188 -0.0781,-1.3125 l 0,-5.14063 1.40625,0 0,4.59375 q 0,1.10938 0.0781,1.48438 0.14063,0.5625 0.5625,0.875 0.4375,0.3125 1.0625,0.3125 0.64063,0 1.1875,-0.3125 0.5625,-0.32813 0.78125,-0.89063 0.23438,-0.5625 0.23438,-1.625 l 0,-4.4375 1.40625,0 0,8.29688 -1.25,0 z m 3.42968,0 0,-11.45313 1.40625,0 0,11.45313 -1.40625,0 z m 9.25782,-2.67188 1.45312,0.17188 q -0.34375,1.28125 -1.28125,1.98437 -0.92187,0.70313 -2.35937,0.70313 -1.82813,0 -2.89063,-1.125 -1.0625,-1.125 -1.0625,-3.14063 0,-2.09375 1.07813,-3.25 1.07812,-1.15625 2.79687,-1.15625 1.65625,0 2.70313,1.14063 1.0625,1.125 1.0625,3.17187 0,0.125 0,0.375 l -6.1875,0 q 0.0781,1.375 0.76562,2.10938 0.70313,0.71875 1.73438,0.71875 0.78125,0 1.32812,-0.40625 0.54688,-0.40625 0.85938,-1.29688 z m -4.60938,-2.28125 4.625,0 q -0.0937,-1.04687 -0.53125,-1.5625 -0.67187,-0.8125 -1.73437,-0.8125 -0.96875,0 -1.64063,0.65625 -0.65625,0.64063 -0.71875,1.71875 z m 1.60938,-4.375 1.04687,-2.1875 1.84375,0 -1.71875,2.1875 -1.17187,0 z"
       id="path93"
       inkscape:connector-curvature="0"
       style="fill:#0000ff;fill-rule:nonzero" />
  </g>
</svg>
