<?xml version="1.0" encoding="UTF-8" standalone="no"?>
<!-- Created with Inkscape (http://www.inkscape.org/) -->

<svg
   xmlns:dc="http://purl.org/dc/elements/1.1/"
   xmlns:cc="http://creativecommons.org/ns#"
   xmlns:rdf="http://www.w3.org/1999/02/22-rdf-syntax-ns#"
   xmlns:svg="http://www.w3.org/2000/svg"
   xmlns="http://www.w3.org/2000/svg"
   xmlns:sodipodi="http://sodipodi.sourceforge.net/DTD/sodipodi-0.dtd"
   xmlns:inkscape="http://www.inkscape.org/namespaces/inkscape"
   id="svg3617"
   version="1.1"
   inkscape:version="0.48.4 r9939"
   width="744.095"
   height="1052.3625"
   xml:space="preserve"
   sodipodi:docname="Communication_application_noyau.svg"
   inkscape:export-filename="/home/algorille/Bureau/SIMGRID/doc/Pictures/Communication_application_noyau.png"
   inkscape:export-xdpi="90"
   inkscape:export-ydpi="90"><metadata
     id="metadata3623"><rdf:RDF><cc:Work
         rdf:about=""><dc:format>image/svg+xml</dc:format><dc:type
           rdf:resource="http://purl.org/dc/dcmitype/StillImage" /><dc:title /></cc:Work></rdf:RDF></metadata><defs
     id="defs3621"><clipPath
       clipPathUnits="userSpaceOnUse"
       id="clipPath3665"><path
         d="M 0,0 308,0 308,314 0,314 0,0 z"
         id="path3667" /></clipPath><clipPath
       clipPathUnits="userSpaceOnUse"
       id="clipPath3683"><path
         d="M 0,3140 0,0 l 3080,0 0,3140 -3080,0 z m 1436.05,-2762.617 0,-95.746 37.8,0 0,95.746 0,0 -18.9,-75.59 -18.9,75.59 z m 37.8,252.59 0,95.742 -37.8,0 0,-95.742 0,0 18.9,75.586 18.9,-75.586 z"
         clip-rule="evenodd"
         id="path3685" /></clipPath><clipPath
       clipPathUnits="userSpaceOnUse"
       id="clipPath3699"><path
         d="M 0,3140 0,0 l 3080,0 0,3140 -3080,0 z m 2201.38,-1345.34 0,-95.75 37.8,0 0,95.75 0,0 -18.9,-75.59 -18.9,75.59 z m 37.8,110.86 0,95.74 -37.8,0 0,-95.74 0,0 18.9,75.59 18.9,-75.59 z"
         clip-rule="evenodd"
         id="path3701" /></clipPath><clipPath
       clipPathUnits="userSpaceOnUse"
       id="clipPath3713"><path
         d="M 0,3140 0,0 l 3080,0 0,3140 -3080,0 z m 1917.93,-2053.98 0,-95.747 37.79,0 0,95.747 0,0 -18.9,-75.59 -18.89,75.59 z m 37.79,110.86 0,95.74 -37.79,0 0,-95.74 0,0 18.89,75.59 18.9,-75.59 z"
         clip-rule="evenodd"
         id="path3715" /></clipPath><clipPath
       clipPathUnits="userSpaceOnUse"
       id="clipPath3727"><path
         d="M 0,3140 0,0 l 3080,0 0,3140 -3080,0 z m 1152.6,-1345.34 0,-95.75 37.79,0 0,95.75 0,0 -18.89,-75.59 -18.9,75.59 z m 37.79,961.22 0,95.75 -37.79,0 0,-95.75 0,0 18.9,75.59 18.89,-75.59 z"
         clip-rule="evenodd"
         id="path3729" /></clipPath><clipPath
       clipPathUnits="userSpaceOnUse"
       id="clipPath3741"><path
         d="M 0,3140 0,0 l 3080,0 0,3140 -3080,0 z m 1776.2,-778.43 0,-95.75 37.8,0 0,95.75 0,0 -18.9,-75.59 -18.9,75.59 z m 37.8,394.31 0,95.75 -37.8,0 0,-95.75 0,0 18.9,75.59 18.9,-75.59 z"
         clip-rule="evenodd"
         id="path3743" /></clipPath><clipPath
       clipPathUnits="userSpaceOnUse"
       id="clipPath3755"><path
         d="M 0,3140 0,0 l 3080,0 0,3140 -3080,0 z m 642.379,-2053.98 0,-95.747 37.797,0 0,95.747 0,0 -18.899,-75.59 -18.898,75.59 z m 37.797,1669.86 0,95.75 -37.797,0 0,-95.75 0,0 18.898,75.59 18.899,-75.59 z"
         clip-rule="evenodd"
         id="path3757" /></clipPath></defs><sodipodi:namedview
     pagecolor="#ffffff"
     bordercolor="#666666"
     borderopacity="1"
     objecttolerance="10"
     gridtolerance="10"
     guidetolerance="10"
     inkscape:pageopacity="0"
     inkscape:pageshadow="2"
     inkscape:window-width="1849"
     inkscape:window-height="1056"
     id="namedview3619"
     showgrid="false"
     inkscape:zoom="0.44851463"
     inkscape:cx="525.7299"
     inkscape:cy="436.99801"
     inkscape:window-x="1991"
     inkscape:window-y="24"
     inkscape:window-maximized="1"
     inkscape:current-layer="g3655" /><g
     id="g3625"
     inkscape:groupmode="layer"
     inkscape:label="2010_guthmuller-rapport"
     transform="matrix(1.25,0,0,-1.25,0,1052.3625)"><g
       id="g3655"
       transform="matrix(2.4869069,0,0,2.2298364,24.965007,307.01901)"><g
         id="g3661"
         transform="matrix(0.6001691,0,0,0.61975604,37.501714,32.048948)"><g
           id="g3663"
           clip-path="url(#clipPath3665)"><g
             id="g3669"
             transform="scale(0.1,0.1)"><path
               d="m 94.3672,2842.18 2692.82,0 0,283.457 -2692.82,0 0,-283.457 z"
               style="fill:none;stroke:#000000;stroke-width:4.72424984;stroke-linecap:butt;stroke-linejoin:miter;stroke-miterlimit:10;stroke-opacity:1;stroke-dasharray:none"
               id="path3671"
               inkscape:connector-curvature="0" /><path
               d="m 1369.91,1991.82 1700.73,0 0,283.453 -1700.73,0 0,-283.453 z"
               style="fill:none;stroke:#000000;stroke-width:4.72424984;stroke-linecap:butt;stroke-linejoin:miter;stroke-miterlimit:10;stroke-opacity:1;stroke-dasharray:none"
               id="path3673"
               inkscape:connector-curvature="0" /><path
               d="m 519.551,716.266 2551.09,0 0,283.457 -2551.09,0 0,-283.457 z"
               style="fill:none;stroke:#000000;stroke-width:4.72424984;stroke-linecap:butt;stroke-linejoin:miter;stroke-miterlimit:10;stroke-opacity:1;stroke-dasharray:none"
               id="path3675"
               inkscape:connector-curvature="0" /><path
               d="m 859.695,7.62891 1133.82,0 0,283.457 -1133.82,0 0,-283.457 z"
               style="fill:none;stroke:#000000;stroke-width:4.72424984;stroke-linecap:butt;stroke-linejoin:miter;stroke-miterlimit:10;stroke-opacity:1;stroke-dasharray:none"
               id="path3677"
               inkscape:connector-curvature="0" /><g
               id="g3679"><g
                 id="g3681"
                 clip-path="url(#clipPath3683)"><path
                   d="m 1454.95,716.266 0,-425.18"
                   style="fill:none;stroke:#000000;stroke-width:4.72424984;stroke-linecap:butt;stroke-linejoin:miter;stroke-miterlimit:10;stroke-opacity:1;stroke-dasharray:none"
                   id="path3687"
                   inkscape:connector-curvature="0" /></g></g><path
               d="m 1473.85,629.973 -18.9,75.586 -18.9,-75.586"
               style="fill:none;stroke:#000000;stroke-width:4.72424984;stroke-linecap:butt;stroke-linejoin:miter;stroke-miterlimit:10;stroke-opacity:1;stroke-dasharray:none"
               id="path3689"
               inkscape:connector-curvature="0" /><path
               d="m 1436.05,377.383 18.9,-75.59 18.9,75.59"
               style="fill:none;stroke:#000000;stroke-width:4.72424984;stroke-linecap:butt;stroke-linejoin:miter;stroke-miterlimit:10;stroke-opacity:1;stroke-dasharray:none"
               id="path3691"
               inkscape:connector-curvature="0" /><path
               d="m 944.734,1283.18 2125.91,0 0,425.184 -2125.91,0 0,-425.184 z"
               style="fill:none;stroke:#000000;stroke-width:4.72424984;stroke-linecap:butt;stroke-linejoin:miter;stroke-miterlimit:10;stroke-opacity:1;stroke-dasharray:none"
               id="path3693"
               inkscape:connector-curvature="0" /><g
               id="g3695"><g
                 id="g3697"
                 clip-path="url(#clipPath3699)"><path
                   d="m 2220.28,1991.82 0,-283.46"
                   style="fill:none;stroke:#000000;stroke-width:9.44849968;stroke-linecap:butt;stroke-linejoin:miter;stroke-miterlimit:10;stroke-opacity:1;stroke-dasharray:none"
                   id="path3703"
                   inkscape:connector-curvature="0" /></g></g><path
               d="m 2239.18,1905.52 -18.9,75.59 -18.9,-75.59"
               style="fill:none;stroke:#000000;stroke-width:4.72424984;stroke-linecap:butt;stroke-linejoin:miter;stroke-miterlimit:10;stroke-opacity:1;stroke-dasharray:none"
               id="path3705"
               inkscape:connector-curvature="0" /><path
               d="m 2201.38,1794.66 18.9,-75.59 18.9,75.59"
               style="fill:none;stroke:#000000;stroke-width:4.72424984;stroke-linecap:butt;stroke-linejoin:miter;stroke-miterlimit:10;stroke-opacity:1;stroke-dasharray:none"
               id="path3707"
               inkscape:connector-curvature="0" /><g
               id="g3709"><g
                 id="g3711"
                 clip-path="url(#clipPath3713)"><path
                   d="m 1936.82,1283.18 0,-283.457"
                   style="fill:none;stroke:#000000;stroke-width:9.44849968;stroke-linecap:butt;stroke-linejoin:miter;stroke-miterlimit:10;stroke-opacity:1;stroke-dasharray:none"
                   id="path3717"
                   inkscape:connector-curvature="0" /></g></g><path
               d="m 1955.72,1196.88 -18.9,75.59 -18.89,-75.59"
               style="fill:none;stroke:#000000;stroke-width:4.72424984;stroke-linecap:butt;stroke-linejoin:miter;stroke-miterlimit:10;stroke-opacity:1;stroke-dasharray:none"
               id="path3719"
               inkscape:connector-curvature="0" /><path
               d="m 1917.93,1086.02 18.89,-75.59 18.9,75.59"
               style="fill:none;stroke:#000000;stroke-width:4.72424984;stroke-linecap:butt;stroke-linejoin:miter;stroke-miterlimit:10;stroke-opacity:1;stroke-dasharray:none"
               id="path3721"
               inkscape:connector-curvature="0" /><g
               id="g3723"><g
                 id="g3725"
                 clip-path="url(#clipPath3727)"><path
                   d="m 1171.5,2842.18 0,-1133.82"
                   style="fill:none;stroke:#000000;stroke-width:4.72424984;stroke-linecap:butt;stroke-linejoin:miter;stroke-miterlimit:10;stroke-opacity:1;stroke-dasharray:56.691;stroke-dashoffset:0"
                   id="path3731"
                   inkscape:connector-curvature="0" /></g></g><path
               d="m 1190.39,2755.88 -18.89,75.59 -18.9,-75.59"
               style="fill:none;stroke:#000000;stroke-width:4.72424984;stroke-linecap:butt;stroke-linejoin:miter;stroke-miterlimit:10;stroke-opacity:1;stroke-dasharray:none"
               id="path3733"
               inkscape:connector-curvature="0" /><path
               d="m 1152.6,1794.66 18.9,-75.59 18.89,75.59"
               style="fill:none;stroke:#000000;stroke-width:4.72424984;stroke-linecap:butt;stroke-linejoin:miter;stroke-miterlimit:10;stroke-opacity:1;stroke-dasharray:none"
               id="path3735"
               inkscape:connector-curvature="0" /><g
               id="g3737"><g
                 id="g3739"
                 clip-path="url(#clipPath3741)"><path
                   d="m 1795.1,2842.18 0,-566.91"
                   style="fill:none;stroke:#000000;stroke-width:9.44849968;stroke-linecap:butt;stroke-linejoin:miter;stroke-miterlimit:10;stroke-opacity:1;stroke-dasharray:none"
                   id="path3745"
                   inkscape:connector-curvature="0" /></g></g><path
               d="m 1814,2755.88 -18.9,75.59 -18.9,-75.59"
               style="fill:none;stroke:#000000;stroke-width:4.72424984;stroke-linecap:butt;stroke-linejoin:miter;stroke-miterlimit:10;stroke-opacity:1;stroke-dasharray:none"
               id="path3747"
               inkscape:connector-curvature="0" /><path
               d="m 1776.2,2361.57 18.9,-75.59 18.9,75.59"
               style="fill:none;stroke:#000000;stroke-width:4.72424984;stroke-linecap:butt;stroke-linejoin:miter;stroke-miterlimit:10;stroke-opacity:1;stroke-dasharray:none"
               id="path3749"
               inkscape:connector-curvature="0" /><g
               id="g3751"><g
                 id="g3753"
                 clip-path="url(#clipPath3755)"><path
                   d="m 661.277,2842.18 0,-1842.457"
                   style="fill:none;stroke:#000000;stroke-width:4.72424984;stroke-linecap:butt;stroke-linejoin:miter;stroke-miterlimit:10;stroke-opacity:1;stroke-dasharray:56.691;stroke-dashoffset:0"
                   id="path3759"
                   inkscape:connector-curvature="0" /></g></g><path
               d="m 680.176,2755.88 -18.899,75.59 -18.898,-75.59"
               style="fill:none;stroke:#000000;stroke-width:4.72424984;stroke-linecap:butt;stroke-linejoin:miter;stroke-miterlimit:10;stroke-opacity:1;stroke-dasharray:none"
               id="path3761"
               inkscape:connector-curvature="0" /><path
               d="m 642.379,1086.02 18.898,-75.59 18.899,75.59"
               style="fill:none;stroke:#000000;stroke-width:4.72424984;stroke-linecap:butt;stroke-linejoin:miter;stroke-miterlimit:10;stroke-opacity:1;stroke-dasharray:none"
               id="path3763"
               inkscape:connector-curvature="0" /><g
               id="g3765"
               transform="scale(10,10)"><text
                 transform="matrix(1,0,0,-1,99.1035,292.721)"
                 id="text3767"><tspan
                   style="font-size:15.99950027px;font-variant:normal;font-weight:bold;writing-mode:lr-tb;fill:#000000;fill-opacity:1;fill-rule:nonzero;stroke:none;font-family:Helvetica;-inkscape-font-specification:Helvetica-Bold"
                   x="0 11.551639 21.327333 31.103027 35.550888 39.998749 48.89447 57.790195 63.118027 67.565887 77.341583"
                   y="0"
                   sodipodi:role="line"
                   id="tspan3769">Application</tspan><tspan
                   style="font-size:15.99950027px;font-variant:normal;font-weight:bold;writing-mode:lr-tb;fill:#000000;fill-opacity:1;fill-rule:nonzero;stroke:none;font-family:Helvetica;-inkscape-font-specification:Helvetica-Bold"
                   x="39.9426 48.838322 57.734043 66.629768 71.957596 80.853325 95.076874 103.9726 112.86832 117.31618 127.98785 140.43546 151.10713 155.55499"
                   y="158.735"
                   sodipodi:role="line"
                   id="tspan3771">systemes POSIX</tspan><tspan
                   style="font-size:15.99950027px;font-variant:normal;font-weight:bold;writing-mode:lr-tb;fill:#000000;fill-opacity:1;fill-rule:nonzero;stroke:none;font-family:Helvetica;-inkscape-font-specification:Helvetica-Bold"
                   x="70.032097 81.58374 86.031601 95.807297 100.25516 104.70302 114.47871 119.80654 129.58224 138.47797 148.25366 158.02934 166.92508"
                   y="85.036598"
                   sodipodi:role="line"
                   id="tspan3773">Bibliotheques</tspan><tspan
                   style="font-size:15.99950027px;font-variant:normal;font-weight:bold;writing-mode:lr-tb;fill:#000000;fill-opacity:1;fill-rule:nonzero;stroke:none;font-family:Helvetica;-inkscape-font-specification:Helvetica-Bold"
                   x="15.0505 26.602139 36.377834 46.153526 55.049252 59.497112 68.39283 72.840691 81.73642 90.632141 99.527863 104.85569 113.75142 127.97497 136.8707"
                   y="212.5916"
                   sodipodi:role="line"
                   id="tspan3775">Appels systemes</tspan><tspan
                   style="font-size:15.99950027px;font-variant:normal;font-weight:bold;writing-mode:lr-tb;fill:#000000;fill-opacity:1;fill-rule:nonzero;stroke:none;font-family:Helvetica;-inkscape-font-specification:Helvetica-Bold"
                   x="14.670422 26.222061 38.66967 49.341339 60.892979"
                   y="283.45529"
                   sodipodi:role="line"
                   id="tspan3777">NOYAU</tspan><tspan
                   style="font-size:15.99950027px;font-variant:normal;font-weight:bold;writing-mode:lr-tb;fill:#000000;fill-opacity:1;fill-rule:nonzero;stroke:none;font-family:Helvetica;-inkscape-font-specification:Helvetica-Bold"
                   x="23.944641 28.392504 38.168198 43.496033 52.391754 58.615559 63.943394 72.839111 81.734833 90.630554 95.078423 104.85411 113.74983 122.64556 127.09342 135.98914 145.76483 155.54053 164.43625 168.88411 177.77983"
                   y="138.8933"
                   sodipodi:role="line"
                   id="tspan3779">Interface des appels </tspan></text>
</g><g
               id="g3781"
               transform="scale(10,10)"><text
                 transform="matrix(1,0,0,-1,0.933203,185.009)"
                 id="text3783"><tspan
                   style="font-size:11.99960041px;font-variant:normal;font-weight:bold;writing-mode:lr-tb;fill:#ff0000;fill-opacity:1;fill-rule:nonzero;stroke:none;font-family:Helvetica;-inkscape-font-specification:Helvetica-Bold"
                   x="0 3.3358889 11.9996 19.331356 22.667244 29.339022 36.010799 42.682579 49.354355"
                   y="0"
                   sodipodi:role="line"
                   id="tspan3785">INT $0x80</tspan><tspan
                   style="font-size:11.99960041px;font-variant:normal;font-weight:bold;writing-mode:lr-tb;fill:#ff0000;fill-opacity:1;fill-rule:nonzero;stroke:none;font-family:Helvetica;-inkscape-font-specification:Helvetica-Bold"
                   x="82.0457 86.041565 93.373322 100.70508 107.37685 114.70861 118.0445 121.38039 126.04823 132.72002 139.39178 146.72354 150.05943 153.39532 156.73122 160.06709 163.40298"
                   y="-53.856602"
                   sodipodi:role="line"
                   id="tspan3787">(open, read, ...)</tspan><tspan
                   style="font-size:11.99960041px;font-variant:normal;font-weight:bold;writing-mode:lr-tb;fill:#ff0000;fill-opacity:1;fill-rule:nonzero;stroke:none;font-family:Helvetica;-inkscape-font-specification:Helvetica-Bold"
                   x="190.7717 194.76756 202.09932 206.76717 210.10306 217.43481 221.43068 225.42654 228.76244 232.09833 236.09419 243.42595 250.75771 257.42947 264.76123 268.09714 271.43301 274.76889 278.1048 281.44067"
                   y="-70.863998"
                   sodipodi:role="line"
                   id="tspan3789">(printf, fopen, ...)</tspan></text>
</g></g></g></g></g></g></svg>