<?xml version="1.0" encoding="UTF-8" standalone="no"?>
<!-- Created with Inkscape (http://www.inkscape.org/) -->

<svg
   xmlns:dc="http://purl.org/dc/elements/1.1/"
   xmlns:cc="http://creativecommons.org/ns#"
   xmlns:rdf="http://www.w3.org/1999/02/22-rdf-syntax-ns#"
   xmlns:svg="http://www.w3.org/2000/svg"
   xmlns="http://www.w3.org/2000/svg"
   xmlns:sodipodi="http://sodipodi.sourceforge.net/DTD/sodipodi-0.dtd"
   xmlns:inkscape="http://www.inkscape.org/namespaces/inkscape"
   id="svg3174"
   version="1.1"
   inkscape:version="0.48.4 r9939"
   width="744.095"
   height="1052.3625"
   xml:space="preserve"
   sodipodi:docname="Communications_Simgrid.svg"
   inkscape:export-filename="/home/algorille/Bureau/SIMGRID/doc/Pictures/Communications_Simgrid.png"
   inkscape:export-xdpi="90"
   inkscape:export-ydpi="90"><metadata
     id="metadata3180"><rdf:RDF><cc:Work
         rdf:about=""><dc:format>image/svg+xml</dc:format><dc:type
           rdf:resource="http://purl.org/dc/dcmitype/StillImage" /><dc:title></dc:title></cc:Work></rdf:RDF></metadata><defs
     id="defs3178"><clipPath
       clipPathUnits="userSpaceOnUse"
       id="clipPath3222"><path
         d="M 0,0 535,0 535,215 0,215 0,0 z"
         id="path3224" /></clipPath><clipPath
       clipPathUnits="userSpaceOnUse"
       id="clipPath3232"><path
         d="M 0,2150 0,0 l 5350,0 0,2150 -5350,0 z m 2087.9,-1679.027 75.59,-57.953 23.31,29.605 -75.59,57.953 0,0 48.5,-61.101 -71.81,31.496 z"
         clip-rule="evenodd"
         id="path3234" /></clipPath><clipPath
       clipPathUnits="userSpaceOnUse"
       id="clipPath3244"><path
         d="M 0,2150 0,0 l 5350,0 0,2150 -5350,0 z m 2777.01,-492.93 -62.99,71.81 -28.34,-25.19 62.99,-71.81 0,0 -35.28,69.29 63.62,-44.1 z"
         clip-rule="evenodd"
         id="path3246" /></clipPath><clipPath
       clipPathUnits="userSpaceOnUse"
       id="clipPath3260"><path
         d="M 0,2150 0,0 l 5350,0 0,2150 -5350,0 z m 4320.9,-743.63 95.74,0 0,37.8 -95.74,0 0,0 75.58,-18.9 -75.58,-18.9 z"
         clip-rule="evenodd"
         id="path3262" /></clipPath><clipPath
       clipPathUnits="userSpaceOnUse"
       id="clipPath3272"><path
         d="M 0,2150 0,0 l 5350,0 0,2150 -5350,0 z m 1488.23,-2031.773 83.15,-45.9809 18.27,33.3829 -83.15,45.984 0,0 57.32,-53.5427 -75.59,20.1567 z"
         clip-rule="evenodd"
         id="path3274" /></clipPath><clipPath
       clipPathUnits="userSpaceOnUse"
       id="clipPath3284"><path
         d="M 0,2150 0,0 l 5350,0 0,2150 -5350,0 z m 721.648,-1316.207 -83.777,45.984 -18.266,-33.386 83.774,-45.352 0,0 -56.688,52.281 74.957,-19.527 z"
         clip-rule="evenodd"
         id="path3286" /></clipPath><clipPath
       clipPathUnits="userSpaceOnUse"
       id="clipPath3298"><path
         d="M 0,2150 0,0 l 5350,0 0,2150 -5350,0 z m 4320.9,-1168.809 95.74,0 0,37.789 -95.74,0 0,0 75.58,-18.89 -75.58,-18.899 z"
         clip-rule="evenodd"
         id="path3300" /></clipPath><clipPath
       clipPathUnits="userSpaceOnUse"
       id="clipPath3310"><path
         d="M 0,2150 0,0 l 5350,0 0,2150 -5350,0 z m 1507.13,-443.16 82.52,47.24 -18.27,32.75 -83.15,-47.24 0,0 75.59,20.79 -56.69,-53.54 z"
         clip-rule="evenodd"
         id="path3312" /></clipPath><clipPath
       clipPathUnits="userSpaceOnUse"
       id="clipPath3324"><path
         d="M 0,2150 0,0 l 5350,0 0,2150 -5350,0 z m 220.879,-807.88 -83.149,-46.61 18.266,-32.76 83.149,46.62 0,0 -74.957,-20.79 56.691,53.54 z"
         clip-rule="evenodd"
         id="path3326" /></clipPath></defs><sodipodi:namedview
     pagecolor="#ffffff"
     bordercolor="#666666"
     borderopacity="1"
     objecttolerance="10"
     gridtolerance="10"
     guidetolerance="10"
     inkscape:pageopacity="0"
     inkscape:pageshadow="2"
     inkscape:window-width="1849"
     inkscape:window-height="1056"
     id="namedview3176"
     showgrid="false"
     inkscape:zoom="0.89702926"
     inkscape:cx="372.04749"
     inkscape:cy="465.24748"
     inkscape:window-x="71"
     inkscape:window-y="24"
     inkscape:window-maximized="1"
     inkscape:current-layer="g3182" /><g
     id="g3182"
     inkscape:groupmode="layer"
     inkscape:label="2010_guthmuller-rapport"
     transform="matrix(1.25,0,0,-1.25,0,1052.3625)"><g
       transform="matrix(0.01488863,1.4261259,-2.5421995,-0.02300241,566.03085,53.730333)"
       id="g3214"><g
         id="g3216"><g
           id="g3218"><g
             clip-path="url(#clipPath3222)"
             id="g3220"><g
               transform="scale(0.1,0.1)"
               id="g3226"><g
                 id="g3228"><g
                   clip-path="url(#clipPath3232)"
                   id="g3230"><path
                     inkscape:connector-curvature="0"
                     id="path3236"
                     style="fill:none;stroke:#000000;stroke-width:4.72424984;stroke-linecap:butt;stroke-linejoin:miter;stroke-miterlimit:10;stroke-opacity:1;stroke-dasharray:37.794;stroke-dashoffset:0"
                     d="m 2139.55,1708.68 c -196.62,-148.72 -312.17,-381 -312.17,-627.52 0,-258.863 127.32,-501.164 340.51,-647.992" /></g></g><path
                 inkscape:connector-curvature="0"
                 id="path3238"
                 style="fill:none;stroke:#000000;stroke-width:4.72424984;stroke-linecap:butt;stroke-linejoin:miter;stroke-miterlimit:10;stroke-opacity:1;stroke-dasharray:none"
                 d="m 2087.9,470.973 71.81,-31.496 -48.5,61.101" /><g
                 id="g3240"><g
                   clip-path="url(#clipPath3244)"
                   id="g3242"><path
                     inkscape:connector-curvature="0"
                     id="path3248"
                     style="fill:none;stroke:#000000;stroke-width:4.72424984;stroke-linecap:butt;stroke-linejoin:miter;stroke-miterlimit:10;stroke-opacity:1;stroke-dasharray:37.794;stroke-dashoffset:0"
                     d="m 2706.48,1708.74 c 163.83,-171.92 255.22,-400.31 255.22,-637.79 0,-237.481 -91.39,-465.86 -255.22,-637.782" /></g></g><path
                 inkscape:connector-curvature="0"
                 id="path3250"
                 style="fill:none;stroke:#000000;stroke-width:4.72424984;stroke-linecap:butt;stroke-linejoin:miter;stroke-miterlimit:10;stroke-opacity:1;stroke-dasharray:none"
                 d="m 2777.01,1657.07 -63.62,44.1 35.28,-69.29" /><path
                 inkscape:connector-curvature="0"
                 id="path3252"
                 style="fill:none;stroke:#000000;stroke-width:4.72424984;stroke-linecap:butt;stroke-linejoin:miter;stroke-miterlimit:10;stroke-opacity:1;stroke-dasharray:none"
                 d="m 1572.64,7.99609 1700.73,0 0,425.18 -1700.73,0 0,-425.18 z" /><path
                 inkscape:connector-curvature="0"
                 id="path3254"
                 style="fill:none;stroke:#000000;stroke-width:4.72424984;stroke-linecap:butt;stroke-linejoin:miter;stroke-miterlimit:10;stroke-opacity:1;stroke-dasharray:none"
                 d="m 1572.64,1708.73 1700.73,0 0,425.18 -1700.73,0 0,-425.18 z" /><g
                 id="g3256"><g
                   clip-path="url(#clipPath3260)"
                   id="g3258"><path
                     inkscape:connector-curvature="0"
                     id="path3264"
                     style="fill:none;stroke:#000000;stroke-width:4.72424984;stroke-linecap:butt;stroke-linejoin:miter;stroke-miterlimit:10;stroke-opacity:1;stroke-dasharray:37.794;stroke-dashoffset:0"
                     d="m 3982.01,1425.27 425.18,0" /></g></g><path
                 inkscape:connector-curvature="0"
                 id="path3266"
                 style="fill:none;stroke:#000000;stroke-width:4.72424984;stroke-linecap:butt;stroke-linejoin:miter;stroke-miterlimit:10;stroke-opacity:1;stroke-dasharray:none"
                 d="m 4320.9,1406.37 75.58,18.9 -75.58,18.9" /><g
                 id="g3268"><g
                   clip-path="url(#clipPath3272)"
                   id="g3270"><path
                     inkscape:connector-curvature="0"
                     id="path3276"
                     style="fill:none;stroke:#ff0000;stroke-width:9.44849968;stroke-linecap:butt;stroke-linejoin:miter;stroke-miterlimit:10;stroke-opacity:1;stroke-dasharray:none"
                     d="M 183.715,858.359 1572.64,93.0312" /></g></g><path
                 inkscape:connector-curvature="0"
                 id="path3278"
                 style="fill:none;stroke:#ff0000;stroke-width:4.72424984;stroke-linecap:butt;stroke-linejoin:miter;stroke-miterlimit:10;stroke-opacity:1;stroke-dasharray:none"
                 d="m 1488.23,118.227 75.59,-20.1567 -57.32,53.5427" /><g
                 id="g3280"><g
                   clip-path="url(#clipPath3284)"
                   id="g3282"><path
                     inkscape:connector-curvature="0"
                     id="path3288"
                     style="fill:none;stroke:#ff0000;stroke-width:9.44849968;stroke-linecap:butt;stroke-linejoin:miter;stroke-miterlimit:10;stroke-opacity:1;stroke-dasharray:none"
                     d="M 1572.64,348.141 637.242,858.359" /></g></g><path
                 inkscape:connector-curvature="0"
                 id="path3290"
                 style="fill:none;stroke:#ff0000;stroke-width:4.72424984;stroke-linecap:butt;stroke-linejoin:miter;stroke-miterlimit:10;stroke-opacity:1;stroke-dasharray:none"
                 d="m 721.648,833.793 -74.957,19.527 56.688,-52.281" /><path
                 inkscape:connector-curvature="0"
                 id="path3292"
                 style="fill:none;stroke:#ff0000;stroke-width:9.44849968;stroke-linecap:butt;stroke-linejoin:miter;stroke-miterlimit:10;stroke-opacity:1;stroke-dasharray:none"
                 d="m 13.6406,858.359 850.363,0 0,425.184 -850.363,0 0,-425.184 z" /><g
                 id="g3294"><g
                   clip-path="url(#clipPath3298)"
                   id="g3296"><path
                     inkscape:connector-curvature="0"
                     id="path3302"
                     style="fill:none;stroke:#ff0000;stroke-width:9.44849968;stroke-linecap:butt;stroke-linejoin:miter;stroke-miterlimit:10;stroke-opacity:1;stroke-dasharray:none"
                     d="m 3982.01,1000.09 425.18,0" /></g></g><path
                 inkscape:connector-curvature="0"
                 id="path3304"
                 style="fill:none;stroke:#ff0000;stroke-width:4.72424984;stroke-linecap:butt;stroke-linejoin:miter;stroke-miterlimit:10;stroke-opacity:1;stroke-dasharray:none"
                 d="m 4320.9,981.191 75.58,18.899 -75.58,18.89" /><g
                 id="g3306"><g
                   clip-path="url(#clipPath3310)"
                   id="g3308"><path
                     inkscape:connector-curvature="0"
                     id="path3314"
                     style="fill:none;stroke:#ff0000;stroke-width:9.44849968;stroke-linecap:butt;stroke-linejoin:miter;stroke-miterlimit:10;stroke-opacity:1;stroke-dasharray:none"
                     d="M 1572.64,1765.41 722.277,1283.54" /></g></g><path
                 inkscape:connector-curvature="0"
                 id="path3316"
                 style="fill:#ff0000;fill-opacity:1;fill-rule:evenodd;stroke:none"
                 d="m 1507.13,1706.84 56.69,53.54 -75.59,-20.79 18.9,-32.75" /><path
                 inkscape:connector-curvature="0"
                 id="path3318"
                 style="fill:none;stroke:#ff0000;stroke-width:4.72424984;stroke-linecap:butt;stroke-linejoin:miter;stroke-miterlimit:10;stroke-opacity:1;stroke-dasharray:none"
                 d="m 1507.13,1706.84 56.69,53.54 -75.59,-20.79 18.9,-32.75 z" /><g
                 id="g3320"><g
                   clip-path="url(#clipPath3324)"
                   id="g3322"><path
                     inkscape:connector-curvature="0"
                     id="path3328"
                     style="fill:none;stroke:#ff0000;stroke-width:9.44849968;stroke-linecap:butt;stroke-linejoin:miter;stroke-miterlimit:10;stroke-opacity:1;stroke-dasharray:none"
                     d="M 1572.64,2077.21 155.367,1283.54" /></g></g><path
                 inkscape:connector-curvature="0"
                 id="path3330"
                 style="fill:none;stroke:#ff0000;stroke-width:4.72424984;stroke-linecap:butt;stroke-linejoin:miter;stroke-miterlimit:10;stroke-opacity:1;stroke-dasharray:none"
                 d="m 220.879,1342.12 -56.691,-53.54 74.957,20.79" /><g
                 transform="scale(10,10)"
                 id="g3332"><text
                   id="text3334"
                   transform="matrix(1,0,0,-1,182.775,187.88)"><tspan
                     id="tspan3336"
                     sodipodi:role="line"
                     y="0"
                     x="0 11.551639 21.327333 31.103027 35.550888 39.998749 48.89447 57.790195 63.118027 67.565887 77.341583 87.117279 91.56514"
                     style="font-size:15.99950027px;font-variant:normal;font-weight:bold;writing-mode:lr-tb;fill:#000000;fill-opacity:1;fill-rule:nonzero;stroke:none;font-family:Helvetica;-inkscape-font-specification:Helvetica-Bold">Application A</tspan><tspan
                     id="tspan3338"
                     sodipodi:role="line"
                     y="170.073"
                     x="2.8343799 14.386019 24.161713 33.937408 38.385269 42.83313 51.728851 60.624573 65.952408 70.400269 80.175964 89.95166 94.399521"
                     style="font-size:15.99950027px;font-variant:normal;font-weight:bold;writing-mode:lr-tb;fill:#000000;fill-opacity:1;fill-rule:nonzero;stroke:none;font-family:Helvetica;-inkscape-font-specification:Helvetica-Bold">Application B</tspan></text>
</g><g
                 transform="scale(10,10)"
                 id="g3340"><text
                   id="text3342"
                   transform="matrix(1,0,0,-1,15.5367,102.843)"><tspan
                     id="tspan3344"
                     sodipodi:role="line"
                     y="0"
                     x="0 9.3376665 13.229527 25.675083 36.566692 42.012501 45.904362"
                     style="font-size:13.99950027px;font-variant:normal;font-weight:bold;writing-mode:lr-tb;fill:#ff0000;fill-opacity:1;fill-rule:nonzero;stroke:none;font-family:Helvetica;-inkscape-font-specification:Helvetica-Bold">SimGrid</tspan></text>
</g><g
                 transform="scale(10,10)"
                 id="g3346"><text
                   id="text3348"
                   transform="matrix(1,0,0,-1,449.223,139.693)"><tspan
                     id="tspan3350"
                     sodipodi:role="line"
                     y="0"
                     x="0 8.0037336 14.67551 22.007267 28.679045 32.014935 40.018665 43.354553 54.022198 63.357887 68.025734 71.361618"
                     style="font-size:11.99960041px;font-style:oblique;font-variant:normal;font-weight:bold;writing-mode:lr-tb;fill:#000000;fill-opacity:1;fill-rule:nonzero;stroke:none;font-family:Helvetica;-inkscape-font-specification:Helvetica-BoldOblique">Sans SimGrid</tspan></text>
</g><g
                 transform="scale(10,10)"
                 id="g3352"><text
                   id="text3354"
                   transform="matrix(1,0,0,-1,449.223,97.1742)"><tspan
                     id="tspan3356"
                     sodipodi:role="line"
                     y="0"
                     x="0 8.6637115 15.335489 22.007267 28.679045 32.014935 40.018665 43.354553 54.022198 63.357887 68.025734 71.361618"
                     style="font-size:11.99960041px;font-style:oblique;font-variant:normal;font-weight:bold;writing-mode:lr-tb;fill:#ff0000;fill-opacity:1;fill-rule:nonzero;stroke:none;font-family:Helvetica;-inkscape-font-specification:Helvetica-BoldOblique">Avec SimGrid</tspan></text>
</g></g></g></g></g></g></g></svg>