<?xml version="1.0" encoding="UTF-8"?>
<!DOCTYPE svg PUBLIC "-//W3C//DTD SVG 1.1//EN" "http://www.w3.org/Graphics/SVG/1.1/DTD/svg11.dtd">
<svg width="157mm" height="92mm" viewBox="0 0 15700 9200" version="1.1" baseProfile="tiny" xmlns="http://www.w3.org/2000/svg" stroke-width="28.222" stroke-linejoin="round" xml:space="preserve">
 <path fill="rgb(255,255,255)" stroke="none" d="M 7843,9182 L 0,9182 0,0 15685,0 15685,9182 7843,9182 Z"/>
 <path fill="none" stroke="rgb(204,204,204)" stroke-linejoin="round" d="M 6131,7333 L 1507,7333 1507,1407 10755,1407 10755,7333 6131,7333 Z"/>
 <path fill="none" stroke="rgb(204,204,204)" stroke-linejoin="round" d="M 1507,7482 L 1507,7332"/>
 <path fill="none" stroke="rgb(204,204,204)" stroke-linejoin="round" d="M 1507,7482 L 1507,7332"/>
 <path fill="none" stroke="rgb(204,204,204)" stroke-linejoin="round" d="M 1993,7482 L 1993,7332"/>
 <path fill="none" stroke="rgb(204,204,204)" stroke-linejoin="round" d="M 1993,7482 L 1993,7332"/>
 <path fill="none" stroke="rgb(204,204,204)" stroke-linejoin="round" d="M 2480,7482 L 2480,7332"/>
 <path fill="none" stroke="rgb(204,204,204)" stroke-linejoin="round" d="M 2480,7482 L 2480,7332"/>
 <path fill="none" stroke="rgb(204,204,204)" stroke-linejoin="round" d="M 2967,7482 L 2967,7332"/>
 <path fill="none" stroke="rgb(204,204,204)" stroke-linejoin="round" d="M 2967,7482 L 2967,7332"/>
 <path fill="none" stroke="rgb(204,204,204)" stroke-linejoin="round" d="M 3454,7482 L 3454,7332"/>
 <path fill="none" stroke="rgb(204,204,204)" stroke-linejoin="round" d="M 3454,7482 L 3454,7332"/>
 <path fill="none" stroke="rgb(204,204,204)" stroke-linejoin="round" d="M 3940,7482 L 3940,7332"/>
 <path fill="none" stroke="rgb(204,204,204)" stroke-linejoin="round" d="M 3940,7482 L 3940,7332"/>
 <path fill="none" stroke="rgb(204,204,204)" stroke-linejoin="round" d="M 4427,7482 L 4427,7332"/>
 <path fill="none" stroke="rgb(204,204,204)" stroke-linejoin="round" d="M 4427,7482 L 4427,7332"/>
 <path fill="none" stroke="rgb(204,204,204)" stroke-linejoin="round" d="M 4914,7482 L 4914,7332"/>
 <path fill="none" stroke="rgb(204,204,204)" stroke-linejoin="round" d="M 4914,7482 L 4914,7332"/>
 <path fill="none" stroke="rgb(204,204,204)" stroke-linejoin="round" d="M 5401,7482 L 5401,7332"/>
 <path fill="none" stroke="rgb(204,204,204)" stroke-linejoin="round" d="M 5401,7482 L 5401,7332"/>
 <path fill="none" stroke="rgb(204,204,204)" stroke-linejoin="round" d="M 5888,7482 L 5888,7332"/>
 <path fill="none" stroke="rgb(204,204,204)" stroke-linejoin="round" d="M 5888,7482 L 5888,7332"/>
 <path fill="none" stroke="rgb(204,204,204)" stroke-linejoin="round" d="M 6374,7482 L 6374,7332"/>
 <path fill="none" stroke="rgb(204,204,204)" stroke-linejoin="round" d="M 6374,7482 L 6374,7332"/>
 <path fill="none" stroke="rgb(204,204,204)" stroke-linejoin="round" d="M 6861,7482 L 6861,7332"/>
 <path fill="none" stroke="rgb(204,204,204)" stroke-linejoin="round" d="M 6861,7482 L 6861,7332"/>
 <path fill="none" stroke="rgb(204,204,204)" stroke-linejoin="round" d="M 7348,7482 L 7348,7332"/>
 <path fill="none" stroke="rgb(204,204,204)" stroke-linejoin="round" d="M 7348,7482 L 7348,7332"/>
 <path fill="none" stroke="rgb(204,204,204)" stroke-linejoin="round" d="M 7835,7482 L 7835,7332"/>
 <path fill="none" stroke="rgb(204,204,204)" stroke-linejoin="round" d="M 7835,7482 L 7835,7332"/>
 <path fill="none" stroke="rgb(204,204,204)" stroke-linejoin="round" d="M 8321,7482 L 8321,7332"/>
 <path fill="none" stroke="rgb(204,204,204)" stroke-linejoin="round" d="M 8321,7482 L 8321,7332"/>
 <path fill="none" stroke="rgb(204,204,204)" stroke-linejoin="round" d="M 8807,7482 L 8807,7332"/>
 <path fill="none" stroke="rgb(204,204,204)" stroke-linejoin="round" d="M 8807,7482 L 8807,7332"/>
 <path fill="none" stroke="rgb(204,204,204)" stroke-linejoin="round" d="M 9294,7482 L 9294,7332"/>
 <path fill="none" stroke="rgb(204,204,204)" stroke-linejoin="round" d="M 9294,7482 L 9294,7332"/>
 <path fill="none" stroke="rgb(204,204,204)" stroke-linejoin="round" d="M 9781,7482 L 9781,7332"/>
 <path fill="none" stroke="rgb(204,204,204)" stroke-linejoin="round" d="M 9781,7482 L 9781,7332"/>
 <path fill="none" stroke="rgb(204,204,204)" stroke-linejoin="round" d="M 10268,7482 L 10268,7332"/>
 <path fill="none" stroke="rgb(204,204,204)" stroke-linejoin="round" d="M 10268,7482 L 10268,7332"/>
 <path fill="none" stroke="rgb(204,204,204)" stroke-linejoin="round" d="M 10755,7482 L 10755,7332"/>
 <path fill="none" stroke="rgb(204,204,204)" stroke-linejoin="round" d="M 10755,7482 L 10755,7332"/>
 <path fill="none" stroke="rgb(204,204,204)" stroke-linejoin="round" d="M 1507,7332 L 10755,7332"/>
 <path fill="none" stroke="rgb(204,204,204)" stroke-linejoin="round" d="M 1357,7332 L 1507,7332"/>
 <path fill="none" stroke="rgb(204,204,204)" stroke-linejoin="round" d="M 1357,7332 L 1507,7332"/>
 <path fill="none" stroke="rgb(204,204,204)" stroke-linejoin="round" d="M 1357,6344 L 1507,6344"/>
 <path fill="none" stroke="rgb(204,204,204)" stroke-linejoin="round" d="M 1357,6344 L 1507,6344"/>
 <path fill="none" stroke="rgb(204,204,204)" stroke-linejoin="round" d="M 1357,5356 L 1507,5356"/>
 <path fill="none" stroke="rgb(204,204,204)" stroke-linejoin="round" d="M 1357,5356 L 1507,5356"/>
 <path fill="none" stroke="rgb(204,204,204)" stroke-linejoin="round" d="M 1357,4369 L 1507,4369"/>
 <path fill="none" stroke="rgb(204,204,204)" stroke-linejoin="round" d="M 1357,4369 L 1507,4369"/>
 <path fill="none" stroke="rgb(204,204,204)" stroke-linejoin="round" d="M 1357,3381 L 1507,3381"/>
 <path fill="none" stroke="rgb(204,204,204)" stroke-linejoin="round" d="M 1357,3381 L 1507,3381"/>
 <path fill="none" stroke="rgb(204,204,204)" stroke-linejoin="round" d="M 1357,2393 L 1507,2393"/>
 <path fill="none" stroke="rgb(204,204,204)" stroke-linejoin="round" d="M 1357,2393 L 1507,2393"/>
 <path fill="none" stroke="rgb(204,204,204)" stroke-linejoin="round" d="M 1357,1405 L 1507,1405"/>
 <path fill="none" stroke="rgb(204,204,204)" stroke-linejoin="round" d="M 1357,1405 L 1507,1405"/>
 <path fill="none" stroke="rgb(204,204,204)" stroke-linejoin="round" d="M 1507,7332 L 1507,1406"/>
 <path fill="none" stroke="rgb(255,0,0)" stroke-width="50" stroke-linejoin="round" d="M 1507,2295 L 1531,2290 1555,2286 1580,2282 1604,2278 1628,2274 1653,2271 1677,2267 1701,2264 1726,2260 1750,2257 1774,2255 1799,2252 1823,2250 1847,2248 1872,2247 1896,2246 1920,2245 1945,2244 1969,2245 1993,2245 2018,2246 2042,2248 2066,2250 2091,2252 2115,2254 2139,2257 2164,2260 2188,2263 2212,2267 2237,2270 2261,2273 2285,2277 2310,2280 2334,2283 2358,2285 2383,2288 2407,2290 2431,2292 2456,2294 2480,2295 2504,2295 2529,2295 2553,2295 2577,2294 2602,2293 2626,2291 2650,2289 2675,2287 2699,2285 2723,2282 2748,2279 2772,2275 2796,2272 2821,2268 2845,2265 2870,2261 2894,2257 2918,2253 2943,2249 2967,2245 2991,2241 3016,2237 3040,2233 3064,2230 3089,2226 3113,2222 3137,2219 3162,2216 3186,2213 3210,2210 3235,2207 3259,2205 3283,2203 3308,2201 3332,2199 3356,2198 3381,2197 3405,2196 3429,2196 3454,2196 3478,2196 3502,2197 3527,2198 3551,2200 3575,2202 3600,2204 3624,2206 3648,2208 3673,2211 3697,2214 3721,2217 3746,2220 3770,2223 3794,2226 3819,2230 3843,2233 3867,2236 3892,2239 3916,2242 3940,2245 3965,2248 3989,2251 4013,2253 4038,2256 4062,2258 4086,2260 4111,2263 4135,2265 4160,2267 4184,2269 4208,2272 4233,2274 4257,2276 4281,2279 4306,2281 4330,2283 4354,2286 4379,2289 4403,2292 4427,2295 4452,2298 4476,2301 4500,2304 4525,2308 4549,2311 4573,2315 4598,2318 4622,2321 4646,2325 4671,2328 4695,2331 4719,2333 4744,2336 4768,2338 4792,2340 4817,2341 4841,2343 4865,2344 4890,2344 4914,2344 4938,2343 4963,2342 4987,2341 5011,2339 5036,2337 5060,2335 5084,2332 5109,2329 5133,2326 5157,2323 5182,2320 5206,2317 5230,2314 5255,2310 5279,2307 5303,2304 5328,2302 5352,2299 5376,2297 5401,2295 5425,2293 5449,2291 5474,2290 5498,2289 5523,2289 5547,2288 5571,2288 5596,2288 5620,2288 5644,2288 5669,2289 5693,2289 5717,2290 5742,2291 5766,2291 5790,2292 5815,2293 5839,2293 5863,2294 5888,2295 5912,2295 5936,2295 5961,2296 5985,2296 6009,2296 6034,2296 6058,2296 6082,2296 6107,2296 6131,2296 6155,2296 6180,2296 6204,2296 6228,2296 6253,2295 6277,2295 6301,2295 6326,2295 6350,2295 6374,2295 6399,2294 6423,2294 6447,2294 6472,2294 6496,2294 6520,2294 6545,2294 6569,2294 6593,2294 6618,2294 6642,2294 6666,2294 6691,2294 6715,2294 6739,2294 6764,2294 6788,2294 6813,2294 6837,2294 6861,2295 6886,2295 6910,2295 6934,2295 6959,2295 6983,2295 7007,2295 7032,2295 7056,2295 7080,2295 7105,2295 7129,2295 7153,2295 7178,2295 7202,2295 7226,2295 7251,2295 7275,2295 7299,2295 7324,2295 7348,2295 7372,2294 7397,2294 7421,2294 7445,2294 7470,2294 7494,2293 7518,2293 7543,2293 7567,2293 7591,2293 7616,2293 7640,2293 7664,2293 7689,2293 7713,2293 7737,2293 7762,2293 7786,2294 7810,2294 7835,2295 7858,2295 7882,2296 7907,2297 7931,2297 7955,2298 7980,2299 8004,2300 8028,2300 8053,2301 8077,2301 8101,2302 8126,2302 8150,2302 8175,2302 8199,2301 8223,2300 8248,2299 8272,2298 8296,2296 8321,2295 8345,2292 8369,2290 8394,2287 8418,2284 8442,2280 8467,2277 8491,2273 8515,2270 8540,2267 8564,2263 8588,2260 8613,2257 8637,2254 8661,2252 8686,2249 8710,2248 8734,2246 8759,2245 8783,2245 8807,2245 8832,2246 8856,2247 8880,2249 8905,2252 8929,2254 8953,2257 8978,2261 9002,2264 9026,2268 9051,2271 9075,2275 9099,2278 9124,2281 9148,2285 9172,2287 9197,2290 9221,2292 9245,2293 9270,2294 9294,2295 9318,2294 9343,2293 9367,2292 9391,2290 9416,2287 9440,2285 9465,2282 9489,2278 9513,2275 9538,2271 9562,2268 9586,2264 9611,2261 9635,2258 9659,2254 9684,2252 9708,2249 9732,2247 9757,2246 9781,2245 9805,2245 9830,2245 9854,2246 9878,2247 9903,2249 9927,2251 9951,2254 9976,2257 10000,2260 10024,2263 10049,2266 10073,2269 10097,2273 10122,2276 10146,2280 10170,2283 10195,2286 10219,2289 10243,2292 10268,2295 10292,2297 10316,2298 10341,2300 10365,2301 10389,2302 10414,2303 10438,2303 10462,2303 10487,2303 10511,2303 10535,2303 10560,2302 10584,2302 10608,2301 10633,2300 10657,2299 10681,2298 10706,2297 10730,2296 10755,2295"/>
 <path fill="rgb(255,0,0)" stroke="none" d="M 1407,2195 L 1407,2395 1607,2395 1607,2195 1407,2195 Z"/>
 <path fill="none" stroke="rgb(255,0,0)" stroke-linejoin="round" d="M 1407,2195 L 1407,2395 1607,2395 1607,2195 1407,2195 Z"/>
 <path fill="rgb(255,0,0)" stroke="none" d="M 1893,2145 L 1893,2345 2093,2345 2093,2145 1893,2145 Z"/>
 <path fill="none" stroke="rgb(255,0,0)" stroke-linejoin="round" d="M 1893,2145 L 1893,2345 2093,2345 2093,2145 1893,2145 Z"/>
 <path fill="rgb(255,0,0)" stroke="none" d="M 2380,2195 L 2380,2395 2580,2395 2580,2195 2380,2195 Z"/>
 <path fill="none" stroke="rgb(255,0,0)" stroke-linejoin="round" d="M 2380,2195 L 2380,2395 2580,2395 2580,2195 2380,2195 Z"/>
 <path fill="rgb(255,0,0)" stroke="none" d="M 2867,2145 L 2867,2345 3067,2345 3067,2145 2867,2145 Z"/>
 <path fill="none" stroke="rgb(255,0,0)" stroke-linejoin="round" d="M 2867,2145 L 2867,2345 3067,2345 3067,2145 2867,2145 Z"/>
 <path fill="rgb(255,0,0)" stroke="none" d="M 3354,2096 L 3354,2296 3554,2296 3554,2096 3354,2096 Z"/>
 <path fill="none" stroke="rgb(255,0,0)" stroke-linejoin="round" d="M 3354,2096 L 3354,2296 3554,2296 3554,2096 3354,2096 Z"/>
 <path fill="rgb(255,0,0)" stroke="none" d="M 3840,2145 L 3840,2345 4040,2345 4040,2145 3840,2145 Z"/>
 <path fill="none" stroke="rgb(255,0,0)" stroke-linejoin="round" d="M 3840,2145 L 3840,2345 4040,2345 4040,2145 3840,2145 Z"/>
 <path fill="rgb(255,0,0)" stroke="none" d="M 4327,2195 L 4327,2395 4527,2395 4527,2195 4327,2195 Z"/>
 <path fill="none" stroke="rgb(255,0,0)" stroke-linejoin="round" d="M 4327,2195 L 4327,2395 4527,2395 4527,2195 4327,2195 Z"/>
 <path fill="rgb(255,0,0)" stroke="none" d="M 4814,2244 L 4814,2444 5014,2444 5014,2244 4814,2244 Z"/>
 <path fill="none" stroke="rgb(255,0,0)" stroke-linejoin="round" d="M 4814,2244 L 4814,2444 5014,2444 5014,2244 4814,2244 Z"/>
 <path fill="rgb(255,0,0)" stroke="none" d="M 5301,2195 L 5301,2395 5501,2395 5501,2195 5301,2195 Z"/>
 <path fill="none" stroke="rgb(255,0,0)" stroke-linejoin="round" d="M 5301,2195 L 5301,2395 5501,2395 5501,2195 5301,2195 Z"/>
 <path fill="rgb(255,0,0)" stroke="none" d="M 5788,2195 L 5788,2395 5988,2395 5988,2195 5788,2195 Z"/>
 <path fill="none" stroke="rgb(255,0,0)" stroke-linejoin="round" d="M 5788,2195 L 5788,2395 5988,2395 5988,2195 5788,2195 Z"/>
 <path fill="rgb(255,0,0)" stroke="none" d="M 6274,2195 L 6274,2395 6474,2395 6474,2195 6274,2195 Z"/>
 <path fill="none" stroke="rgb(255,0,0)" stroke-linejoin="round" d="M 6274,2195 L 6274,2395 6474,2395 6474,2195 6274,2195 Z"/>
 <path fill="rgb(255,0,0)" stroke="none" d="M 6761,2195 L 6761,2395 6961,2395 6961,2195 6761,2195 Z"/>
 <path fill="none" stroke="rgb(255,0,0)" stroke-linejoin="round" d="M 6761,2195 L 6761,2395 6961,2395 6961,2195 6761,2195 Z"/>
 <path fill="rgb(255,0,0)" stroke="none" d="M 7248,2195 L 7248,2395 7448,2395 7448,2195 7248,2195 Z"/>
 <path fill="none" stroke="rgb(255,0,0)" stroke-linejoin="round" d="M 7248,2195 L 7248,2395 7448,2395 7448,2195 7248,2195 Z"/>
 <path fill="rgb(255,0,0)" stroke="none" d="M 7735,2195 L 7735,2395 7934,2395 7934,2195 7735,2195 Z"/>
 <path fill="none" stroke="rgb(255,0,0)" stroke-linejoin="round" d="M 7735,2195 L 7735,2395 7934,2395 7934,2195 7735,2195 Z"/>
 <path fill="rgb(255,0,0)" stroke="none" d="M 8221,2195 L 8221,2395 8421,2395 8421,2195 8221,2195 Z"/>
 <path fill="none" stroke="rgb(255,0,0)" stroke-linejoin="round" d="M 8221,2195 L 8221,2395 8421,2395 8421,2195 8221,2195 Z"/>
 <path fill="rgb(255,0,0)" stroke="none" d="M 8707,2145 L 8707,2345 8907,2345 8907,2145 8707,2145 Z"/>
 <path fill="none" stroke="rgb(255,0,0)" stroke-linejoin="round" d="M 8707,2145 L 8707,2345 8907,2345 8907,2145 8707,2145 Z"/>
 <path fill="rgb(255,0,0)" stroke="none" d="M 9194,2195 L 9194,2395 9394,2395 9394,2195 9194,2195 Z"/>
 <path fill="none" stroke="rgb(255,0,0)" stroke-linejoin="round" d="M 9194,2195 L 9194,2395 9394,2395 9394,2195 9194,2195 Z"/>
 <path fill="rgb(255,0,0)" stroke="none" d="M 9681,2145 L 9681,2345 9881,2345 9881,2145 9681,2145 Z"/>
 <path fill="none" stroke="rgb(255,0,0)" stroke-linejoin="round" d="M 9681,2145 L 9681,2345 9881,2345 9881,2145 9681,2145 Z"/>
 <path fill="rgb(255,0,0)" stroke="none" d="M 10168,2195 L 10168,2395 10368,2395 10368,2195 10168,2195 Z"/>
 <path fill="none" stroke="rgb(255,0,0)" stroke-linejoin="round" d="M 10168,2195 L 10168,2395 10368,2395 10368,2195 10168,2195 Z"/>
 <path fill="rgb(255,0,0)" stroke="none" d="M 10655,2195 L 10655,2395 10855,2395 10855,2195 10655,2195 Z"/>
 <path fill="none" stroke="rgb(255,0,0)" stroke-linejoin="round" d="M 10655,2195 L 10655,2395 10855,2395 10855,2195 10655,2195 Z"/>
 <path fill="none" stroke="rgb(0,0,255)" stroke-width="50" stroke-linejoin="round" d="M 1507,3085 L 1531,3076 1555,3068 1580,3059 1604,3051 1628,3043 1653,3034 1677,3026 1701,3018 1726,3010 1750,3003 1774,2995 1799,2988 1823,2980 1847,2973 1872,2967 1896,2960 1920,2954 1945,2948 1969,2942 1993,2937 2018,2932 2042,2927 2066,2922 2091,2918 2115,2914 2139,2911 2164,2908 2188,2905 2212,2902 2237,2899 2261,2897 2285,2895 2310,2894 2334,2892 2358,2891 2383,2890 2407,2889 2431,2888 2456,2888 2480,2887 2504,2887 2529,2887 2553,2887 2577,2887 2602,2888 2626,2888 2650,2889 2675,2889 2699,2889 2723,2890 2748,2890 2772,2890 2796,2891 2821,2891 2845,2890 2870,2890 2894,2890 2918,2889 2943,2888 2967,2887 2991,2886 3016,2884 3040,2882 3064,2880 3089,2878 3113,2876 3137,2873 3162,2871 3186,2868 3210,2865 3235,2862 3259,2859 3283,2856 3308,2854 3332,2851 3356,2848 3381,2845 3405,2843 3429,2840 3454,2838 3478,2836 3502,2834 3527,2832 3551,2830 3575,2829 3600,2828 3624,2827 3648,2826 3673,2825 3697,2825 3721,2825 3746,2825 3770,2826 3794,2827 3819,2828 3843,2829 3867,2831 3892,2833 3916,2835 3940,2838 3965,2841 3989,2844 4013,2847 4038,2851 4062,2854 4086,2856 4111,2859 4135,2860 4160,2861 4184,2861 4208,2861 4233,2859 4257,2856 4281,2851 4306,2845 4330,2838 4354,2828 4379,2817 4403,2804 4427,2788 4452,2771 4476,2751 4500,2730 4525,2707 4549,2682 4573,2656 4598,2630 4622,2602 4646,2574 4671,2546 4695,2518 4719,2490 4744,2462 4768,2434 4792,2408 4817,2382 4841,2358 4865,2335 4890,2314 4914,2295 4938,2277 4963,2262 4987,2248 5011,2237 5036,2227 5060,2218 5084,2211 5109,2205 5133,2201 5157,2197 5182,2194 5206,2193 5230,2192 5255,2191 5279,2191 5303,2192 5328,2193 5352,2194 5376,2195 5401,2196 5425,2197 5449,2197 5474,2198 5498,2198 5523,2199 5547,2199 5571,2199 5596,2199 5620,2199 5644,2199 5669,2199 5693,2198 5717,2198 5742,2198 5766,2197 5790,2197 5815,2197 5839,2196 5863,2196 5888,2196 5912,2196 5936,2195 5961,2195 5985,2195 6009,2195 6034,2195 6058,2195 6082,2195 6107,2195 6131,2195 6155,2195 6180,2195 6204,2195 6228,2195 6253,2195 6277,2195 6301,2196 6326,2196 6350,2196 6374,2196 6399,2196 6423,2196 6447,2196 6472,2196 6496,2195 6520,2195 6545,2194 6569,2193 6593,2192 6618,2190 6642,2188 6666,2185 6691,2182 6715,2179 6739,2175 6764,2171 6788,2166 6813,2160 6837,2153 6861,2146 6886,2139 6910,2130 6934,2121 6959,2111 6983,2101 7007,2091 7032,2080 7056,2069 7080,2058 7105,2047 7129,2036 7153,2025 7178,2014 7202,2004 7226,1993 7251,1983 7275,1974 7299,1965 7324,1957 7348,1949 7372,1942 7397,1936 7421,1930 7445,1925 7470,1921 7494,1917 7518,1914 7543,1911 7567,1908 7591,1906 7616,1905 7640,1903 7664,1902 7689,1902 7713,1901 7737,1901 7762,1900 7786,1900 7810,1900 7835,1899 7858,1899 7882,1899 7907,1898 7931,1898 7955,1898 7980,1897 8004,1897 8028,1897 8053,1897 8077,1896 8101,1896 8126,1896 8150,1896 8175,1896 8199,1897 8223,1897 8248,1897 8272,1898 8296,1899 8321,1899 8345,1900 8369,1902 8394,1903 8418,1904 8442,1905 8467,1907 8491,1908 8515,1909 8540,1910 8564,1911 8588,1911 8613,1911 8637,1911 8661,1911 8686,1910 8710,1909 8734,1907 8759,1905 8783,1903 8807,1899 8832,1896 8856,1891 8880,1886 8905,1881 8929,1875 8953,1870 8978,1864 9002,1857 9026,1851 9051,1845 9075,1839 9099,1833 9124,1827 9148,1822 9172,1817 9197,1813 9221,1809 9245,1805 9270,1803 9294,1801 9318,1799 9343,1799 9367,1799 9391,1800 9416,1802 9440,1804 9465,1806 9489,1809 9513,1812 9538,1815 9562,1819 9586,1823 9611,1826 9635,1830 9659,1834 9684,1838 9708,1841 9732,1844 9757,1847 9781,1850 9805,1852 9830,1854 9854,1856 9878,1857 9903,1857 9927,1858 9951,1858 9976,1858 10000,1858 10024,1858 10049,1857 10073,1857 10097,1856 10122,1855 10146,1854 10170,1853 10195,1852 10219,1852 10243,1851 10268,1850 10292,1849 10316,1849 10341,1848 10365,1848 10389,1848 10414,1848 10438,1847 10462,1847 10487,1847 10511,1847 10535,1848 10560,1848 10584,1848 10608,1848 10633,1848 10657,1849 10681,1849 10706,1849 10730,1850 10755,1850"/>
 <path fill="rgb(0,0,255)" stroke="none" d="M 1407,3085 L 1507,3185 1607,3085 1507,2985 1407,3085 Z"/>
 <path fill="none" stroke="rgb(0,0,255)" stroke-linejoin="round" d="M 1407,3085 L 1507,3185 1607,3085 1507,2985 1407,3085 Z"/>
 <path fill="rgb(0,0,255)" stroke="none" d="M 1893,2937 L 1993,3037 2093,2937 1993,2837 1893,2937 Z"/>
 <path fill="none" stroke="rgb(0,0,255)" stroke-linejoin="round" d="M 1893,2937 L 1993,3037 2093,2937 1993,2837 1893,2937 Z"/>
 <path fill="rgb(0,0,255)" stroke="none" d="M 2380,2887 L 2480,2987 2580,2887 2480,2787 2380,2887 Z"/>
 <path fill="none" stroke="rgb(0,0,255)" stroke-linejoin="round" d="M 2380,2887 L 2480,2987 2580,2887 2480,2787 2380,2887 Z"/>
 <path fill="rgb(0,0,255)" stroke="none" d="M 2867,2887 L 2967,2987 3067,2887 2967,2787 2867,2887 Z"/>
 <path fill="none" stroke="rgb(0,0,255)" stroke-linejoin="round" d="M 2867,2887 L 2967,2987 3067,2887 2967,2787 2867,2887 Z"/>
 <path fill="rgb(0,0,255)" stroke="none" d="M 3354,2838 L 3454,2938 3554,2838 3454,2738 3354,2838 Z"/>
 <path fill="none" stroke="rgb(0,0,255)" stroke-linejoin="round" d="M 3354,2838 L 3454,2938 3554,2838 3454,2738 3354,2838 Z"/>
 <path fill="rgb(0,0,255)" stroke="none" d="M 3840,2838 L 3940,2938 4040,2838 3940,2738 3840,2838 Z"/>
 <path fill="none" stroke="rgb(0,0,255)" stroke-linejoin="round" d="M 3840,2838 L 3940,2938 4040,2838 3940,2738 3840,2838 Z"/>
 <path fill="rgb(0,0,255)" stroke="none" d="M 4327,2788 L 4427,2888 4527,2788 4427,2688 4327,2788 Z"/>
 <path fill="none" stroke="rgb(0,0,255)" stroke-linejoin="round" d="M 4327,2788 L 4427,2888 4527,2788 4427,2688 4327,2788 Z"/>
 <path fill="rgb(0,0,255)" stroke="none" d="M 4814,2295 L 4914,2395 5014,2295 4914,2195 4814,2295 Z"/>
 <path fill="none" stroke="rgb(0,0,255)" stroke-linejoin="round" d="M 4814,2295 L 4914,2395 5014,2295 4914,2195 4814,2295 Z"/>
 <path fill="rgb(0,0,255)" stroke="none" d="M 5301,2196 L 5401,2296 5501,2196 5401,2096 5301,2196 Z"/>
 <path fill="none" stroke="rgb(0,0,255)" stroke-linejoin="round" d="M 5301,2196 L 5401,2296 5501,2196 5401,2096 5301,2196 Z"/>
 <path fill="rgb(0,0,255)" stroke="none" d="M 5788,2196 L 5888,2296 5988,2196 5888,2096 5788,2196 Z"/>
 <path fill="none" stroke="rgb(0,0,255)" stroke-linejoin="round" d="M 5788,2196 L 5888,2296 5988,2196 5888,2096 5788,2196 Z"/>
 <path fill="rgb(0,0,255)" stroke="none" d="M 6274,2196 L 6374,2296 6474,2196 6374,2096 6274,2196 Z"/>
 <path fill="none" stroke="rgb(0,0,255)" stroke-linejoin="round" d="M 6274,2196 L 6374,2296 6474,2196 6374,2096 6274,2196 Z"/>
 <path fill="rgb(0,0,255)" stroke="none" d="M 6761,2146 L 6861,2246 6961,2146 6861,2046 6761,2146 Z"/>
 <path fill="none" stroke="rgb(0,0,255)" stroke-linejoin="round" d="M 6761,2146 L 6861,2246 6961,2146 6861,2046 6761,2146 Z"/>
 <path fill="rgb(0,0,255)" stroke="none" d="M 7248,1949 L 7348,2049 7448,1949 7348,1849 7248,1949 Z"/>
 <path fill="none" stroke="rgb(0,0,255)" stroke-linejoin="round" d="M 7248,1949 L 7348,2049 7448,1949 7348,1849 7248,1949 Z"/>
 <path fill="rgb(0,0,255)" stroke="none" d="M 7735,1899 L 7835,1999 7934,1899 7835,1799 7735,1899 Z"/>
 <path fill="none" stroke="rgb(0,0,255)" stroke-linejoin="round" d="M 7735,1899 L 7835,1999 7934,1899 7835,1799 7735,1899 Z"/>
 <path fill="rgb(0,0,255)" stroke="none" d="M 8221,1899 L 8321,1999 8421,1899 8321,1799 8221,1899 Z"/>
 <path fill="none" stroke="rgb(0,0,255)" stroke-linejoin="round" d="M 8221,1899 L 8321,1999 8421,1899 8321,1799 8221,1899 Z"/>
 <path fill="rgb(0,0,255)" stroke="none" d="M 8707,1899 L 8807,1999 8907,1899 8807,1799 8707,1899 Z"/>
 <path fill="none" stroke="rgb(0,0,255)" stroke-linejoin="round" d="M 8707,1899 L 8807,1999 8907,1899 8807,1799 8707,1899 Z"/>
 <path fill="rgb(0,0,255)" stroke="none" d="M 9194,1801 L 9294,1901 9394,1801 9294,1701 9194,1801 Z"/>
 <path fill="none" stroke="rgb(0,0,255)" stroke-linejoin="round" d="M 9194,1801 L 9294,1901 9394,1801 9294,1701 9194,1801 Z"/>
 <path fill="rgb(0,0,255)" stroke="none" d="M 9681,1850 L 9781,1950 9881,1850 9781,1750 9681,1850 Z"/>
 <path fill="none" stroke="rgb(0,0,255)" stroke-linejoin="round" d="M 9681,1850 L 9781,1950 9881,1850 9781,1750 9681,1850 Z"/>
 <path fill="rgb(0,0,255)" stroke="none" d="M 10168,1850 L 10268,1950 10368,1850 10268,1750 10168,1850 Z"/>
 <path fill="none" stroke="rgb(0,0,255)" stroke-linejoin="round" d="M 10168,1850 L 10268,1950 10368,1850 10268,1750 10168,1850 Z"/>
 <path fill="rgb(0,0,255)" stroke="none" d="M 10655,1850 L 10755,1950 10855,1850 10755,1750 10655,1850 Z"/>
 <path fill="none" stroke="rgb(0,0,255)" stroke-linejoin="round" d="M 10655,1850 L 10755,1950 10855,1850 10755,1750 10655,1850 Z"/>
 <text class="TextShape"><tspan class="TextParagraph" font-family="Liberation Sans, sans-serif" font-size="353px" font-weight="400"><tspan class="TextPosition" x="1414" y="7900"/><tspan class="TextPosition" x="1414" y="7900"><tspan fill="rgb(0,0,0)" stroke="none">1</tspan></tspan></tspan></text>
 <text class="TextShape"><tspan class="TextParagraph" font-family="Liberation Sans, sans-serif" font-size="353px" font-weight="400"><tspan class="TextPosition" x="1900" y="7900"/><tspan class="TextPosition" x="1900" y="7900"><tspan fill="rgb(0,0,0)" stroke="none">2</tspan></tspan></tspan></text>
 <text class="TextShape"><tspan class="TextParagraph" font-family="Liberation Sans, sans-serif" font-size="353px" font-weight="400"><tspan class="TextPosition" x="2387" y="7900"/><tspan class="TextPosition" x="2387" y="7900"><tspan fill="rgb(0,0,0)" stroke="none">3</tspan></tspan></tspan></text>
 <text class="TextShape"><tspan class="TextParagraph" font-family="Liberation Sans, sans-serif" font-size="353px" font-weight="400"><tspan class="TextPosition" x="2874" y="7900"/><tspan class="TextPosition" x="2874" y="7900"><tspan fill="rgb(0,0,0)" stroke="none">4</tspan></tspan></tspan></text>
 <text class="TextShape"><tspan class="TextParagraph" font-family="Liberation Sans, sans-serif" font-size="353px" font-weight="400"><tspan class="TextPosition" x="3361" y="7900"/><tspan class="TextPosition" x="3361" y="7900"><tspan fill="rgb(0,0,0)" stroke="none">5</tspan></tspan></tspan></text>
 <text class="TextShape"><tspan class="TextParagraph" font-family="Liberation Sans, sans-serif" font-size="353px" font-weight="400"><tspan class="TextPosition" x="3847" y="7900"/><tspan class="TextPosition" x="3847" y="7900"><tspan fill="rgb(0,0,0)" stroke="none">6</tspan></tspan></tspan></text>
 <text class="TextShape"><tspan class="TextParagraph" font-family="Liberation Sans, sans-serif" font-size="353px" font-weight="400"><tspan class="TextPosition" x="4334" y="7900"/><tspan class="TextPosition" x="4334" y="7900"><tspan fill="rgb(0,0,0)" stroke="none">7</tspan></tspan></tspan></text>
 <text class="TextShape"><tspan class="TextParagraph" font-family="Liberation Sans, sans-serif" font-size="353px" font-weight="400"><tspan class="TextPosition" x="4821" y="7900"/><tspan class="TextPosition" x="4821" y="7900"><tspan fill="rgb(0,0,0)" stroke="none">8</tspan></tspan></tspan></text>
 <text class="TextShape"><tspan class="TextParagraph" font-family="Liberation Sans, sans-serif" font-size="353px" font-weight="400"><tspan class="TextPosition" x="5308" y="7900"/><tspan class="TextPosition" x="5308" y="7900"><tspan fill="rgb(0,0,0)" stroke="none">9</tspan></tspan></tspan></text>
 <text class="TextShape"><tspan class="TextParagraph" font-family="Liberation Sans, sans-serif" font-size="353px" font-weight="400"><tspan class="TextPosition" x="5703" y="7900"/><tspan class="TextPosition" x="5703" y="7900"><tspan fill="rgb(0,0,0)" stroke="none">10</tspan></tspan></tspan></text>
 <text class="TextShape"><tspan class="TextParagraph" font-family="Liberation Sans, sans-serif" font-size="353px" font-weight="400"><tspan class="TextPosition" x="6202" y="7900"/><tspan class="TextPosition" x="6202" y="7900"><tspan fill="rgb(0,0,0)" stroke="none">11</tspan></tspan></tspan></text>
 <text class="TextShape"><tspan class="TextParagraph" font-family="Liberation Sans, sans-serif" font-size="353px" font-weight="400"><tspan class="TextPosition" x="6676" y="7900"/><tspan class="TextPosition" x="6676" y="7900"><tspan fill="rgb(0,0,0)" stroke="none">12</tspan></tspan></tspan></text>
 <text class="TextShape"><tspan class="TextParagraph" font-family="Liberation Sans, sans-serif" font-size="353px" font-weight="400"><tspan class="TextPosition" x="7163" y="7900"/><tspan class="TextPosition" x="7163" y="7900"><tspan fill="rgb(0,0,0)" stroke="none">13</tspan></tspan></tspan></text>
 <text class="TextShape"><tspan class="TextParagraph" font-family="Liberation Sans, sans-serif" font-size="353px" font-weight="400"><tspan class="TextPosition" x="7650" y="7900"/><tspan class="TextPosition" x="7650" y="7900"><tspan fill="rgb(0,0,0)" stroke="none">14</tspan></tspan></tspan></text>
 <text class="TextShape"><tspan class="TextParagraph" font-family="Liberation Sans, sans-serif" font-size="353px" font-weight="400"><tspan class="TextPosition" x="8137" y="7900"/><tspan class="TextPosition" x="8137" y="7900"><tspan fill="rgb(0,0,0)" stroke="none">15</tspan></tspan></tspan></text>
 <text class="TextShape"><tspan class="TextParagraph" font-family="Liberation Sans, sans-serif" font-size="353px" font-weight="400"><tspan class="TextPosition" x="8623" y="7900"/><tspan class="TextPosition" x="8623" y="7900"><tspan fill="rgb(0,0,0)" stroke="none">16</tspan></tspan></tspan></text>
 <text class="TextShape"><tspan class="TextParagraph" font-family="Liberation Sans, sans-serif" font-size="353px" font-weight="400"><tspan class="TextPosition" x="9110" y="7900"/><tspan class="TextPosition" x="9110" y="7900"><tspan fill="rgb(0,0,0)" stroke="none">17</tspan></tspan></tspan></text>
 <text class="TextShape"><tspan class="TextParagraph" font-family="Liberation Sans, sans-serif" font-size="353px" font-weight="400"><tspan class="TextPosition" x="9597" y="7900"/><tspan class="TextPosition" x="9597" y="7900"><tspan fill="rgb(0,0,0)" stroke="none">18</tspan></tspan></tspan></text>
 <text class="TextShape"><tspan class="TextParagraph" font-family="Liberation Sans, sans-serif" font-size="353px" font-weight="400"><tspan class="TextPosition" x="10084" y="7900"/><tspan class="TextPosition" x="10084" y="7900"><tspan fill="rgb(0,0,0)" stroke="none">19</tspan></tspan></tspan></text>
 <text class="TextShape"><tspan class="TextParagraph" font-family="Liberation Sans, sans-serif" font-size="353px" font-weight="400"><tspan class="TextPosition" x="10571" y="7900"/><tspan class="TextPosition" x="10571" y="7900"><tspan fill="rgb(0,0,0)" stroke="none">20</tspan></tspan></tspan></text>
 <text class="TextShape"><tspan class="TextParagraph" font-family="Liberation Sans, sans-serif" font-size="353px" font-weight="400"><tspan class="TextPosition" x="1072" y="7453"/><tspan class="TextPosition" x="1072" y="7453"><tspan fill="rgb(0,0,0)" stroke="none">0</tspan></tspan></tspan></text>
 <text class="TextShape"><tspan class="TextParagraph" font-family="Liberation Sans, sans-serif" font-size="353px" font-weight="400"><tspan class="TextPosition" x="781" y="6465"/><tspan class="TextPosition" x="781" y="6465"><tspan fill="rgb(0,0,0)" stroke="none">0,2</tspan></tspan></tspan></text>
 <text class="TextShape"><tspan class="TextParagraph" font-family="Liberation Sans, sans-serif" font-size="353px" font-weight="400"><tspan class="TextPosition" x="781" y="5477"/><tspan class="TextPosition" x="781" y="5477"><tspan fill="rgb(0,0,0)" stroke="none">0,4</tspan></tspan></tspan></text>
 <text class="TextShape"><tspan class="TextParagraph" font-family="Liberation Sans, sans-serif" font-size="353px" font-weight="400"><tspan class="TextPosition" x="781" y="4489"/><tspan class="TextPosition" x="781" y="4489"><tspan fill="rgb(0,0,0)" stroke="none">0,6</tspan></tspan></tspan></text>
 <text class="TextShape"><tspan class="TextParagraph" font-family="Liberation Sans, sans-serif" font-size="353px" font-weight="400"><tspan class="TextPosition" x="781" y="3501"/><tspan class="TextPosition" x="781" y="3501"><tspan fill="rgb(0,0,0)" stroke="none">0,8</tspan></tspan></tspan></text>
 <text class="TextShape"><tspan class="TextParagraph" font-family="Liberation Sans, sans-serif" font-size="353px" font-weight="400"><tspan class="TextPosition" x="1072" y="2513"/><tspan class="TextPosition" x="1072" y="2513"><tspan fill="rgb(0,0,0)" stroke="none">1</tspan></tspan></tspan></text>
 <text class="TextShape"><tspan class="TextParagraph" font-family="Liberation Sans, sans-serif" font-size="353px" font-weight="400"><tspan class="TextPosition" x="781" y="1525"/><tspan class="TextPosition" x="781" y="1525"><tspan fill="rgb(0,0,0)" stroke="none">1,2</tspan></tspan></tspan></text>
 <path fill="none" stroke="rgb(255,0,0)" stroke-width="50" stroke-linejoin="round" d="M 11414,4341 L 12214,4341"/>
 <path fill="rgb(255,0,0)" stroke="none" d="M 11708,4236 L 11708,4447 11919,4447 11919,4236 11708,4236 Z"/>
 <path fill="none" stroke="rgb(255,0,0)" stroke-linejoin="round" d="M 11708,4236 L 11708,4447 11919,4447 11919,4236 11708,4236 Z"/>
 <path fill="none" stroke="rgb(0,0,255)" stroke-width="50" stroke-linejoin="round" d="M 11414,4838 L 12214,4838"/>
 <path fill="rgb(0,0,255)" stroke="none" d="M 11708,4838 L 11814,4944 11919,4838 11814,4733 11708,4838 Z"/>
 <path fill="none" stroke="rgb(0,0,255)" stroke-linejoin="round" d="M 11708,4838 L 11814,4944 11919,4838 11814,4733 11708,4838 Z"/>
 <text class="TextShape"><tspan class="TextParagraph" font-family="Liberation Sans, sans-serif" font-size="353px" font-weight="400"><tspan class="TextPosition" x="12314" y="4461"/><tspan class="TextPosition" x="12314" y="4461"><tspan fill="rgb(0,0,0)" stroke="none">LD_PRELOAD + AT</tspan></tspan></tspan></text>
 <text class="TextShape"><tspan class="TextParagraph" font-family="Liberation Sans, sans-serif" font-size="353px" font-weight="400"><tspan class="TextPosition" x="12314" y="4958"/><tspan class="TextPosition" x="12314" y="4958"><tspan fill="rgb(0,0,0)" stroke="none">AT</tspan></tspan></tspan></text>
 <text class="TextShape"><tspan class="TextParagraph" font-family="Liberation Sans, sans-serif" font-size="353px" font-weight="400"><tspan class="TextPosition" x="11390" y="7514"/><tspan class="TextPosition" x="11390" y="7514"><tspan fill="rgb(0,0,0)" stroke="none">Expérience</tspan></tspan></tspan></text>
 <text class="TextShape"><tspan class="TextParagraph" font-family="Liberation Sans, sans-serif" font-size="353px" font-weight="400"><tspan class="TextPosition" x="628" y="841"/><tspan class="TextPosition" x="628" y="841"><tspan fill="rgb(0,0,0)" stroke="none">Temps(sec)</tspan></tspan></tspan></text>
</svg>