<?xml version="1.0" encoding="UTF-8"?>
<!DOCTYPE svg PUBLIC "-//W3C//DTD SVG 1.1//EN" "http://www.w3.org/Graphics/SVG/1.1/DTD/svg11.dtd">
<svg width="160mm" height="90mm" viewBox="0 0 16000 9000" version="1.1" baseProfile="tiny" xmlns="http://www.w3.org/2000/svg" stroke-width="28.222" stroke-linejoin="round" xml:space="preserve">
 <path fill="rgb(255,255,255)" stroke="none" d="M 8000,8999 L 0,8999 0,0 15999,0 15999,8999 8000,8999 Z"/>
 <path fill="none" stroke="rgb(179,179,179)" stroke-linejoin="round" d="M 6271,7141 L 1569,7141 1569,1020 10972,1020 10972,7141 6271,7141 Z"/>
 <path fill="none" stroke="rgb(179,179,179)" stroke-linejoin="round" d="M 1569,7290 L 1569,7140"/>
 <path fill="none" stroke="rgb(179,179,179)" stroke-linejoin="round" d="M 1569,7290 L 1569,7140"/>
 <path fill="none" stroke="rgb(179,179,179)" stroke-linejoin="round" d="M 2063,7290 L 2063,7140"/>
 <path fill="none" stroke="rgb(179,179,179)" stroke-linejoin="round" d="M 2063,7290 L 2063,7140"/>
 <path fill="none" stroke="rgb(179,179,179)" stroke-linejoin="round" d="M 2558,7290 L 2558,7140"/>
 <path fill="none" stroke="rgb(179,179,179)" stroke-linejoin="round" d="M 2558,7290 L 2558,7140"/>
 <path fill="none" stroke="rgb(179,179,179)" stroke-linejoin="round" d="M 3053,7290 L 3053,7140"/>
 <path fill="none" stroke="rgb(179,179,179)" stroke-linejoin="round" d="M 3053,7290 L 3053,7140"/>
 <path fill="none" stroke="rgb(179,179,179)" stroke-linejoin="round" d="M 3548,7290 L 3548,7140"/>
 <path fill="none" stroke="rgb(179,179,179)" stroke-linejoin="round" d="M 3548,7290 L 3548,7140"/>
 <path fill="none" stroke="rgb(179,179,179)" stroke-linejoin="round" d="M 4043,7290 L 4043,7140"/>
 <path fill="none" stroke="rgb(179,179,179)" stroke-linejoin="round" d="M 4043,7290 L 4043,7140"/>
 <path fill="none" stroke="rgb(179,179,179)" stroke-linejoin="round" d="M 4538,7290 L 4538,7140"/>
 <path fill="none" stroke="rgb(179,179,179)" stroke-linejoin="round" d="M 4538,7290 L 4538,7140"/>
 <path fill="none" stroke="rgb(179,179,179)" stroke-linejoin="round" d="M 5033,7290 L 5033,7140"/>
 <path fill="none" stroke="rgb(179,179,179)" stroke-linejoin="round" d="M 5033,7290 L 5033,7140"/>
 <path fill="none" stroke="rgb(179,179,179)" stroke-linejoin="round" d="M 5528,7290 L 5528,7140"/>
 <path fill="none" stroke="rgb(179,179,179)" stroke-linejoin="round" d="M 5528,7290 L 5528,7140"/>
 <path fill="none" stroke="rgb(179,179,179)" stroke-linejoin="round" d="M 6023,7290 L 6023,7140"/>
 <path fill="none" stroke="rgb(179,179,179)" stroke-linejoin="round" d="M 6023,7290 L 6023,7140"/>
 <path fill="none" stroke="rgb(179,179,179)" stroke-linejoin="round" d="M 6518,7290 L 6518,7140"/>
 <path fill="none" stroke="rgb(179,179,179)" stroke-linejoin="round" d="M 6518,7290 L 6518,7140"/>
 <path fill="none" stroke="rgb(179,179,179)" stroke-linejoin="round" d="M 7013,7290 L 7013,7140"/>
 <path fill="none" stroke="rgb(179,179,179)" stroke-linejoin="round" d="M 7013,7290 L 7013,7140"/>
 <path fill="none" stroke="rgb(179,179,179)" stroke-linejoin="round" d="M 7508,7290 L 7508,7140"/>
 <path fill="none" stroke="rgb(179,179,179)" stroke-linejoin="round" d="M 7508,7290 L 7508,7140"/>
 <path fill="none" stroke="rgb(179,179,179)" stroke-linejoin="round" d="M 8002,7290 L 8002,7140"/>
 <path fill="none" stroke="rgb(179,179,179)" stroke-linejoin="round" d="M 8002,7290 L 8002,7140"/>
 <path fill="none" stroke="rgb(179,179,179)" stroke-linejoin="round" d="M 8497,7290 L 8497,7140"/>
 <path fill="none" stroke="rgb(179,179,179)" stroke-linejoin="round" d="M 8497,7290 L 8497,7140"/>
 <path fill="none" stroke="rgb(179,179,179)" stroke-linejoin="round" d="M 8992,7290 L 8992,7140"/>
 <path fill="none" stroke="rgb(179,179,179)" stroke-linejoin="round" d="M 8992,7290 L 8992,7140"/>
 <path fill="none" stroke="rgb(179,179,179)" stroke-linejoin="round" d="M 9487,7290 L 9487,7140"/>
 <path fill="none" stroke="rgb(179,179,179)" stroke-linejoin="round" d="M 9487,7290 L 9487,7140"/>
 <path fill="none" stroke="rgb(179,179,179)" stroke-linejoin="round" d="M 9982,7290 L 9982,7140"/>
 <path fill="none" stroke="rgb(179,179,179)" stroke-linejoin="round" d="M 9982,7290 L 9982,7140"/>
 <path fill="none" stroke="rgb(179,179,179)" stroke-linejoin="round" d="M 10477,7290 L 10477,7140"/>
 <path fill="none" stroke="rgb(179,179,179)" stroke-linejoin="round" d="M 10477,7290 L 10477,7140"/>
 <path fill="none" stroke="rgb(179,179,179)" stroke-linejoin="round" d="M 10972,7290 L 10972,7140"/>
 <path fill="none" stroke="rgb(179,179,179)" stroke-linejoin="round" d="M 10972,7290 L 10972,7140"/>
 <path fill="none" stroke="rgb(179,179,179)" stroke-linejoin="round" d="M 1569,7140 L 10972,7140"/>
 <path fill="none" stroke="rgb(179,179,179)" stroke-linejoin="round" d="M 1419,7140 L 1569,7140"/>
 <path fill="none" stroke="rgb(179,179,179)" stroke-linejoin="round" d="M 1419,7140 L 1569,7140"/>
 <path fill="none" stroke="rgb(179,179,179)" stroke-linejoin="round" d="M 1419,6119 L 1569,6119"/>
 <path fill="none" stroke="rgb(179,179,179)" stroke-linejoin="round" d="M 1419,6119 L 1569,6119"/>
 <path fill="none" stroke="rgb(179,179,179)" stroke-linejoin="round" d="M 1419,5099 L 1569,5099"/>
 <path fill="none" stroke="rgb(179,179,179)" stroke-linejoin="round" d="M 1419,5099 L 1569,5099"/>
 <path fill="none" stroke="rgb(179,179,179)" stroke-linejoin="round" d="M 1419,4079 L 1569,4079"/>
 <path fill="none" stroke="rgb(179,179,179)" stroke-linejoin="round" d="M 1419,4079 L 1569,4079"/>
 <path fill="none" stroke="rgb(179,179,179)" stroke-linejoin="round" d="M 1419,3059 L 1569,3059"/>
 <path fill="none" stroke="rgb(179,179,179)" stroke-linejoin="round" d="M 1419,3059 L 1569,3059"/>
 <path fill="none" stroke="rgb(179,179,179)" stroke-linejoin="round" d="M 1419,2039 L 1569,2039"/>
 <path fill="none" stroke="rgb(179,179,179)" stroke-linejoin="round" d="M 1419,2039 L 1569,2039"/>
 <path fill="none" stroke="rgb(179,179,179)" stroke-linejoin="round" d="M 1419,1018 L 1569,1018"/>
 <path fill="none" stroke="rgb(179,179,179)" stroke-linejoin="round" d="M 1419,1018 L 1569,1018"/>
 <path fill="none" stroke="rgb(179,179,179)" stroke-linejoin="round" d="M 1569,7140 L 1569,1019"/>
 <path fill="none" stroke="rgb(102,204,0)" stroke-width="50" stroke-linejoin="round" d="M 1569,1937 L 2063,1937 2558,1886 3053,1886 3548,1886 4043,1886 4538,1886 5033,1937 5528,1784 6023,1886 6518,1937 7013,1886 7508,1835 8002,1886 8497,1886 8992,1937 9487,1886 9982,1886 10477,1784 10972,1835"/>
 <path fill="rgb(102,204,0)" stroke="none" d="M 1469,1837 L 1469,2037 1669,2037 1669,1837 1469,1837 Z"/>
 <path fill="none" stroke="rgb(102,204,0)" stroke-linejoin="round" d="M 1469,1837 L 1469,2037 1669,2037 1669,1837 1469,1837 Z"/>
 <path fill="rgb(102,204,0)" stroke="none" d="M 1963,1837 L 1963,2037 2163,2037 2163,1837 1963,1837 Z"/>
 <path fill="none" stroke="rgb(102,204,0)" stroke-linejoin="round" d="M 1963,1837 L 1963,2037 2163,2037 2163,1837 1963,1837 Z"/>
 <path fill="rgb(102,204,0)" stroke="none" d="M 2458,1786 L 2458,1986 2658,1986 2658,1786 2458,1786 Z"/>
 <path fill="none" stroke="rgb(102,204,0)" stroke-linejoin="round" d="M 2458,1786 L 2458,1986 2658,1986 2658,1786 2458,1786 Z"/>
 <path fill="rgb(102,204,0)" stroke="none" d="M 2953,1786 L 2953,1986 3153,1986 3153,1786 2953,1786 Z"/>
 <path fill="none" stroke="rgb(102,204,0)" stroke-linejoin="round" d="M 2953,1786 L 2953,1986 3153,1986 3153,1786 2953,1786 Z"/>
 <path fill="rgb(102,204,0)" stroke="none" d="M 3448,1786 L 3448,1986 3648,1986 3648,1786 3448,1786 Z"/>
 <path fill="none" stroke="rgb(102,204,0)" stroke-linejoin="round" d="M 3448,1786 L 3448,1986 3648,1986 3648,1786 3448,1786 Z"/>
 <path fill="rgb(102,204,0)" stroke="none" d="M 3943,1786 L 3943,1986 4143,1986 4143,1786 3943,1786 Z"/>
 <path fill="none" stroke="rgb(102,204,0)" stroke-linejoin="round" d="M 3943,1786 L 3943,1986 4143,1986 4143,1786 3943,1786 Z"/>
 <path fill="rgb(102,204,0)" stroke="none" d="M 4438,1786 L 4438,1986 4638,1986 4638,1786 4438,1786 Z"/>
 <path fill="none" stroke="rgb(102,204,0)" stroke-linejoin="round" d="M 4438,1786 L 4438,1986 4638,1986 4638,1786 4438,1786 Z"/>
 <path fill="rgb(102,204,0)" stroke="none" d="M 4933,1837 L 4933,2037 5133,2037 5133,1837 4933,1837 Z"/>
 <path fill="none" stroke="rgb(102,204,0)" stroke-linejoin="round" d="M 4933,1837 L 4933,2037 5133,2037 5133,1837 4933,1837 Z"/>
 <path fill="rgb(102,204,0)" stroke="none" d="M 5428,1684 L 5428,1884 5628,1884 5628,1684 5428,1684 Z"/>
 <path fill="none" stroke="rgb(102,204,0)" stroke-linejoin="round" d="M 5428,1684 L 5428,1884 5628,1884 5628,1684 5428,1684 Z"/>
 <path fill="rgb(102,204,0)" stroke="none" d="M 5923,1786 L 5923,1986 6123,1986 6123,1786 5923,1786 Z"/>
 <path fill="none" stroke="rgb(102,204,0)" stroke-linejoin="round" d="M 5923,1786 L 5923,1986 6123,1986 6123,1786 5923,1786 Z"/>
 <path fill="rgb(102,204,0)" stroke="none" d="M 6418,1837 L 6418,2037 6618,2037 6618,1837 6418,1837 Z"/>
 <path fill="none" stroke="rgb(102,204,0)" stroke-linejoin="round" d="M 6418,1837 L 6418,2037 6618,2037 6618,1837 6418,1837 Z"/>
 <path fill="rgb(102,204,0)" stroke="none" d="M 6913,1786 L 6913,1986 7113,1986 7113,1786 6913,1786 Z"/>
 <path fill="none" stroke="rgb(102,204,0)" stroke-linejoin="round" d="M 6913,1786 L 6913,1986 7113,1986 7113,1786 6913,1786 Z"/>
 <path fill="rgb(102,204,0)" stroke="none" d="M 7408,1735 L 7408,1935 7608,1935 7608,1735 7408,1735 Z"/>
 <path fill="none" stroke="rgb(102,204,0)" stroke-linejoin="round" d="M 7408,1735 L 7408,1935 7608,1935 7608,1735 7408,1735 Z"/>
 <path fill="rgb(102,204,0)" stroke="none" d="M 7903,1786 L 7903,1986 8102,1986 8102,1786 7903,1786 Z"/>
 <path fill="none" stroke="rgb(102,204,0)" stroke-linejoin="round" d="M 7903,1786 L 7903,1986 8102,1986 8102,1786 7903,1786 Z"/>
 <path fill="rgb(102,204,0)" stroke="none" d="M 8397,1786 L 8397,1986 8597,1986 8597,1786 8397,1786 Z"/>
 <path fill="none" stroke="rgb(102,204,0)" stroke-linejoin="round" d="M 8397,1786 L 8397,1986 8597,1986 8597,1786 8397,1786 Z"/>
 <path fill="rgb(102,204,0)" stroke="none" d="M 8892,1837 L 8892,2037 9092,2037 9092,1837 8892,1837 Z"/>
 <path fill="none" stroke="rgb(102,204,0)" stroke-linejoin="round" d="M 8892,1837 L 8892,2037 9092,2037 9092,1837 8892,1837 Z"/>
 <path fill="rgb(102,204,0)" stroke="none" d="M 9387,1786 L 9387,1986 9587,1986 9587,1786 9387,1786 Z"/>
 <path fill="none" stroke="rgb(102,204,0)" stroke-linejoin="round" d="M 9387,1786 L 9387,1986 9587,1986 9587,1786 9387,1786 Z"/>
 <path fill="rgb(102,204,0)" stroke="none" d="M 9882,1786 L 9882,1986 10082,1986 10082,1786 9882,1786 Z"/>
 <path fill="none" stroke="rgb(102,204,0)" stroke-linejoin="round" d="M 9882,1786 L 9882,1986 10082,1986 10082,1786 9882,1786 Z"/>
 <path fill="rgb(102,204,0)" stroke="none" d="M 10377,1684 L 10377,1884 10577,1884 10577,1684 10377,1684 Z"/>
 <path fill="none" stroke="rgb(102,204,0)" stroke-linejoin="round" d="M 10377,1684 L 10377,1884 10577,1884 10577,1684 10377,1684 Z"/>
 <path fill="rgb(102,204,0)" stroke="none" d="M 10872,1735 L 10872,1935 11072,1935 11072,1735 10872,1735 Z"/>
 <path fill="none" stroke="rgb(102,204,0)" stroke-linejoin="round" d="M 10872,1735 L 10872,1935 11072,1935 11072,1735 10872,1735 Z"/>
 <path fill="none" stroke="rgb(255,211,32)" stroke-width="50" stroke-linejoin="round" d="M 1569,2957 L 2063,2753 2558,2753 3053,2600 3548,2549 4043,2498 4538,2447 5033,2447 5528,1937 6023,1937 6518,1937 7013,1835 7508,1580 8002,1580 8497,1580 8992,1529 9487,1529 9982,1478 10477,1478 10972,1376"/>
 <path fill="rgb(255,211,32)" stroke="none" d="M 1469,2957 L 1569,3057 1669,2957 1569,2857 1469,2957 Z"/>
 <path fill="none" stroke="rgb(255,211,32)" stroke-linejoin="round" d="M 1469,2957 L 1569,3057 1669,2957 1569,2857 1469,2957 Z"/>
 <path fill="rgb(255,211,32)" stroke="none" d="M 1963,2753 L 2063,2853 2163,2753 2063,2653 1963,2753 Z"/>
 <path fill="none" stroke="rgb(255,211,32)" stroke-linejoin="round" d="M 1963,2753 L 2063,2853 2163,2753 2063,2653 1963,2753 Z"/>
 <path fill="rgb(255,211,32)" stroke="none" d="M 2458,2753 L 2558,2853 2658,2753 2558,2653 2458,2753 Z"/>
 <path fill="none" stroke="rgb(255,211,32)" stroke-linejoin="round" d="M 2458,2753 L 2558,2853 2658,2753 2558,2653 2458,2753 Z"/>
 <path fill="rgb(255,211,32)" stroke="none" d="M 2953,2600 L 3053,2700 3153,2600 3053,2500 2953,2600 Z"/>
 <path fill="none" stroke="rgb(255,211,32)" stroke-linejoin="round" d="M 2953,2600 L 3053,2700 3153,2600 3053,2500 2953,2600 Z"/>
 <path fill="rgb(255,211,32)" stroke="none" d="M 3448,2549 L 3548,2649 3648,2549 3548,2449 3448,2549 Z"/>
 <path fill="none" stroke="rgb(255,211,32)" stroke-linejoin="round" d="M 3448,2549 L 3548,2649 3648,2549 3548,2449 3448,2549 Z"/>
 <path fill="rgb(255,211,32)" stroke="none" d="M 3943,2498 L 4043,2598 4143,2498 4043,2398 3943,2498 Z"/>
 <path fill="none" stroke="rgb(255,211,32)" stroke-linejoin="round" d="M 3943,2498 L 4043,2598 4143,2498 4043,2398 3943,2498 Z"/>
 <path fill="rgb(255,211,32)" stroke="none" d="M 4438,2447 L 4538,2547 4638,2447 4538,2347 4438,2447 Z"/>
 <path fill="none" stroke="rgb(255,211,32)" stroke-linejoin="round" d="M 4438,2447 L 4538,2547 4638,2447 4538,2347 4438,2447 Z"/>
 <path fill="rgb(255,211,32)" stroke="none" d="M 4933,2447 L 5033,2547 5133,2447 5033,2347 4933,2447 Z"/>
 <path fill="none" stroke="rgb(255,211,32)" stroke-linejoin="round" d="M 4933,2447 L 5033,2547 5133,2447 5033,2347 4933,2447 Z"/>
 <path fill="rgb(255,211,32)" stroke="none" d="M 5428,1937 L 5528,2037 5628,1937 5528,1837 5428,1937 Z"/>
 <path fill="none" stroke="rgb(255,211,32)" stroke-linejoin="round" d="M 5428,1937 L 5528,2037 5628,1937 5528,1837 5428,1937 Z"/>
 <path fill="rgb(255,211,32)" stroke="none" d="M 5923,1937 L 6023,2037 6123,1937 6023,1837 5923,1937 Z"/>
 <path fill="none" stroke="rgb(255,211,32)" stroke-linejoin="round" d="M 5923,1937 L 6023,2037 6123,1937 6023,1837 5923,1937 Z"/>
 <path fill="rgb(255,211,32)" stroke="none" d="M 6418,1937 L 6518,2037 6618,1937 6518,1837 6418,1937 Z"/>
 <path fill="none" stroke="rgb(255,211,32)" stroke-linejoin="round" d="M 6418,1937 L 6518,2037 6618,1937 6518,1837 6418,1937 Z"/>
 <path fill="rgb(255,211,32)" stroke="none" d="M 6913,1835 L 7013,1935 7113,1835 7013,1735 6913,1835 Z"/>
 <path fill="none" stroke="rgb(255,211,32)" stroke-linejoin="round" d="M 6913,1835 L 7013,1935 7113,1835 7013,1735 6913,1835 Z"/>
 <path fill="rgb(255,211,32)" stroke="none" d="M 7408,1580 L 7508,1680 7608,1580 7508,1480 7408,1580 Z"/>
 <path fill="none" stroke="rgb(255,211,32)" stroke-linejoin="round" d="M 7408,1580 L 7508,1680 7608,1580 7508,1480 7408,1580 Z"/>
 <path fill="rgb(255,211,32)" stroke="none" d="M 7903,1580 L 8002,1680 8102,1580 8002,1480 7903,1580 Z"/>
 <path fill="none" stroke="rgb(255,211,32)" stroke-linejoin="round" d="M 7903,1580 L 8002,1680 8102,1580 8002,1480 7903,1580 Z"/>
 <path fill="rgb(255,211,32)" stroke="none" d="M 8397,1580 L 8497,1680 8597,1580 8497,1480 8397,1580 Z"/>
 <path fill="none" stroke="rgb(255,211,32)" stroke-linejoin="round" d="M 8397,1580 L 8497,1680 8597,1580 8497,1480 8397,1580 Z"/>
 <path fill="rgb(255,211,32)" stroke="none" d="M 8892,1529 L 8992,1629 9092,1529 8992,1429 8892,1529 Z"/>
 <path fill="none" stroke="rgb(255,211,32)" stroke-linejoin="round" d="M 8892,1529 L 8992,1629 9092,1529 8992,1429 8892,1529 Z"/>
 <path fill="rgb(255,211,32)" stroke="none" d="M 9387,1529 L 9487,1629 9587,1529 9487,1429 9387,1529 Z"/>
 <path fill="none" stroke="rgb(255,211,32)" stroke-linejoin="round" d="M 9387,1529 L 9487,1629 9587,1529 9487,1429 9387,1529 Z"/>
 <path fill="rgb(255,211,32)" stroke="none" d="M 9882,1478 L 9982,1578 10082,1478 9982,1378 9882,1478 Z"/>
 <path fill="none" stroke="rgb(255,211,32)" stroke-linejoin="round" d="M 9882,1478 L 9982,1578 10082,1478 9982,1378 9882,1478 Z"/>
 <path fill="rgb(255,211,32)" stroke="none" d="M 10377,1478 L 10477,1578 10577,1478 10477,1378 10377,1478 Z"/>
 <path fill="none" stroke="rgb(255,211,32)" stroke-linejoin="round" d="M 10377,1478 L 10477,1578 10577,1478 10477,1378 10377,1478 Z"/>
 <path fill="rgb(255,211,32)" stroke="none" d="M 10872,1376 L 10972,1476 11072,1376 10972,1276 10872,1376 Z"/>
 <path fill="none" stroke="rgb(255,211,32)" stroke-linejoin="round" d="M 10872,1376 L 10972,1476 11072,1376 10972,1276 10872,1376 Z"/>
 <text class="TextShape"><tspan class="TextParagraph" font-family="Liberation Sans" font-size="353px" font-weight="400"><tspan class="TextPosition" x="1476" y="7708"/><tspan class="TextPosition" x="1476" y="7708"><tspan fill="rgb(0,0,0)" stroke="none">1</tspan></tspan></tspan></text>
 <text class="TextShape"><tspan class="TextParagraph" font-family="Liberation Sans" font-size="353px" font-weight="400"><tspan class="TextPosition" x="1970" y="7708"/><tspan class="TextPosition" x="1970" y="7708"><tspan fill="rgb(0,0,0)" stroke="none">2</tspan></tspan></tspan></text>
 <text class="TextShape"><tspan class="TextParagraph" font-family="Liberation Sans" font-size="353px" font-weight="400"><tspan class="TextPosition" x="2465" y="7708"/><tspan class="TextPosition" x="2465" y="7708"><tspan fill="rgb(0,0,0)" stroke="none">3</tspan></tspan></tspan></text>
 <text class="TextShape"><tspan class="TextParagraph" font-family="Liberation Sans" font-size="353px" font-weight="400"><tspan class="TextPosition" x="2960" y="7708"/><tspan class="TextPosition" x="2960" y="7708"><tspan fill="rgb(0,0,0)" stroke="none">4</tspan></tspan></tspan></text>
 <text class="TextShape"><tspan class="TextParagraph" font-family="Liberation Sans" font-size="353px" font-weight="400"><tspan class="TextPosition" x="3455" y="7708"/><tspan class="TextPosition" x="3455" y="7708"><tspan fill="rgb(0,0,0)" stroke="none">5</tspan></tspan></tspan></text>
 <text class="TextShape"><tspan class="TextParagraph" font-family="Liberation Sans" font-size="353px" font-weight="400"><tspan class="TextPosition" x="3950" y="7708"/><tspan class="TextPosition" x="3950" y="7708"><tspan fill="rgb(0,0,0)" stroke="none">6</tspan></tspan></tspan></text>
 <text class="TextShape"><tspan class="TextParagraph" font-family="Liberation Sans" font-size="353px" font-weight="400"><tspan class="TextPosition" x="4445" y="7708"/><tspan class="TextPosition" x="4445" y="7708"><tspan fill="rgb(0,0,0)" stroke="none">7</tspan></tspan></tspan></text>
 <text class="TextShape"><tspan class="TextParagraph" font-family="Liberation Sans" font-size="353px" font-weight="400"><tspan class="TextPosition" x="4940" y="7708"/><tspan class="TextPosition" x="4940" y="7708"><tspan fill="rgb(0,0,0)" stroke="none">8</tspan></tspan></tspan></text>
 <text class="TextShape"><tspan class="TextParagraph" font-family="Liberation Sans" font-size="353px" font-weight="400"><tspan class="TextPosition" x="5435" y="7708"/><tspan class="TextPosition" x="5435" y="7708"><tspan fill="rgb(0,0,0)" stroke="none">9</tspan></tspan></tspan></text>
 <text class="TextShape"><tspan class="TextParagraph" font-family="Liberation Sans" font-size="353px" font-weight="400"><tspan class="TextPosition" x="5838" y="7708"/><tspan class="TextPosition" x="5838" y="7708"><tspan fill="rgb(0,0,0)" stroke="none">10</tspan></tspan></tspan></text>
 <text class="TextShape"><tspan class="TextParagraph" font-family="Liberation Sans" font-size="353px" font-weight="400"><tspan class="TextPosition" x="6346" y="7708"/><tspan class="TextPosition" x="6346" y="7708"><tspan fill="rgb(0,0,0)" stroke="none">11</tspan></tspan></tspan></text>
 <text class="TextShape"><tspan class="TextParagraph" font-family="Liberation Sans" font-size="353px" font-weight="400"><tspan class="TextPosition" x="6828" y="7708"/><tspan class="TextPosition" x="6828" y="7708"><tspan fill="rgb(0,0,0)" stroke="none">12</tspan></tspan></tspan></text>
 <text class="TextShape"><tspan class="TextParagraph" font-family="Liberation Sans" font-size="353px" font-weight="400"><tspan class="TextPosition" x="7323" y="7708"/><tspan class="TextPosition" x="7323" y="7708"><tspan fill="rgb(0,0,0)" stroke="none">13</tspan></tspan></tspan></text>
 <text class="TextShape"><tspan class="TextParagraph" font-family="Liberation Sans" font-size="353px" font-weight="400"><tspan class="TextPosition" x="7818" y="7708"/><tspan class="TextPosition" x="7818" y="7708"><tspan fill="rgb(0,0,0)" stroke="none">14</tspan></tspan></tspan></text>
 <text class="TextShape"><tspan class="TextParagraph" font-family="Liberation Sans" font-size="353px" font-weight="400"><tspan class="TextPosition" x="8313" y="7708"/><tspan class="TextPosition" x="8313" y="7708"><tspan fill="rgb(0,0,0)" stroke="none">15</tspan></tspan></tspan></text>
 <text class="TextShape"><tspan class="TextParagraph" font-family="Liberation Sans" font-size="353px" font-weight="400"><tspan class="TextPosition" x="8808" y="7708"/><tspan class="TextPosition" x="8808" y="7708"><tspan fill="rgb(0,0,0)" stroke="none">16</tspan></tspan></tspan></text>
 <text class="TextShape"><tspan class="TextParagraph" font-family="Liberation Sans" font-size="353px" font-weight="400"><tspan class="TextPosition" x="9303" y="7708"/><tspan class="TextPosition" x="9303" y="7708"><tspan fill="rgb(0,0,0)" stroke="none">17</tspan></tspan></tspan></text>
 <text class="TextShape"><tspan class="TextParagraph" font-family="Liberation Sans" font-size="353px" font-weight="400"><tspan class="TextPosition" x="9798" y="7708"/><tspan class="TextPosition" x="9798" y="7708"><tspan fill="rgb(0,0,0)" stroke="none">18</tspan></tspan></tspan></text>
 <text class="TextShape"><tspan class="TextParagraph" font-family="Liberation Sans" font-size="353px" font-weight="400"><tspan class="TextPosition" x="10293" y="7708"/><tspan class="TextPosition" x="10293" y="7708"><tspan fill="rgb(0,0,0)" stroke="none">19</tspan></tspan></tspan></text>
 <text class="TextShape"><tspan class="TextParagraph" font-family="Liberation Sans" font-size="353px" font-weight="400"><tspan class="TextPosition" x="10788" y="7708"/><tspan class="TextPosition" x="10788" y="7708"><tspan fill="rgb(0,0,0)" stroke="none">20</tspan></tspan></tspan></text>
 <text class="TextShape"><tspan class="TextParagraph" font-family="Liberation Sans" font-size="353px" font-weight="400"><tspan class="TextPosition" x="1134" y="7261"/><tspan class="TextPosition" x="1134" y="7261"><tspan fill="rgb(0,0,0)" stroke="none">0</tspan></tspan></tspan></text>
 <text class="TextShape"><tspan class="TextParagraph" font-family="Liberation Sans" font-size="353px" font-weight="400"><tspan class="TextPosition" x="843" y="6240"/><tspan class="TextPosition" x="843" y="6240"><tspan fill="rgb(0,0,0)" stroke="none">0,2</tspan></tspan></tspan></text>
 <text class="TextShape"><tspan class="TextParagraph" font-family="Liberation Sans" font-size="353px" font-weight="400"><tspan class="TextPosition" x="843" y="5220"/><tspan class="TextPosition" x="843" y="5220"><tspan fill="rgb(0,0,0)" stroke="none">0,4</tspan></tspan></tspan></text>
 <text class="TextShape"><tspan class="TextParagraph" font-family="Liberation Sans" font-size="353px" font-weight="400"><tspan class="TextPosition" x="843" y="4199"/><tspan class="TextPosition" x="843" y="4199"><tspan fill="rgb(0,0,0)" stroke="none">0,6</tspan></tspan></tspan></text>
 <text class="TextShape"><tspan class="TextParagraph" font-family="Liberation Sans" font-size="353px" font-weight="400"><tspan class="TextPosition" x="843" y="3179"/><tspan class="TextPosition" x="843" y="3179"><tspan fill="rgb(0,0,0)" stroke="none">0,8</tspan></tspan></tspan></text>
 <text class="TextShape"><tspan class="TextParagraph" font-family="Liberation Sans" font-size="353px" font-weight="400"><tspan class="TextPosition" x="1134" y="2159"/><tspan class="TextPosition" x="1134" y="2159"><tspan fill="rgb(0,0,0)" stroke="none">1</tspan></tspan></tspan></text>
 <text class="TextShape"><tspan class="TextParagraph" font-family="Liberation Sans" font-size="353px" font-weight="400"><tspan class="TextPosition" x="843" y="1138"/><tspan class="TextPosition" x="843" y="1138"><tspan fill="rgb(0,0,0)" stroke="none">1,2</tspan></tspan></tspan></text>
 <path fill="none" stroke="rgb(102,204,0)" stroke-width="50" stroke-linejoin="round" d="M 11596,4250 L 12396,4250"/>
 <path fill="rgb(102,204,0)" stroke="none" d="M 11890,4145 L 11890,4356 12101,4356 12101,4145 11890,4145 Z"/>
 <path fill="none" stroke="rgb(102,204,0)" stroke-linejoin="round" d="M 11890,4145 L 11890,4356 12101,4356 12101,4145 11890,4145 Z"/>
 <path fill="none" stroke="rgb(255,211,32)" stroke-width="50" stroke-linejoin="round" d="M 11596,4747 L 12396,4747"/>
 <path fill="rgb(255,211,32)" stroke="none" d="M 11890,4747 L 11996,4853 12101,4747 11996,4642 11890,4747 Z"/>
 <path fill="none" stroke="rgb(255,211,32)" stroke-linejoin="round" d="M 11890,4747 L 11996,4853 12101,4747 11996,4642 11890,4747 Z"/>
 <text class="TextShape"><tspan class="TextParagraph" font-family="Liberation Sans" font-size="353px" font-weight="400"><tspan class="TextPosition" x="12496" y="4370"/><tspan class="TextPosition" x="12496" y="4370"><tspan fill="rgb(0,0,0)" stroke="none">LD_PRELOAD + FM</tspan></tspan></tspan></text>
 <text class="TextShape"><tspan class="TextParagraph" font-family="Liberation Sans" font-size="353px" font-weight="400"><tspan class="TextPosition" x="12496" y="4867"/><tspan class="TextPosition" x="12496" y="4867"><tspan fill="rgb(0,0,0)" stroke="none">FM</tspan></tspan></tspan></text>
 <text class="TextShape"><tspan class="TextParagraph" font-family="Liberation Sans" font-size="353px" font-weight="400"><tspan class="TextPosition" x="11357" y="7257"/><tspan class="TextPosition" x="11357" y="7257"><tspan fill="rgb(0,0,0)" stroke="none">Expérience</tspan></tspan></tspan></text>
 <text class="TextShape"><tspan class="TextParagraph" font-family="Liberation Sans" font-size="353px" font-weight="400"><tspan class="TextPosition" x="814" y="580"/><tspan class="TextPosition" x="814" y="580"><tspan fill="rgb(0,0,0)" stroke="none">Temps(sec)</tspan></tspan></tspan></text>
</svg>